<?xml version="1.0" standalone="no"?>
<!DOCTYPE svg PUBLIC "-//W3C//DTD SVG 20010904//EN"
 "http://www.w3.org/TR/2001/REC-SVG-20010904/DTD/svg10.dtd">
<svg version="1.0" xmlns="http://www.w3.org/2000/svg"
 width="1200.000000pt" height="1200.000000pt" viewBox="0 0 1200.000000 1200.000000"
 preserveAspectRatio="xMidYMid meet">
<metadata>
Created by potrace 1.11, written by Peter Selinger 2001-2013
</metadata>
<g transform="translate(0.000000,1200.000000) scale(0.100000,-0.100000)"
fill="#000000" stroke="none">
<path d="M1660 10223 c0 -7 -231 -9 -1443 -12 l-207 -1 61 -117 c34 -65 75
-145 92 -178 18 -33 34 -62 37 -65 10 -9 65 -125 62 -129 -2 -2 0 -7 5 -10 4
-3 26 -40 47 -81 40 -76 83 -159 174 -330 27 -52 73 -140 102 -195 28 -55 56
-106 62 -112 6 -7 7 -13 3 -13 -4 0 -3 -6 3 -12 10 -13 43 -75 152 -283 34
-66 71 -135 82 -152 11 -18 16 -33 12 -33 -4 0 0 -8 8 -17 8 -10 25 -38 37
-63 58 -113 144 -276 153 -287 6 -7 7 -13 2 -13 -5 0 -4 -4 2 -8 6 -4 24 -34
40 -67 16 -33 31 -62 34 -65 3 -3 23 -41 45 -85 22 -44 48 -92 58 -107 10 -16
15 -28 11 -28 -3 0 -1 -6 5 -13 6 -8 30 -51 54 -98 25 -46 65 -124 91 -174 26
-49 51 -94 57 -99 5 -6 9 -18 9 -27 0 -10 3 -19 8 -21 4 -1 26 -39 48 -83 87
-168 136 -260 146 -272 6 -7 7 -13 4 -13 -4 0 1 -12 11 -27 11 -16 33 -55 50
-88 74 -148 97 -191 111 -207 8 -10 12 -18 8 -18 -4 0 1 -15 12 -32 20 -34 92
-169 169 -318 25 -47 60 -114 79 -150 20 -36 72 -135 116 -220 44 -85 89 -170
99 -187 10 -18 15 -33 11 -33 -4 0 -2 -4 4 -8 6 -4 51 -86 101 -182 50 -96
110 -211 133 -255 23 -44 67 -127 97 -185 30 -58 60 -111 65 -117 6 -7 7 -13
3 -13 -4 0 -2 -7 5 -15 7 -9 27 -44 45 -78 17 -34 57 -109 87 -167 31 -58 77
-148 104 -200 27 -52 51 -97 54 -100 3 -3 22 -39 43 -80 78 -154 152 -295 157
-300 10 -10 52 -99 50 -106 -1 -4 2 -10 7 -13 5 -3 25 -37 43 -76 19 -38 37
-72 40 -75 6 -5 100 -186 129 -248 8 -17 19 -32 23 -32 4 0 8 -6 8 -13 0 -18
28 -75 41 -82 5 -4 9 -15 9 -25 0 -10 4 -20 8 -22 5 -1 33 -50 62 -108 56
-110 85 -165 99 -190 24 -43 155 -294 203 -390 24 -47 46 -87 49 -90 6 -6 21
-43 19 -49 -1 -2 2 -7 7 -10 5 -3 51 -87 103 -186 125 -242 134 -259 143 -266
5 -3 8 -9 8 -13 -1 -3 16 -39 36 -79 21 -39 44 -85 52 -102 8 -16 16 -32 19
-35 2 -3 701 -5 1553 -5 l1549 0 26 50 c15 27 56 106 92 175 36 69 79 152 96
185 17 33 34 62 39 63 4 2 7 12 7 22 0 10 3 20 8 22 4 2 23 35 43 73 20 39 56
108 81 155 25 47 71 133 102 193 123 234 149 282 158 295 6 6 7 12 4 12 -4 0
2 13 13 29 12 16 21 34 21 40 0 6 5 11 10 11 6 0 9 3 8 7 -2 11 12 43 39 85
13 21 20 38 16 38 -5 0 -3 4 2 8 6 4 21 27 33 52 13 25 60 115 105 200 44 85
85 158 91 162 6 4 8 8 4 8 -3 0 17 44 46 98 29 53 65 124 82 157 16 33 32 62
35 65 3 3 19 32 34 65 16 33 32 62 35 65 3 3 22 39 43 80 22 41 71 136 110
210 39 74 85 162 101 195 17 33 34 62 37 65 4 3 10 16 14 30 4 14 11 27 14 30
4 3 22 34 40 70 19 36 53 101 76 145 74 142 188 358 226 430 21 39 48 90 60
115 13 25 35 66 51 93 15 26 24 47 20 47 -4 0 -2 4 3 8 6 4 19 26 29 50 11 23
23 42 28 42 4 0 8 8 8 19 0 10 7 24 15 31 9 7 13 15 11 18 -3 2 5 21 18 41 12
20 39 70 61 111 21 41 42 78 47 81 6 3 8 8 6 10 -5 7 34 89 42 89 5 0 11 12
15 27 3 15 14 38 24 52 9 14 35 62 57 106 21 44 41 82 44 85 3 3 24 41 45 85
22 44 44 84 48 90 4 5 20 35 36 65 15 30 53 102 83 160 31 58 71 134 89 170
19 36 38 68 44 72 5 4 6 8 1 8 -5 0 -4 6 2 13 5 6 37 64 70 127 32 63 75 144
94 180 38 70 144 271 303 575 55 104 110 208 124 230 3 6 6 16 8 24 1 8 5 17
10 20 4 3 22 33 39 66 48 94 188 360 244 465 28 52 60 115 72 140 12 25 26 47
30 48 4 2 8 12 8 22 0 10 3 20 8 22 7 3 51 85 151 283 25 50 49 92 52 95 3 3
22 39 43 80 21 41 52 102 70 135 75 141 201 380 305 580 20 39 39 72 44 73 4
2 7 8 7 13 0 5 -769 9 -1935 9 l-1934 0 -15 -32 c-8 -18 -49 -114 -91 -213
-43 -99 -86 -200 -97 -225 -11 -25 -20 -46 -19 -48 1 -1 -5 -15 -13 -30 -13
-24 -27 -57 -30 -72 -1 -3 -7 -14 -13 -25 -6 -11 -34 -76 -63 -145 -29 -69
-66 -153 -81 -188 -16 -34 -29 -65 -29 -67 0 -3 -16 -39 -35 -81 -19 -41 -35
-78 -35 -80 0 -3 -11 -29 -24 -57 -13 -29 -48 -110 -79 -182 -30 -71 -63 -143
-71 -160 -9 -16 -16 -37 -16 -46 0 -8 -4 -19 -9 -25 -5 -5 -37 -76 -72 -159
-35 -82 -67 -153 -72 -156 -5 -3 -8 -10 -8 -15 2 -9 -37 -102 -91 -222 -15
-35 -28 -66 -28 -69 0 -3 -6 -19 -14 -36 -35 -78 -62 -140 -202 -464 -8 -18
-14 -35 -14 -38 0 -3 -9 -22 -20 -42 -11 -21 -20 -41 -20 -45 0 -3 -15 -39
-34 -80 -18 -40 -39 -90 -47 -110 -7 -21 -17 -38 -23 -38 -5 0 -7 -2 -4 -6 3
-3 -16 -54 -42 -114 -27 -59 -46 -111 -42 -114 3 -3 1 -6 -4 -6 -6 0 -16 -17
-23 -37 -8 -21 -29 -71 -47 -111 -19 -40 -37 -84 -40 -98 -3 -13 -10 -27 -15
-30 -5 -3 -9 -14 -9 -25 0 -10 -4 -19 -10 -19 -5 0 -10 -6 -10 -14 0 -14 -50
-132 -76 -178 -8 -15 -15 -31 -16 -35 -1 -10 -10 -34 -37 -96 -11 -26 -20 -49
-20 -52 -1 -3 -8 -20 -18 -38 -9 -17 -18 -34 -18 -37 -5 -16 -27 -69 -41 -92
-8 -16 -12 -28 -8 -28 3 0 0 -7 -7 -16 -7 -9 -14 -21 -15 -28 -3 -15 -95 -228
-104 -241 -4 -5 -13 -28 -20 -50 -7 -22 -16 -44 -20 -50 -10 -13 -71 -156 -74
-173 -1 -7 -8 -18 -14 -24 -7 -7 -12 -18 -12 -25 0 -18 -32 -83 -42 -83 -4 0
-9 5 -9 10 -2 18 -5 24 -38 95 -18 39 -39 84 -46 100 -17 38 -60 133 -92 205
-35 76 -49 109 -143 320 -103 232 -116 261 -150 335 -15 33 -44 98 -65 145
-20 47 -49 110 -62 140 -14 30 -29 64 -34 75 -4 11 -26 59 -47 106 -22 47 -45
102 -53 122 -7 20 -17 37 -21 37 -4 0 -8 7 -8 14 0 8 -16 50 -36 93 -20 43
-42 92 -49 108 -20 45 -49 111 -89 198 -20 43 -36 80 -36 82 0 3 -28 65 -95
210 -12 28 -37 84 -55 125 -18 41 -43 97 -56 124 -13 28 -24 56 -24 63 0 7 -4
13 -10 13 -5 0 -9 3 -8 8 1 8 -10 38 -48 120 -14 31 -81 181 -149 332 -68 151
-134 300 -148 330 -13 30 -49 111 -80 180 -30 69 -66 150 -80 180 -14 30 -35
78 -47 105 -12 28 -31 70 -43 95 -150 333 -209 467 -210 478 0 6 -3 12 -7 12
-4 0 -13 18 -20 40 -7 22 -16 40 -20 40 -4 0 -7 6 -7 13 1 6 -18 53 -42 102
-24 50 -44 95 -46 100 -1 6 -13 34 -26 63 l-23 52 -888 -5 c-489 -2 -893 -7
-898 -10 -5 -3 -11 -2 -13 3 -3 4 -23 6 -44 5 -77 -6 -171 -5 -180 0 -5 3 -15
2 -23 -3 -8 -5 -22 -5 -32 1 -10 5 -18 6 -18 2z"/>
</g>
</svg>
