<svg xmlns="http://www.w3.org/2000/svg" xmlns:xlink="http://www.w3.org/1999/xlink" width="534" height="376" viewBox="0 0 534 376"><defs><style>.a,.m{fill:#fff;}.a{stroke:#707070;}.b{clip-path:url(#a);}.c{fill:#3f3d56;}.d{fill:#a0616a;}.e{fill:#55358f;}.f{fill:#2f2e41;}.g{fill:#d0cde1;}.h{fill:#f2f2f2;}.i{fill:#6c63ff;}.j{fill:#363636;}.k{fill:#981d97;}.l{fill:#926cd8;}.m{opacity:0.1;}</style><clipPath id="a"><rect class="a" width="534" height="376" transform="translate(645 291)"/></clipPath></defs><g class="b" transform="translate(-645 -291)"><g transform="translate(678.654 291)"><ellipse class="c" cx="230.574" cy="18.014" rx="230.574" ry="18.014" transform="translate(5.543 339.973)"/><path class="d" d="M431.977,324.522l2.161,15.848-15.128,1.441,2.161-19.45Z"/><path class="d" d="M459.875,168.392s1.441,19.45,1.441,20.17-10.085,50.426-10.085,50.426-14.407,27.374,0,26.653,10.085-25.933,10.085-25.933l15.128-41.781-6.483-29.535Z" transform="translate(-99.213 -61.419)"/><path class="d" d="M384.433,324.522l-2.161,15.848,15.128,1.441-2.161-19.45Z"/><path class="e" d="M467.078,237.548l-3.6,5.043s-2.161,21.611,0,28.814,6.483,40.34,6.483,42.5.72,3.6,0,4.322-2.881.72-1.441,2.161,1.441,5.763,1.441,5.763v3.6l9.365,53.307s-5.763,6.483-1.441,6.483,20.17,0,19.45-7.2l-1.441-.72s-2.161-47.544-1.441-49.7,0-6.483,0-6.483-1.441-2.161,0-2.881,1.441-6.483,1.441-6.483l6.483-43.942s5.763,29.535,9.365,32.416,2.881,10.085,2.881,10.085l2.881,63.392s-2.881,7.2,0,8.644,15.128,6.483,15.848-.72,4.322-69.875,4.322-72.756-.72-4.322,0-6.483-.72-2.161,0-2.161-1.441-2.161-1.441-3.6v-35.3s.72-7.2,1.441-8.644-.72-2.881,0-5.043-1.441-9.365-1.441-9.365l-32.416-8.644Z" transform="translate(-99.213 -61.419)"/><path class="f" d="M492.291,398.908s3.6-3.6-1.441-3.6a23.448,23.448,0,0,0-9.365,2.161l-3.6,12.967s-14.768,11.886,1.8,10.445,14.047-.36,14.047-.36,5.043-1.441,5.763-2.881-1.441-22.331-1.441-22.331S495.893,401.069,492.291,398.908Z" transform="translate(-99.213 -61.419)"/><path class="f" d="M523.266,398.908s-3.6-3.6,1.441-3.6a23.448,23.448,0,0,1,9.365,2.161l3.6,12.967s14.767,11.886-1.8,10.445-16.208-.36-16.208-.36-5.043-1.441-5.763-2.881,3.6-22.331,3.6-22.331S519.665,401.069,523.266,398.908Z" transform="translate(-99.213 -61.419)"/><circle class="d" cx="18.729" cy="18.729" r="18.729" transform="translate(358.5 12.606)"/><path class="d" d="M469.96,106.442s2.881,14.407,2.881,16.568,12.246,8.644,12.246,8.644l13.687-17.289s-8.644-12.246-8.644-15.128Z" transform="translate(-99.213 -61.419)"/><path class="g" d="M480.765,125.171s-6.278-1.671-8.182-4.437c0,0-19.912,19.565-19.912,23.167l15.848,28.094s0,10.085,1.441,10.805,0,0,0,2.881-4.322,21.611-2.881,24.492,2.881.72,1.441,5.043-5.043,27.374-5.043,27.374,12.966-4.322,31.7,2.881,41.061-2.881,41.061-2.881-5.763-12.966-4.322-17.289-3.6-12.246-3.6-12.246l-3.6-66.273s5.043-29.535,1.441-30.975l-7.2-2.881-23.069-2.835S490.13,124.451,480.765,125.171Z" transform="translate(-99.213 -61.419)"/><path class="g" d="M459.875,138.858l-7.2,5.043s-3.6,10.805,0,15.848,5.043,12.246,5.043,12.246l14.407-1.441Z" transform="translate(-99.213 -61.419)"/><path class="f" d="M462.143,72.961l-3.249-1.3s6.793-7.479,16.244-6.828l-2.658-2.926s6.5-2.6,12.4,4.227c3.105,3.59,6.7,7.809,8.938,12.562H497.3l-1.452,3.2,5.082,3.2-5.217-.574a17.693,17.693,0,0,1-.493,8.281l.14,2.527s-6.047-9.356-6.047-10.656v3.252s-3.249-2.926-3.249-4.877l-1.772,2.276-.886-3.577L472.48,85.317l1.772-2.926-6.793.976,2.658-3.577s-7.679,4.227-7.974,7.8-4.135,8.129-4.135,8.129l-1.772-3.252S453.578,77.838,462.143,72.961Z" transform="translate(-99.213 -61.419)"/><rect class="h" width="286.257" height="201.086" transform="translate(81.016 156.764)"/><path class="e" d="M0,0H71.876V125.471H0Z" transform="translate(105.114 233.488)"/><rect class="h" width="19.361" height="18.049" transform="translate(118.409 241.015)"/><rect class="h" width="19.361" height="18.049" transform="translate(144.333 241.015)"/><rect class="h" width="19.361" height="18.705" transform="translate(118.409 265.627)"/><rect class="h" width="19.361" height="18.705" transform="translate(144.333 265.627)"/><circle class="i" cx="4.57" cy="4.57" r="4.57" transform="translate(163.279 300.101)"/><rect class="j" width="142.09" height="119.239" transform="translate(201.087 221.577)"/><path class="k" d="M397.188,194.621H51.1l23.075-48.244,5.164-10.8L86.1,121.449l5.164-10.8,5.987-12.514H369.92l3.536,12.514,3.053,10.8,3.993,14.126,3.053,10.8Z"/><rect class="l" width="4.986" height="30.745" transform="translate(206.072 271.017)"/><rect class="h" width="4.986" height="3.739" transform="translate(206.072 275.588)"/><rect class="h" width="4.986" height="3.739" transform="translate(206.072 293.453)"/><rect class="l" width="12.049" height="30.745" transform="translate(213.551 271.017)"/><rect class="h" width="12.049" height="3.739" transform="translate(213.551 275.588)"/><rect class="h" width="12.049" height="3.739" transform="translate(213.551 293.453)"/><rect class="l" width="4.986" height="30.745" transform="translate(228.507 271.017)"/><rect class="h" width="4.986" height="3.739" transform="translate(228.507 275.588)"/><rect class="h" width="4.986" height="3.739" transform="translate(228.507 293.453)"/><rect class="l" width="4.986" height="30.745" transform="translate(235.986 271.017)"/><rect class="h" width="4.986" height="3.739" transform="translate(235.986 275.588)"/><rect class="h" width="4.986" height="3.739" transform="translate(235.986 293.453)"/><rect class="l" width="4.986" height="30.745" transform="translate(241.113 272.884) rotate(-20.654)"/><rect class="h" width="4.986" height="3.739" transform="translate(242.725 277.161) rotate(-20.654)"/><rect class="h" width="4.986" height="3.739" transform="translate(249.027 293.878) rotate(-20.654)"/><rect class="l" width="12.049" height="30.745" transform="translate(326.558 271.017)"/><rect class="h" width="12.049" height="3.739" transform="translate(326.558 275.588)"/><rect class="h" width="12.049" height="3.739" transform="translate(326.558 293.453)"/><rect class="l" width="4.986" height="30.745" transform="translate(318.664 271.017)"/><rect class="h" width="4.986" height="3.739" transform="translate(318.664 275.588)"/><rect class="h" width="4.986" height="3.739" transform="translate(318.664 293.453)"/><rect class="l" width="4.986" height="30.745" transform="translate(311.186 271.017)"/><rect class="h" width="4.986" height="3.739" transform="translate(311.186 275.588)"/><rect class="l" width="4.986" height="3.739" transform="translate(311.186 293.453)"/><rect class="l" width="30.745" height="4.986" transform="translate(295.54 299.895) rotate(-69.346)"/><rect class="h" width="3.739" height="4.986" transform="translate(303.453 278.902) rotate(-69.346)"/><rect class="h" width="3.739" height="4.986" transform="translate(297.152 295.619) rotate(-69.346)"/><rect class="h" width="142.09" height="2.908" transform="translate(201.087 301.762)"/><rect class="l" width="26.174" height="30.745" transform="translate(262.992 271.017)"/><rect class="h" width="13.295" height="5.817" transform="translate(269.431 277.665)"/><rect class="h" width="2.493" height="26.59" transform="translate(270.885 221.577)"/><circle class="h" cx="4.155" cy="4.155" r="4.155" transform="translate(267.977 244.012)"/><path class="l" d="M376.51,121.449H86.1l5.164-10.8H373.456Z"/><path class="l" d="M383.556,146.377H74.178l5.164-10.8H380.5Z"/><path class="d" d="M513.181,145.341s-4.171,10.727-3.3,21.34a11.248,11.248,0,0,0,1.859,5.314h0l-51.106,24.263s-23.092,2.391-17.329,12.476,26.653-5.043,26.653-5.043,54.747-7.924,59.07-15.848,7.2-41.061,7.2-41.061Z" transform="translate(-99.213 -61.419)"/><path class="g" d="M515.342,115.806h10.805s7.924,1.441,10.085,15.848,4.322,18.009,2.161,18.009-28.094-.72-28.094-1.441S515.342,115.806,515.342,115.806Z" transform="translate(-99.213 -61.419)"/><circle class="k" cx="55.427" cy="55.427" r="55.427" transform="translate(0 158.728)"/><path class="m" d="M47.667,0A47.667,47.667,0,1,1,0,47.667,47.667,47.667,0,0,1,47.667,0Z" transform="translate(7.76 166.488)"/><path class="h" d="M152.356,303.7v-6.938a16.11,16.11,0,0,1-9.251-3.022l1.451-4.6a14.789,14.789,0,0,0,8.707,2.953c4.293,0,7.2-2.816,7.2-6.732,0-3.778-2.358-6.113-6.833-8.174-6.168-2.747-9.977-5.907-9.977-11.883a10.8,10.8,0,0,1,9.131-11.059v-6.938h3.749v6.663a14.712,14.712,0,0,1,7.861,2.4l-1.512,4.534a13.362,13.362,0,0,0-7.619-2.336c-4.656,0-6.409,3.16-6.409,5.907,0,3.572,2.237,5.358,7.5,7.831,6.228,2.885,9.372,6.457,9.372,12.57a11.5,11.5,0,0,1-9.554,11.677V303.7Z" transform="translate(-99.213 -61.419)"/></g></g></svg>