<svg xmlns="http://www.w3.org/2000/svg" xmlns:xlink="http://www.w3.org/1999/xlink" width="300" height="269" viewBox="0 0 300 269">
  <defs>
    <clipPath id="clip-path">
      <path id="Rectangle_132" data-name="Rectangle 132" d="M10,0H290a10,10,0,0,1,10,10V269a0,0,0,0,1,0,0H0a0,0,0,0,1,0,0V10A10,10,0,0,1,10,0Z" transform="translate(135 1643)" fill="#fff"/>
    </clipPath>
  </defs>
  <g id="Mask_Group_21" data-name="Mask Group 21" transform="translate(-135 -1643)" clip-path="url(#clip-path)">
    <g id="responsivo" transform="translate(135.002 1667.044)">
      <path id="Path_658" data-name="Path 658" d="M17.309,130.161c4.747,20.29,14.8,37.829,30.678,46.33,33.005,17.667,107.44,8.556,162.993-1.914a127.21,127.21,0,0,0,72.338-41.353Z" transform="translate(-14.069 -12.592)" fill="#6c63ff" opacity="0.1"/>
      <path id="Path_659" data-name="Path 659" d="M308.626,34.662H278.144a2.635,2.635,0,1,1,0-5.269h5.269a2.635,2.635,0,0,1,0-5.269h-3.763a2.635,2.635,0,0,1,0-5.269H295.56a42.1,42.1,0,0,0-12.409-3.421c-43.38-5.573-58.868-1.887-64.331,1.914a60.75,60.75,0,0,1-22.3,9.773C169.758,32.641,119.7,39.286,74.336,24.993c-22.548-7.11-39.308,4.9-49.352,24.96H313.917a47.08,47.08,0,0,0-3.579-15.926,2.62,2.62,0,0,1-1.712.634Z" transform="translate(-14.069 -12.592)" fill="#6c63ff" opacity="0.1"/>
      <path id="Path_660" data-name="Path 660" d="M14.722,87.817a134.279,134.279,0,0,0,1.181,35.4L283.52,133a125.787,125.787,0,0,0,18.594-28.356ZM120.568,113.07H115.3a2.635,2.635,0,0,1,0,5.269H84.818a2.635,2.635,0,1,1,0-5.269h5.269a2.635,2.635,0,1,1,0-5.269H86.324a2.635,2.635,0,1,1,0-5.269h30.481a2.635,2.635,0,0,1,0,5.269h3.763a2.635,2.635,0,1,1,0,5.269Z" transform="translate(-14.069 -12.592)" fill="#6c63ff" opacity="0.1"/>
      <path id="Path_661" data-name="Path 661" d="M313.93,50.134,21.755,57.243a116.684,116.684,0,0,0-6.989,30.169H308.811a124.82,124.82,0,0,0,4.247-19.231A91.134,91.134,0,0,0,313.93,50.134ZM74.082,73.42H68.813a2.635,2.635,0,0,1,0,5.269H38.332a2.635,2.635,0,1,1,0-5.269H43.6a2.635,2.635,0,0,1,0-5.269H39.838a2.635,2.635,0,1,1,0-5.269H70.32a2.635,2.635,0,0,1,0,5.269h3.763a2.635,2.635,0,0,1,0,5.269Z" transform="translate(-14.069 -12.592)" fill="#6c63ff" opacity="0.1"/>
      <g id="Group_39" data-name="Group 39" opacity="0.1">
        <path id="Path_662" data-name="Path 662" d="M199.343,183.026s7.711-19,22.111-26.054a31.077,31.077,0,0,0,14.113-13.686A52.267,52.267,0,0,0,239.1,134.4" transform="translate(-14.069 -12.592)" fill="none"/>
        <path id="Path_663" data-name="Path 663" d="M248.15,129.9c-1.5,1.887-9.27,4.649-9.27,4.649s.935-8.2,2.436-10.077a4.375,4.375,0,0,1,6.836,5.436Z" transform="translate(-14.069 -12.592)" fill="#6c63ff"/>
        <path id="Path_664" data-name="Path 664" d="M245.484,144.847c-2.286.768-10.3-1.143-10.3-1.143s5.237-6.366,7.523-7.134a4.375,4.375,0,0,1,2.781,8.277Z" transform="translate(-14.069 -12.592)" fill="#6c63ff"/>
        <path id="Path_665" data-name="Path 665" d="M231.03,162.512c-2.36-.489-8.318-6.188-8.318-6.188s7.733-2.852,10.1-2.363a4.375,4.375,0,0,1-1.777,8.548Z" transform="translate(-14.069 -12.592)" fill="#6c63ff"/>
        <path id="Path_666" data-name="Path 666" d="M217.084,173.417c-2.409-.085-9.245-4.692-9.245-4.692s7.142-4.11,9.551-4.033a4.375,4.375,0,1,1-.306,8.726Z" transform="translate(-14.069 -12.592)" fill="#6c63ff"/>
        <path id="Path_667" data-name="Path 667" d="M227.715,138.364c.309,2.393,5.529,8.769,5.529,8.769s3.437-7.492,3.131-9.885a4.375,4.375,0,0,0-8.66,1.116Z" transform="translate(-14.069 -12.592)" fill="#6c63ff"/>
        <path id="Path_668" data-name="Path 668" d="M211.566,151.323c1.009,2.188,7.9,6.713,7.9,6.713s1.039-8.179.03-10.366a4.375,4.375,0,1,0-7.93,3.656Z" transform="translate(-14.069 -12.592)" fill="#6c63ff"/>
        <path id="Path_669" data-name="Path 669" d="M197.6,166.072c.623,2.33,6.653,7.952,6.653,7.952s2.406-7.883,1.78-10.213a4.375,4.375,0,0,0-8.433,2.261Z" transform="translate(-14.069 -12.592)" fill="#6c63ff"/>
        <path id="Path_670" data-name="Path 670" d="M248.15,129.9c-1.5,1.887-9.27,4.649-9.27,4.649s.935-8.2,2.436-10.077a4.375,4.375,0,0,1,6.836,5.436Z" transform="translate(-14.069 -12.592)" opacity="0.25"/>
        <path id="Path_671" data-name="Path 671" d="M245.484,144.847c-2.286.768-10.3-1.143-10.3-1.143s5.237-6.366,7.523-7.134a4.375,4.375,0,0,1,2.781,8.277Z" transform="translate(-14.069 -12.592)" opacity="0.25"/>
        <path id="Path_672" data-name="Path 672" d="M231.03,162.512c-2.36-.489-8.318-6.188-8.318-6.188s7.733-2.852,10.1-2.363a4.375,4.375,0,0,1-1.777,8.548Z" transform="translate(-14.069 -12.592)" opacity="0.25"/>
        <path id="Path_673" data-name="Path 673" d="M217.084,173.417c-2.409-.085-9.245-4.692-9.245-4.692s7.142-4.11,9.551-4.033a4.375,4.375,0,1,1-.306,8.726Z" transform="translate(-14.069 -12.592)" opacity="0.25"/>
        <path id="Path_674" data-name="Path 674" d="M227.715,138.364c.309,2.393,5.529,8.769,5.529,8.769s3.437-7.492,3.131-9.885a4.375,4.375,0,0,0-8.66,1.116Z" transform="translate(-14.069 -12.592)" opacity="0.25"/>
        <path id="Path_675" data-name="Path 675" d="M211.566,151.323c1.009,2.188,7.9,6.713,7.9,6.713s1.039-8.179.03-10.366a4.375,4.375,0,1,0-7.93,3.656Z" transform="translate(-14.069 -12.592)" opacity="0.25"/>
        <path id="Path_676" data-name="Path 676" d="M197.6,166.072c.623,2.33,6.653,7.952,6.653,7.952s2.406-7.883,1.78-10.213a4.375,4.375,0,0,0-8.433,2.261Z" transform="translate(-14.069 -12.592)" opacity="0.25"/>
      </g>
      <g id="Group_40" data-name="Group 40" opacity="0.1">
        <path id="Path_677" data-name="Path 677" d="M193.874,155.238s.973-20.487,12.22-31.914a31.077,31.077,0,0,0,8.75-17.6,52.265,52.265,0,0,0,.391-9.549" transform="translate(-14.069 -12.592)" fill="none"/>
        <path id="Path_678" data-name="Path 678" d="M222.312,88.936c-.79,2.278-7.205,7.454-7.205,7.454s-1.832-8.037-1.042-10.314a4.375,4.375,0,1,1,8.247,2.86Z" transform="translate(-14.069 -12.592)" fill="#6c63ff"/>
        <path id="Path_679" data-name="Path 679" d="M224.74,103.91c-1.914,1.482-10.1,2.341-10.1,2.341s2.83-7.744,4.731-9.226a4.375,4.375,0,1,1,5.37,6.885Z" transform="translate(-14.069 -12.592)" fill="#6c63ff"/>
        <path id="Path_680" data-name="Path 680" d="M216.961,125.381c-2.39.32-9.9-3.079-9.9-3.079s6.352-5.256,8.75-5.576a4.375,4.375,0,1,1,1.159,8.655Z" transform="translate(-14.069 -12.592)" fill="#6c63ff"/>
        <path id="Path_681" data-name="Path 681" d="M207.42,140.292c-2.3.719-10.279-1.367-10.279-1.367s5.37-6.254,7.673-6.973a4.375,4.375,0,0,1,2.606,8.335Z" transform="translate(-14.069 -12.592)" fill="#6c63ff"/>
        <path id="Path_682" data-name="Path 682" d="M205.826,103.7c1.094,2.155,8.127,6.44,8.127,6.44s.757-8.2-.325-10.364a4.375,4.375,0,0,0-7.8,3.924Z" transform="translate(-14.069 -12.592)" fill="#6c63ff"/>
        <path id="Path_683" data-name="Path 683" d="M194.888,121.279c1.679,1.731,9.68,3.713,9.68,3.713s-1.731-8.058-3.41-9.789a4.375,4.375,0,0,0-6.27,6.079Z" transform="translate(-14.069 -12.592)" fill="#6c63ff"/>
        <path id="Path_684" data-name="Path 684" d="M186.6,139.824c1.367,1.991,8.914,5.3,8.914,5.3s-.345-8.236-1.706-10.227a4.375,4.375,0,0,0-7.205,4.922Z" transform="translate(-14.069 -12.592)" fill="#6c63ff"/>
      </g>
      <path id="Path_685" data-name="Path 685" d="M96.032,224.721c10.752,3.615,23.869,1.416,36.068,1.671a12.432,12.432,0,0,1,4.777.763,10.9,10.9,0,0,1,2.918,2.5c3.418,3.224,10.421,4.26,16.544,3.713s11.736-2.357,17.5-3.735c9.986-2.384,21.4-3.467,31.252-.87a8.141,8.141,0,0,0,2.825.418c2.16-.213,2.8-1.941,4.312-2.929,2.734-1.783,8.649-1.3,9.844-3.648.7-1.367-.913-2.789-2.672-3.73-6.732-3.6-16.363-4.192-25.173-3.637s-17.473,2.086-26.33,2.092c-11.034,0-21.7-2.349-32.622-3.311-7.569-.667-15.83-.585-22.926,1.367C104.678,217.527,102.983,222.3,96.032,224.721Z" transform="translate(-14.069 -12.592)" fill="#6c63ff" opacity="0.1"/>
      <rect id="Rectangle_134" data-name="Rectangle 134" width="1.914" height="27.071" transform="translate(99.947 50.56)" fill="#535461"/>
      <rect id="Rectangle_135" data-name="Rectangle 135" width="1.914" height="15.313" transform="translate(99.947 86.929)" fill="#535461"/>
      <rect id="Rectangle_136" data-name="Rectangle 136" width="86.136" height="187.037" rx="12.879" transform="translate(101.315 24.036)" fill="#535461"/>
      <rect id="Rectangle_137" data-name="Rectangle 137" width="86.136" height="170.357" rx="12.879" transform="translate(101.315 32.786)" fill="#6c63ff"/>
      <rect id="Rectangle_138" data-name="Rectangle 138" width="14.219" height="1.914" rx="0.957" transform="translate(137.41 28.138)" fill="#eaeaf3"/>
      <circle id="Ellipse_100" data-name="Ellipse 100" cx="1.367" cy="1.367" r="1.367" transform="translate(155.184 27.864)" fill="#eaeaf3"/>
      <path id="Path_686" data-name="Path 686" d="M136.111,120.9v19.962a4.722,4.722,0,0,1-4.739,4.774c-2.636,0-5.2-2.136-5.2-4.774V120.9c0-2.6,2.551-4.739,5.2-4.739A4.758,4.758,0,0,1,136.111,120.9Zm1.862,27.055a5.089,5.089,0,0,0,5.1,5.1H146.5l.052,10.53c0,6.358,9.513,6.308,9.513,0V153.062h6.41v10.53c0,6.325,9.571,6.341,9.571,0v-10.53h3.481a5.083,5.083,0,0,0,5.067-5.1V117.035H137.973Zm42.737-32.587H137.779a19.356,19.356,0,0,1,10.96-17.129l-3.281-6.084c-.481-.845.741-1.367,1.154-.654l3.344,6.136a23.281,23.281,0,0,1,18.663,0l3.325-6.117a.663.663,0,1,1,1.154.654l-3.281,6.065A19.421,19.421,0,0,1,180.71,115.373ZM151.293,105.8a1.8,1.8,0,1,0,0,.005Zm19.543,0a1.8,1.8,0,1,0,0,.005Zm16.336,10.358a4.725,4.725,0,0,0-4.739,4.739v19.962a4.755,4.755,0,0,0,4.739,4.774c2.655,0,5.2-2.136,5.2-4.774V120.9c-.008-2.647-2.559-4.733-5.2-4.733Z" transform="translate(-14.069 -12.592)" fill="#fff"/>
      <rect id="Rectangle_139" data-name="Rectangle 139" width="17.774" height="0.82" transform="translate(124.147 155.717)" fill="#535461"/>
      <rect id="Rectangle_140" data-name="Rectangle 140" width="11.758" height="0.82" transform="translate(148.484 155.717)" fill="#535461"/>
      <rect id="Rectangle_141" data-name="Rectangle 141" width="11.758" height="0.82" transform="translate(108.561 155.717)" fill="#535461"/>
      <rect id="Rectangle_142" data-name="Rectangle 142" width="11.758" height="0.82" transform="translate(167.079 155.717)" fill="#535461"/>
    </g>
  </g>
</svg>
