<svg xmlns="http://www.w3.org/2000/svg" xmlns:xlink="http://www.w3.org/1999/xlink" width="420" height="330" viewBox="0 0 420 330">
  <defs>
    <style>
      .cls-1, .cls-4 {
        fill: #fff;
      }

      .cls-1 {
        stroke: #707070;
      }

      .cls-2 {
        clip-path: url(#clip-path);
      }

      .cls-3 {
        fill: #6c63ff;
      }

      .cls-5 {
        fill: #e6e6e6;
      }

      .cls-6 {
        fill: #f2f2f2;
      }

      .cls-7 {
        fill: #3f3d56;
      }

      .cls-8 {
        fill: #2f2e41;
      }

      .cls-9 {
        fill: #a0616a;
      }

      .cls-10 {
        fill: #ccc;
      }

      .cls-11 {
        fill: #ff6584;
      }
    </style>
    <clipPath id="clip-path">
      <rect id="Rectangle_202" data-name="Rectangle 202" class="cls-1" width="420" height="330" transform="translate(90 7397)"/>
    </clipPath>
  </defs>
  <g id="flat7" class="cls-2" transform="translate(-90 -7397)">
    <g id="_7-siteProntinho2" data-name="7-siteProntinho2" transform="translate(92.007 7397)">
      <path id="Path_1019" data-name="Path 1019" class="cls-3" d="M519.762,257.651c8.553-13.38,5.292-30.743-3.8-36.556s-26.221-1.482-34.774,11.9c-7.917,12.385-5.3,28.435,1.922,35.1a1.1,1.1,0,0,0-.393.143l-2.116,1.326a1.117,1.117,0,0,0,.012,1.9l4.543,2.768a1.117,1.117,0,0,0,1.694-.86l.208-2.488a1.107,1.107,0,0,0-.015-.26C496.125,274.429,511.828,270.063,519.762,257.651Z" transform="translate(-127.003 -86.247)"/>
      <path id="Path_1020" data-name="Path 1020" class="cls-4" d="M515.415,231.255a18.376,18.376,0,0,1-10.953,22.622c-1,.384-.563,2,.445,1.615A20.1,20.1,0,0,0,517.03,230.81c-.312-1.029-1.929-.59-1.615.445Z" transform="translate(-127.003 -86.247)"/>
      <path id="Path_1021" data-name="Path 1021" class="cls-5" d="M210.056,208.987c8.83-11.816,24.991-14.668,33.021-8.667s9.875,22.307,1.045,34.124c-8.173,10.938-22.981,13.921-31.137,9.823a1.024,1.024,0,0,1,0,.388l-.46,2.273a1.037,1.037,0,0,1-1.655.612l-3.894-3.042a1.037,1.037,0,0,1,.193-1.754l2.095-1a1.027,1.027,0,0,1,.23-.072C203.214,235.029,201.866,219.948,210.056,208.987Z" transform="translate(-127.003 -86.247)"/>
      <path id="Path_1022" data-name="Path 1022" class="cls-4" d="M229.371,204.526a17.065,17.065,0,0,0-14.292,18.657c.095,1-1.462.99-1.556,0a18.659,18.659,0,0,1,15.435-20.158c.979-.166,1.4,1.333.414,1.5Z" transform="translate(-127.003 -86.247)"/>
      <path id="Path_1023" data-name="Path 1023" class="cls-6" d="M432.292,375.823c6.94-10.857,4.294-24.945-3.085-29.662s-21.276-1.2-28.216,9.654c-6.424,10.049-4.3,23.072,1.56,28.477a.894.894,0,0,0-.319.116l-1.717,1.076a.906.906,0,0,0,.01,1.541l3.686,2.246a.906.906,0,0,0,1.374-.7l.169-2.019a.9.9,0,0,0-.012-.211C413.112,389.437,425.854,385.895,432.292,375.823Z" transform="translate(-127.003 -86.247)"/>
      <path id="Path_1024" data-name="Path 1024" class="cls-7" d="M537.177,130.62H132.815A5.819,5.819,0,0,0,127,136.432v274a5.819,5.819,0,0,0,5.812,5.812H537.177a5.819,5.819,0,0,0,5.812-5.812v-274A5.819,5.819,0,0,0,537.177,130.62Zm4.151,279.815a4.153,4.153,0,0,1-4.152,4.152H132.815a4.153,4.153,0,0,1-4.152-4.152v-274a4.153,4.153,0,0,1,4.152-4.152H537.177a4.153,4.153,0,0,1,4.152,4.152Z" transform="translate(-127.003 -86.247)"/>
      <rect id="Rectangle_218" data-name="Rectangle 218" class="cls-7" width="414.326" height="1.661" transform="translate(0.83 67.655)"/>
      <circle id="Ellipse_160" data-name="Ellipse 160" class="cls-7" cx="4.982" cy="4.982" r="4.982" transform="translate(9.964 51.846)"/>
      <circle id="Ellipse_161" data-name="Ellipse 161" class="cls-7" cx="4.982" cy="4.982" r="4.982" transform="translate(24.287 51.846)"/>
      <circle id="Ellipse_162" data-name="Ellipse 162" class="cls-7" cx="4.982" cy="4.982" r="4.982" transform="translate(38.61 51.846)"/>
      <circle id="Ellipse_163" data-name="Ellipse 163" class="cls-8" cx="16.947" cy="16.947" r="16.947" transform="translate(189.436 119.446)"/>
      <path id="Path_1025" data-name="Path 1025" class="cls-9" d="M235.118,300.1l-6.157,2.991-14.47-22.322,9.086-4.416Z"/>
      <path id="Path_1026" data-name="Path 1026" class="cls-8" d="M352.281,388.229h13.2v8.312H343.97a8.312,8.312,0,0,1,8.312-8.312Z" transform="translate(-262.83 108.263) rotate(-25.918)"/>
      <path id="Path_1027" data-name="Path 1027" class="cls-8" d="M349.837,385.763a2.573,2.573,0,0,1-.591-.069,2.613,2.613,0,0,1-1.727-1.373L331,351.577a2.712,2.712,0,0,1,.66-3.271l9.2-7.739a2.542,2.542,0,0,1,2.282-.53,2.6,2.6,0,0,1,1.792,1.582l14.121,35.458a2.687,2.687,0,0,1-.886,3.156l-6.8,5.024a2.573,2.573,0,0,1-1.529.506Z" transform="translate(-127.003 -86.247)"/>
      <path id="Path_1028" data-name="Path 1028" class="cls-9" d="M216.968,315.849l-6.307,2.658-13.255-23.064,9.31-3.923Z"/>
      <path id="Path_1029" data-name="Path 1029" class="cls-8" d="M333.82,403.574h13.2v8.312H325.508A8.312,8.312,0,0,1,333.82,403.574Z" transform="translate(-258.952 76.343) rotate(-22.852)"/>
      <path id="Path_1030" data-name="Path 1030" class="cls-8" d="M333.921,402.022a2.5,2.5,0,0,1-2.182-1.274c-2.3-4.068-8.514-15.373-16.636-32.473-9.639-20.294,11.712-42.786,16.089-47.089a1.949,1.949,0,0,0,.577-1.5l-.948-17.069A2.507,2.507,0,0,1,332.927,300l25.21-4.09a2.535,2.535,0,0,1,2.353.891c4.259,5.17,6.089,10.731,5.439,16.531-1.328,11.84-12.482,20.779-13.749,21.76a1.761,1.761,0,0,0-.148.128l-22.821,21.759a1.943,1.943,0,0,0-.461,2.152l14.118,34.653a2.505,2.505,0,0,1-.856,2.985l-6.616,4.778a2.518,2.518,0,0,1-1.474.477Z" transform="translate(-127.003 -86.247)"/>
      <path id="Path_1031" data-name="Path 1031" class="cls-9" d="M311.833,284.648a2.514,2.514,0,0,1-1.557-.537l-20.342-15.987a5.719,5.719,0,0,1-.579.17,6.141,6.141,0,1,1,4.573-7.384h0a5.938,5.938,0,0,1,.128.81l17.39,12.635,6.648-6.815,6.539,8.56-11.342,8.083a2.508,2.508,0,0,1-1.458.463Z" transform="translate(-127.003 -86.247)"/>
      <circle id="Ellipse_164" data-name="Ellipse 164" class="cls-9" cx="13.713" cy="13.713" r="13.713" transform="translate(190.615 130.219)"/>
      <path id="Path_1032" data-name="Path 1032" class="cls-3" d="M337.805,311.045a9.015,9.015,0,0,1-3.266-.585,7.285,7.285,0,0,1-3.685-3.172c-4.235-7.39-13.365-30.29-4.862-47.295,5.725-11.45,12.058-14.172,16.362-14.44,3.974-.245,4.744.634,6.072,4.21h0c.736,1.983,2.169,4.818,3.827,8.1,5.953,11.784,14.95,29.591,7.422,38.448C351.547,305.874,343.8,311.045,337.805,311.045Z" transform="translate(-127.003 -86.247)"/>
      <path id="Path_1033" data-name="Path 1033" class="cls-3" d="M326.7,278.757a1.83,1.83,0,0,1-1.111-.376L314.9,270.224a1.834,1.834,0,0,1-.16-2.779l10.273-9.9a4.46,4.46,0,0,1,7.416,4.312l-3.95,15.513a1.835,1.835,0,0,1-1.779,1.382Z" transform="translate(-127.003 -86.247)"/>
      <path id="Path_1034" data-name="Path 1034" class="cls-9" d="M336.5,301.222a6.143,6.143,0,0,1-1.02-12.2h0a6,6,0,0,1,.817-.077l18.142-22.407-6.058-6.527,8.945-6,7.372,11.817a2.525,2.525,0,0,1-.258,3l-22.006,24.622a5.739,5.739,0,0,1,.135.588,6.143,6.143,0,0,1-5.713,7.169C336.736,301.218,336.616,301.222,336.5,301.222Z" transform="translate(-127.003 -86.247)"/>
      <path id="Path_1035" data-name="Path 1035" class="cls-3" d="M348.587,265.589a1.838,1.838,0,0,1-1.562-.872l-7.485-12.142a4.476,4.476,0,0,1,.292-5.1h0a4.478,4.478,0,0,1,5.5-1.231l14.318,7.159a1.834,1.834,0,0,1,.368,3.037l-10.243,8.71a1.833,1.833,0,0,1-1.187.438Z" transform="translate(-127.003 -86.247)"/>
      <path id="Path_1036" data-name="Path 1036" class="cls-7" d="M320.161,244.494l9.624-5.928-.7-1.143L320.02,243a2.684,2.684,0,1,0,.141,1.49Z" transform="translate(-127.003 -86.247)"/>
      <path id="Path_1037" data-name="Path 1037" class="cls-8" d="M340.842,209s-6.428,6.313-20.381,8.307-2.99,23.92-2.99,23.92-3.987-7.973,3.987-14.95S340.842,217.968,340.842,209Z" transform="translate(-127.003 -86.247)"/>
      <path id="Path_1038" data-name="Path 1038" class="cls-8" d="M334.01,204.531s3.987,13.953,9.967,15.947,2.99,22.923-6.977,24.917c0,0,8.472-11.462,3.488-20.432S332.515,209.016,334.01,204.531Z" transform="translate(-127.003 -86.247)"/>
      <path id="Path_1039" data-name="Path 1039" class="cls-3" d="M343.3,214.842a1.608,1.608,0,0,1-.182-.05L327.5,209.457a1.536,1.536,0,0,1-.543-2.585l12.521-11.5a1.536,1.536,0,0,1,2.55.853l3.1,16.839a1.536,1.536,0,0,1-1.825,1.782Z" transform="translate(-127.003 -86.247)"/>
      <path id="Path_1040" data-name="Path 1040" class="cls-5" d="M209.044,112.687l6.417,1.366-.347-1.887-4.467-.951Z"/>
      <path id="Path_1041" data-name="Path 1041" class="cls-5" d="M207.71,113.914l8.042,1.711.348,1.887-9.993-2.127Z"/>
      <path id="Path_1042" data-name="Path 1042" class="cls-10" d="M333.512,186.611l2.048,6.334a.856.856,0,0,0,1.03.585.846.846,0,0,0,.585-1.03l-2.048-6.334a.856.856,0,0,0-1.03-.585A.846.846,0,0,0,333.512,186.611Z" transform="translate(-127.003 -86.247)"/>
      <path id="Path_1043" data-name="Path 1043" class="cls-10" d="M343.457,184.463l-1.951,6.632a.838.838,0,0,0,1.615.445l1.951-6.632a.838.838,0,0,0-1.615-.445Z" transform="translate(-127.003 -86.247)"/>
      <path id="Path_1044" data-name="Path 1044" class="cls-10" d="M350.675,190.535l-4.824,4.951c-.754.774.468,1.92,1.22,1.149l4.824-4.951C352.648,190.91,351.427,189.763,350.675,190.535Z" transform="translate(-127.003 -86.247)"/>
      <path id="Path_1045" data-name="Path 1045" class="cls-4" d="M428.764,354.405a14.911,14.911,0,0,1-8.888,18.356c-.808.311-.457,1.626.361,1.311a16.313,16.313,0,0,0,9.837-20.028c-.253-.835-1.565-.479-1.311.361Z" transform="translate(-127.003 -86.247)"/>
      <path id="Path_1046" data-name="Path 1046" class="cls-5" d="M476.213,125.328c8.553-13.38,5.292-30.743-3.8-36.556s-26.221-1.482-34.774,11.9c-7.917,12.385-5.3,28.435,1.922,35.1a1.1,1.1,0,0,0-.393.143l-2.116,1.326a1.117,1.117,0,0,0,.012,1.9l4.543,2.768a1.117,1.117,0,0,0,1.694-.86l.209-2.488a1.1,1.1,0,0,0-.015-.26C452.575,142.105,468.279,137.74,476.213,125.328Z" transform="translate(-127.003 -86.247)"/>
      <path id="Path_1047" data-name="Path 1047" class="cls-4" d="M471.865,98.932a18.376,18.376,0,0,1-10.953,22.622c-1,.384-.563,2,.445,1.615A20.1,20.1,0,0,0,473.48,98.486c-.312-1.029-1.929-.59-1.615.445Z" transform="translate(-127.003 -86.247)"/>
      <path id="Path_1048" data-name="Path 1048" class="cls-3" d="M240.744,118.92c-9.506-12.721-26.9-15.791-35.549-9.331s-10.631,24.015-1.126,36.736c8.8,11.775,24.74,14.986,33.52,10.575a1.1,1.1,0,0,0-.005.418l.5,2.447a1.117,1.117,0,0,0,1.782.659l4.192-3.275a1.117,1.117,0,0,0-.208-1.888l-2.255-1.072a1.107,1.107,0,0,0-.248-.078C248.111,146.955,249.562,130.72,240.744,118.92Z" transform="translate(-127.003 -86.247)"/>
      <path id="Path_1049" data-name="Path 1049" class="cls-4" d="M219.951,114.117A18.371,18.371,0,0,1,235.338,134.2c-.1,1.072,1.573,1.065,1.675,0A20.088,20.088,0,0,0,220.4,112.5c-1.054-.179-1.507,1.435-.445,1.615Z" transform="translate(-127.003 -86.247)"/>
      <path id="Path_1050" data-name="Path 1050" class="cls-3" d="M202.582,293.957a26.353,26.353,0,0,1,20.613,12.209c.624,1,1.439,2.094,1.007,3.322A2.184,2.184,0,0,1,221.939,311a2.862,2.862,0,0,1-.3-5.516c2.883-1.23,5.791.671,8.139,2.187,5.35,3.456,11.235,6.581,17.717,6.974,6,.364,12.43-1.987,15.766-7.189.584-.91-.866-1.751-1.446-.845-3.309,5.159-10,7.011-15.813,6.214a30.743,30.743,0,0,1-9.895-3.359c-1.6-.83-3.149-1.749-4.668-2.716a29.79,29.79,0,0,0-4.578-2.625c-2.67-1.1-6.2-1.011-8.069,1.514a4.6,4.6,0,0,0,2.515,6.939,3.932,3.932,0,0,0,4.606-4.678,11.47,11.47,0,0,0-2.143-3.878,28.03,28.03,0,0,0-21.191-11.741c-1.077-.053-1.075,1.622,0,1.675Z" transform="translate(-127.003 -86.247)"/>
      <path id="Path_1051" data-name="Path 1051" class="cls-11" d="M453.493,292.525a26.307,26.307,0,0,1-24.921-.084,2.67,2.67,0,0,1-1.692-2.08,2.175,2.175,0,0,1,1.145-2.176,2.867,2.867,0,0,1,3.385,1.1,2.918,2.918,0,0,1-.263,3.493c-1.935,2.626-5.592,2.377-8.485,2.318-6.233-.126-12.785.372-18.368,3.4-5.246,2.845-9.459,8.181-9.575,14.321a.838.838,0,0,0,1.675,0c.115-6.059,4.694-11.052,9.967-13.484a29.974,29.974,0,0,1,10.333-2.431c1.738-.129,3.483-.164,5.226-.142a35.12,35.12,0,0,0,5.214-.111c2.989-.409,6.2-2.335,6.424-5.66a4.579,4.579,0,0,0-6.035-4.4,3.926,3.926,0,0,0-1.694,5.709,7.5,7.5,0,0,0,3.293,2.3,27.98,27.98,0,0,0,25.219-.628c.945-.519.1-1.966-.845-1.446Z" transform="translate(-127.003 -86.247)"/>
      <path id="Path_1052" data-name="Path 1052" class="cls-5" d="M377.826,183.916c7.535,2.592,12.812,10.23,13.259,18.094.227,3.992-.719,8.606-3.7,11.478a5.766,5.766,0,0,1-5.22,1.716c-1.644-.357-3.359-1.478-3.641-3.259a3.948,3.948,0,0,1,2.329-3.926,6.84,6.84,0,0,1,5.333-.506,19.663,19.663,0,0,1,6.171,3.769,45.569,45.569,0,0,0,5.826,4.108A35.715,35.715,0,0,0,446.5,203.046q.884-1.432,1.621-2.945c.473-.964-.971-1.814-1.446-.845a34.078,34.078,0,0,1-49.75,13.383c-3.9-2.613-7.637-7.1-12.708-7.133-3.734-.024-8.225,2.8-7.268,7.047a5.9,5.9,0,0,0,3.859,3.994,7.023,7.023,0,0,0,5.921-.486c3.954-2.22,5.681-7.15,6.009-11.433a22.565,22.565,0,0,0-11.588-21.091,20.324,20.324,0,0,0-2.876-1.237c-1.021-.351-1.46,1.266-.445,1.615Z" transform="translate(-127.003 -86.247)"/>
    </g>
  </g>
</svg>
