<svg xmlns="http://www.w3.org/2000/svg" xmlns:xlink="http://www.w3.org/1999/xlink" width="420" height="330" viewBox="0 0 420 330">
  <defs>
    <style>
      .cls-1, .cls-6 {
        fill: #fff;
      }

      .cls-1 {
        stroke: #707070;
      }

      .cls-2 {
        clip-path: url(#clip-path);
      }

      .cls-3 {
        fill: #2f2e41;
      }

      .cls-4 {
        fill: #ffb8b8;
      }

      .cls-5 {
        fill: #f2f2f2;
      }

      .cls-7 {
        fill: #6c63ff;
      }

      .cls-8 {
        fill: #ccc;
      }

      .cls-9 {
        opacity: 0.1;
      }

      .cls-10 {
        fill: #3f3d56;
      }

      .cls-11 {
        fill: #ff6584;
      }

      .cls-12 {
        fill: #a0616a;
      }
    </style>
    <clipPath id="clip-path">
      <rect id="Rectangle_201" data-name="Rectangle 201" class="cls-1" width="420" height="330" transform="translate(90 6375)"/>
    </clipPath>
  </defs>
  <g id="flat5" class="cls-2" transform="translate(-90 -6375)">
    <g id="_5-startDesign" data-name="5-startDesign" transform="translate(90 6381.478)">
      <path id="Path_944" data-name="Path 944" class="cls-3" d="M328.721,66.457c3.6,7.667-4.031,9.838-12.776,13.947s-15.289,8.6-18.891.933-6.526-22.883,5.845-28.7C315.7,46.628,325.119,58.791,328.721,66.457Z" transform="translate(-86.688 -51.027)"/>
      <circle id="Ellipse_118" data-name="Ellipse 118" class="cls-4" cx="11.772" cy="11.772" r="11.772" transform="translate(212.419 6.963)"/>
      <path id="Path_945" data-name="Path 945" class="cls-3" d="M369.2,121.969c-.407-.532-.815-1.054-1.227-1.563q-.8-.992-1.606-1.922c-6.1-7.041-12.591-11.474-19.737-11.949h-.01l-.106-.01-14.24,13.881-4.841,4.716.106.259,2.612,6.5h45.769a112.546,112.546,0,0,0-6.72-9.917Z" transform="translate(-86.688 -51.027)"/>
      <path id="Path_946" data-name="Path 946" class="cls-3" d="M298.078,74.5h0l4.214-1.98-.587-6.079,2.818,5.031,2.014-.946-.342-3.546,1.644,2.935L322.8,62.883h0A12.462,12.462,0,0,0,306.226,56.9l-2.169,1.019A12.462,12.462,0,0,0,298.078,74.5Z" transform="translate(-86.688 -51.027)"/>
      <path id="Path_947" data-name="Path 947" class="cls-5" d="M395.61,288.185h-245.8a7.917,7.917,0,0,1-7.908-7.908v-147.7a5.8,5.8,0,0,1,5.794-5.794H397.625a5.9,5.9,0,0,1,5.894,5.894v147.6a7.917,7.917,0,0,1-7.909,7.908Z" transform="translate(-86.688 -51.027)"/>
      <path id="Path_948" data-name="Path 948" class="cls-6" d="M157.475,280.277H387.942a7.669,7.669,0,0,0,7.669-7.669V147.248a7.669,7.669,0,0,0-7.669-7.669H157.475a7.669,7.669,0,0,0-7.669,7.669v125.36A7.669,7.669,0,0,0,157.475,280.277Z" transform="translate(-86.688 -51.027)"/>
      <path id="Path_949" data-name="Path 949" class="cls-7" d="M403.409,132.126H141.787V128.1a7.944,7.944,0,0,1,7.937-7.932H395.471a7.944,7.944,0,0,1,7.937,7.932Z" transform="translate(-86.688 -51.027)"/>
      <circle id="Ellipse_119" data-name="Ellipse 119" class="cls-6" cx="2.053" cy="2.053" r="2.053" transform="translate(67.47 73.078)"/>
      <circle id="Ellipse_120" data-name="Ellipse 120" class="cls-6" cx="2.053" cy="2.053" r="2.053" transform="translate(75.263 73.078)"/>
      <circle id="Ellipse_121" data-name="Ellipse 121" class="cls-6" cx="2.053" cy="2.053" r="2.053" transform="translate(83.056 73.078)"/>
      <path id="Path_950" data-name="Path 950" class="cls-8" d="M279.9,253.09h-20.61a4.559,4.559,0,0,1-4.553-4.553v-20.61a4.559,4.559,0,0,1,4.553-4.553H279.9a4.559,4.559,0,0,1,4.553,4.553v20.61A4.559,4.559,0,0,1,279.9,253.09Zm-20.61-28.758a3.6,3.6,0,0,0-3.595,3.595v20.61a3.6,3.6,0,0,0,3.595,3.595H279.9a3.6,3.6,0,0,0,3.595-3.595v-20.61a3.6,3.6,0,0,0-3.595-3.595Z" transform="translate(-86.688 -51.027)"/>
      <path id="Path_951" data-name="Path 951" class="cls-8" d="M275.825,247.339H263.363a1.439,1.439,0,0,1-1.438-1.438V230.563a1.439,1.439,0,0,1,1.438-1.438h9.03a1.441,1.441,0,0,1,.9.317l3.432,2.758a1.43,1.43,0,0,1,.537,1.121V245.9A1.439,1.439,0,0,1,275.825,247.339Zm-12.462-17.255a.48.48,0,0,0-.479.479V245.9a.48.48,0,0,0,.479.479h12.462a.48.48,0,0,0,.479-.479v-12.58a.477.477,0,0,0-.179-.374l-3.432-2.758a.48.48,0,0,0-.3-.106Z" transform="translate(-86.688 -51.027)"/>
      <path id="Path_952" data-name="Path 952" class="cls-8" d="M273.429,235.835H265.76a.479.479,0,0,1,0-.959h7.669a.479.479,0,1,1,0,.959Z" transform="translate(-86.688 -51.027)"/>
      <path id="Path_953" data-name="Path 953" class="cls-8" d="M273.429,238.711H265.76a.479.479,0,0,1,0-.959h7.669a.479.479,0,1,1,0,.959Z" transform="translate(-86.688 -51.027)"/>
      <path id="Path_954" data-name="Path 954" class="cls-8" d="M273.429,241.587H265.76a.479.479,0,0,1,0-.959h7.669a.479.479,0,1,1,0,.959Z" transform="translate(-86.688 -51.027)"/>
      <path id="Path_955" data-name="Path 955" class="cls-8" d="M328.788,253.09h-20.61a4.559,4.559,0,0,1-4.553-4.553v-20.61a4.559,4.559,0,0,1,4.553-4.553h20.61a4.559,4.559,0,0,1,4.553,4.553v20.61A4.558,4.558,0,0,1,328.788,253.09Zm-20.61-28.758a3.6,3.6,0,0,0-3.595,3.595v20.61a3.6,3.6,0,0,0,3.595,3.595h20.61a3.6,3.6,0,0,0,3.595-3.595v-20.61a3.6,3.6,0,0,0-3.595-3.595Z" transform="translate(-86.688 -51.027)"/>
      <path id="Path_956" data-name="Path 956" class="cls-8" d="M325.193,243.5h-13.42a1.439,1.439,0,0,1-1.438-1.438V234.4a1.439,1.439,0,0,1,1.438-1.438h13.42a1.44,1.44,0,0,1,1.438,1.438v7.669A1.439,1.439,0,0,1,325.193,243.5Zm-13.42-9.586a.48.48,0,0,0-.479.479v7.669a.48.48,0,0,0,.479.479h13.42a.48.48,0,0,0,.479-.479V234.4a.48.48,0,0,0-.479-.479Z" transform="translate(-86.688 -51.027)"/>
      <path id="Path_957" data-name="Path 957" class="cls-8" d="M318.483,239.5a1.44,1.44,0,0,1-.762-.217L310.56,234.8a.479.479,0,1,1,.508-.813l7.161,4.475a.482.482,0,0,0,.508,0l7.161-4.475a.479.479,0,0,1,.508.813l-7.161,4.475a1.44,1.44,0,0,1-.762.217Z" transform="translate(-86.688 -51.027)"/>
      <path id="Path_958" data-name="Path 958" class="cls-8" d="M231.011,253.09H210.4a4.559,4.559,0,0,1-4.553-4.553v-20.61a4.559,4.559,0,0,1,4.553-4.553h20.61a4.559,4.559,0,0,1,4.553,4.553v20.61A4.559,4.559,0,0,1,231.011,253.09ZM210.4,224.332a3.6,3.6,0,0,0-3.595,3.595v20.61a3.6,3.6,0,0,0,3.595,3.595h20.61a3.6,3.6,0,0,0,3.595-3.595v-20.61a3.6,3.6,0,0,0-3.595-3.595Z" transform="translate(-86.688 -51.027)"/>
      <path id="Path_959" data-name="Path 959" class="cls-8" d="M227.416,243.5H214a1.439,1.439,0,0,1-1.438-1.438V234.4A1.439,1.439,0,0,1,214,232.96h13.42a1.44,1.44,0,0,1,1.438,1.438v7.669A1.439,1.439,0,0,1,227.416,243.5ZM214,233.918a.48.48,0,0,0-.479.479v7.669a.48.48,0,0,0,.479.479h13.42a.48.48,0,0,0,.479-.479V234.4a.48.48,0,0,0-.479-.479Z" transform="translate(-86.688 -51.027)"/>
      <path id="Path_960" data-name="Path 960" class="cls-8" d="M225.289,243.5h-9.645a.958.958,0,0,1-.83-1.438l2.905-5.033a.959.959,0,0,1,1.66,0l1.876,3.25,1.087-1.883a.959.959,0,0,1,1.66,0l2.116,3.665a.959.959,0,0,1-.83,1.438Zm0-.959h0l-2.116-3.665-1.5,2.6a.479.479,0,0,1-.415.24h0a.479.479,0,0,1-.415-.24l-2.291-3.969-2.906,5.033Z" transform="translate(-86.688 -51.027)"/>
      <circle id="Ellipse_122" data-name="Ellipse 122" class="cls-8" cx="0.959" cy="0.959" r="0.959" transform="translate(138.331 183.85)"/>
      <path id="Path_961" data-name="Path 961" class="cls-4" d="M368.5,310.659h-5.876l-2.8-22.665H368.5Z"/>
      <path id="Path_962" data-name="Path 962" class="cls-3" d="M456.686,367.381H437.739v-.24a7.375,7.375,0,0,1,7.375-7.375h11.573Z" transform="translate(-86.688 -51.027)"/>
      <path id="Path_963" data-name="Path 963" class="cls-4" d="M392.464,310.659h-5.876l-2.8-22.665h8.672Z"/>
      <path id="Path_964" data-name="Path 964" class="cls-3" d="M480.653,367.381H461.706v-.24a7.375,7.375,0,0,1,7.375-7.375h11.573Z" transform="translate(-86.688 -51.027)"/>
      <path id="Path_965" data-name="Path 965" class="cls-3" d="M477.391,351.86l-5.442-1.656a2.154,2.154,0,0,1-1.517-1.837l-5.074-48.087a.23.23,0,0,0-.229-.214.225.225,0,0,0-.245.2l-8.5,46.588a2.157,2.157,0,0,1-2.557,1.725l-6.955-1.432a2.165,2.165,0,0,1-1.717-2.258l5.169-76.359,35.055-3.782-5.209,85.185a2.155,2.155,0,0,1-2.781,1.932Z" transform="translate(-86.688 -51.027)"/>
      <circle id="Ellipse_123" data-name="Ellipse 123" class="cls-4" cx="11.772" cy="11.772" r="11.772" transform="translate(378.897 127.459)"/>
      <path id="Path_966" data-name="Path 966" class="cls-7" d="M450.271,268.974l7.6-47.859a18.145,18.145,0,0,1,23.009-14.57h0a18.09,18.09,0,0,1,12.75,20.736l-7.952,42.74Z" transform="translate(-86.688 -51.027)"/>
      <path id="Path_967" data-name="Path 967" class="cls-4" d="M480.6,277.537a4.82,4.82,0,0,0,.837-7.343l7.859-15.218-8.85.944-6.106,14.307a4.846,4.846,0,0,0,6.26,7.31Z" transform="translate(-86.688 -51.027)"/>
      <path id="Path_968" data-name="Path 968" class="cls-7" d="M482.292,267.51a2.159,2.159,0,0,1-1.163-.552l-3.007-2.778a2.164,2.164,0,0,1-.523-2.422l6.009-14.244-.852-28.144a6.948,6.948,0,0,1,13.769,1.878l1.458,17.692a22.227,22.227,0,0,1-4.284,15.049l-9.371,12.669a2.159,2.159,0,0,1-1.531.865A2.133,2.133,0,0,1,482.292,267.51Z" transform="translate(-86.688 -51.027)"/>
      <path id="Path_969" data-name="Path 969" class="cls-4" d="M409.565,183.844A4.82,4.82,0,0,0,416,187.478l10.95,13.17,2.581-8.518-10.794-11.2a4.846,4.846,0,0,0-9.172,2.915Z" transform="translate(-86.688 -51.027)"/>
      <path id="Path_970" data-name="Path 970" class="cls-7" d="M418.143,189.3a2.16,2.16,0,0,1,.961-.856l3.731-1.686a2.164,2.164,0,0,1,2.435.463l10.774,11.087L462.293,208.5a6.948,6.948,0,1,1-7.1,11.947l-16.86-5.556a22.227,22.227,0,0,1-12.187-9.812l-8.013-13.569a2.159,2.159,0,0,1-.2-1.747,2.134,2.134,0,0,1,.207-.459Z" transform="translate(-86.688 -51.027)"/>
      <path id="Path_971" data-name="Path 971" class="cls-9" d="M400.217,180.05l-.479,15.338-8.83,15.343,7.373-17.1Z"/>
      <path id="Path_972" data-name="Path 972" class="cls-3" d="M476.008,192.47a3.079,3.079,0,0,1-3.37-2.254,4.68,4.68,0,0,0-3.332-3.486c-2.159-.493-4.8.523-6.381-1.113a3.181,3.181,0,0,1-.755-2.8,6.43,6.43,0,0,1,2.666-3.752,16.326,16.326,0,0,1,9.043-3.379,32.438,32.438,0,0,1,5.09.253,22.53,22.53,0,0,1,5.207.952,12.259,12.259,0,0,1,7.67,8.953,14.153,14.153,0,0,1-2.9,11.566,15.194,15.194,0,0,1-5.829,4.438,2.274,2.274,0,0,1-1.728.088c-1.417-.564-1.186-2.319-.54-3.491.692-1.253,1.756-2.467,1.2-3.992a3.021,3.021,0,0,0-1.5-1.613,7.727,7.727,0,0,0-4.5-.374Z" transform="translate(-86.688 -51.027)"/>
      <path id="Path_973" data-name="Path 973" class="cls-6" d="M405.631,199.117H259.924a7.917,7.917,0,0,1-7.908-7.908V160.054a7.917,7.917,0,0,1,7.908-7.908H405.631a7.918,7.918,0,0,1,7.909,7.908v31.155A7.917,7.917,0,0,1,405.631,199.117Z" transform="translate(-86.688 -51.027)"/>
      <path id="Path_974" data-name="Path 974" class="cls-10" d="M405.631,199.357H259.924a8.157,8.157,0,0,1-8.148-8.148V160.054a8.157,8.157,0,0,1,8.148-8.148H405.631a8.157,8.157,0,0,1,8.148,8.148v31.155A8.157,8.157,0,0,1,405.631,199.357ZM259.924,152.865a7.2,7.2,0,0,0-7.19,7.19v31.155a7.2,7.2,0,0,0,7.19,7.19H405.631a7.2,7.2,0,0,0,7.19-7.19V160.054a7.2,7.2,0,0,0-7.19-7.19Z" transform="translate(-86.688 -51.027)"/>
      <path id="Path_975" data-name="Path 975" class="cls-5" d="M387.9,191.449H277.658a7.917,7.917,0,0,1-7.908-7.908v-16.3a7.917,7.917,0,0,1,7.908-7.908H387.9a7.917,7.917,0,0,1,7.908,7.908v16.3a7.917,7.917,0,0,1-7.908,7.908Z" transform="translate(-86.688 -51.027)"/>
      <circle id="Ellipse_124" data-name="Ellipse 124" class="cls-11" cx="9.458" cy="9.458" r="9.458" transform="translate(205.235 112.723)"/>
      <path id="Path_976" data-name="Path 976" class="cls-10" d="M381.046,190.494,367.7,179.3l-13.119-11a1.917,1.917,0,0,0-2.47,0l-13.077,11.053-3.194,2.7-4.816-4.039-14.636-12.275a1.917,1.917,0,0,0-2.47,0l-14.589,12.332L284.507,190.6a.479.479,0,0,0,.31.845l30.381-.059,9.617-.019-.094.08,28.666-.055,27.352-.053a.479.479,0,0,0,.307-.846Z" transform="translate(-86.688 -51.027)"/>
      <path id="Path_977" data-name="Path 977" class="cls-8" d="M506.209,368.071H414.183a.479.479,0,0,1,0-.959h92.026a.479.479,0,0,1,0,.959Z" transform="translate(-86.688 -51.027)"/>
      <path id="Path_978" data-name="Path 978" class="cls-4" d="M376.213,114.252a5.378,5.378,0,0,0-3.475-2.444,4.937,4.937,0,0,0-.8-.1l-36.518-32.65a4.321,4.321,0,0,0-2.7-1.289,3.675,3.675,0,0,0-.609-.019,4.34,4.34,0,0,0-2.857,7.42l13.981,12.189L366.2,117.368a5.711,5.711,0,0,0,.168,1.117A5.4,5.4,0,0,0,371,122.5a5.316,5.316,0,0,0,2.9-.479,5.467,5.467,0,0,0,1.86-1.424c.053-.062.1-.12.149-.187a5.413,5.413,0,0,0,.3-6.154Z" transform="translate(-86.688 -51.027)"/>
      <path id="Path_979" data-name="Path 979" class="cls-4" d="M313.75,145.719l-.34-13.833-.288-11.479-.2-8.033-.388-15.659a4.336,4.336,0,0,0-7.53-2.516,3.32,3.32,0,0,0-.36.46,4.283,4.283,0,0,0-.748,2.9l.853,22.848.427,11.479.546,14.643a5.777,5.777,0,0,0-.426.676,5.42,5.42,0,1,0,8.45-1.486Z" transform="translate(-86.688 -51.027)"/>
      <path id="Path_980" data-name="Path 980" class="cls-8" d="M346.631,106.536l-3.389-9.179-5.483-14.868a7.671,7.671,0,0,0-4.769-4.64c-.086-.029-.177-.058-.264-.082a7.661,7.661,0,0,0-6.346.872L307.913,90.354a7.713,7.713,0,0,0-2.526,10.425,132.431,132.431,0,0,0,7.539,11.594c2.152,2.928,6.159,3.24,6.854,8.033H333.4l13.785-12.376Z" transform="translate(-86.688 -51.027)"/>
      <circle id="Ellipse_125" data-name="Ellipse 125" class="cls-12" cx="11.106" cy="11.106" r="11.106" transform="translate(37.382 145.473)"/>
      <path id="Path_981" data-name="Path 981" class="cls-12" d="M162.442,199.961q.164.131.318.277a4.975,4.975,0,0,1-.2,7.421,4.663,4.663,0,0,1-.39.294l.752,25.377a3.864,3.864,0,0,1-2.658,3.771l-.046.01-20.6,2.194a4.265,4.265,0,1,1-.825-8.49l14.688-1.293,2.54-21.976a4.737,4.737,0,0,1-.466-.475,4.975,4.975,0,0,1,6.891-7.109Z" transform="translate(-86.688 -51.027)"/>
      <path id="Path_982" data-name="Path 982" class="cls-12" d="M66.78,311.15h5.544l2.637-21.383H66.779Z"/>
      <path id="Path_983" data-name="Path 983" class="cls-3" d="M152.054,360.366h10.918a6.957,6.957,0,0,1,6.958,6.958v.226H152.055Z" transform="translate(-86.688 -51.027)"/>
      <path id="Path_984" data-name="Path 984" class="cls-12" d="M11.679,303.485l4.763,2.836L29.648,289.3l-7.03-4.186Z"/>
      <path id="Path_985" data-name="Path 985" class="cls-3" d="M98.078,352.233l9.381,5.585h0a6.957,6.957,0,0,1,2.418,9.538l-.116.194L94.4,358.406Z" transform="translate(-86.688 -51.027)"/>
      <path id="Path_986" data-name="Path 986" class="cls-3" d="M160.32,354.624h-6.208a2.031,2.031,0,0,1-2.023-1.82l-6.258-58.828a.678.678,0,0,0-1.293-.208l-11.29,25L113.26,351.362a2.044,2.044,0,0,1-2.554.8l-7.985-3.513a2.035,2.035,0,0,1-.927-2.907l18.375-30.767L125.8,289.05c-1.772-11.242,5.826-27.956,5.9-28.124l.038-.082,20.93-8.181.1.129c8.254,27.087,13.284,56.237,9.57,99.967a2.049,2.049,0,0,1-2.029,1.864Z" transform="translate(-86.688 -51.027)"/>
      <path id="Path_987" data-name="Path 987" class="cls-10" d="M130.9,263.584l-.1-.2c-.047-.1-4.7-9.914-8.288-20.4a15.474,15.474,0,0,1,1.073-12.4,15.643,15.643,0,0,1,9.975-7.671h0a15.662,15.662,0,0,1,18.179,9.38c2.846,7.116,1.939,14.712,1.085,20.685l-.017.12-.109.052Z" transform="translate(-86.688 -51.027)"/>
      <path id="Path_988" data-name="Path 988" class="cls-3" d="M148.643,201.332H131.007v-7.687c3.871-1.538,7.659-2.846,9.948,0a7.687,7.687,0,0,1,7.687,7.687Z" transform="translate(-86.688 -51.027)"/>
      <path id="Path_989" data-name="Path 989" class="cls-3" d="M130.031,192.288c-10.543,0-13.494,13.215-13.494,20.67,0,4.158,1.88,5.645,4.835,6.148l1.043-5.565,2.444,5.8c.83,0,1.7-.012,2.606-.029l.829-1.706,1.848,1.676c7.4.011,13.382,1.09,13.382-6.328C143.524,205.5,140.937,192.288,130.031,192.288Z" transform="translate(-86.688 -51.027)"/>
      <path id="Path_990" data-name="Path 990" class="cls-8" d="M179.193,368.071H87.168a.479.479,0,0,1,0-.959h92.026a.479.479,0,1,1,0,.959Z" transform="translate(-86.688 -51.027)"/>
      <path id="Path_991" data-name="Path 991" class="cls-6" d="M180.924,210.381h-20.61a4.559,4.559,0,0,1-4.553-4.553v-20.61a4.559,4.559,0,0,1,4.553-4.553h20.61a4.559,4.559,0,0,1,4.553,4.553v20.61A4.559,4.559,0,0,1,180.924,210.381Z" transform="translate(-86.688 -51.027)"/>
      <path id="Path_992" data-name="Path 992" class="cls-10" d="M180.924,210.381h-20.61a4.559,4.559,0,0,1-4.553-4.553v-20.61a4.559,4.559,0,0,1,4.553-4.553h20.61a4.559,4.559,0,0,1,4.553,4.553v20.61A4.559,4.559,0,0,1,180.924,210.381Zm-20.61-28.758a3.6,3.6,0,0,0-3.595,3.595v20.61a3.6,3.6,0,0,0,3.595,3.595h20.61a3.6,3.6,0,0,0,3.595-3.595v-20.61a3.6,3.6,0,0,0-3.595-3.595Z" transform="translate(-86.688 -51.027)"/>
      <path id="Path_993" data-name="Path 993" class="cls-7" d="M177.329,201.993h-13.42a1.439,1.439,0,0,1-1.438-1.438V190.49a1.439,1.439,0,0,1,1.438-1.438h3.778a1.429,1.429,0,0,1,1.225.684l1.054,1.712h7.364a1.439,1.439,0,0,1,1.438,1.438v7.669a1.439,1.439,0,0,1-1.438,1.438Z" transform="translate(-86.688 -51.027)"/>
      <path id="Path_994" data-name="Path 994" class="cls-12" d="M176.893,207.078q.1.184.186.379a4.975,4.975,0,0,1-3.064,6.762,4.661,4.661,0,0,1-.474.12l-9.154,23.68a3.864,3.864,0,0,1-3.913,2.444l-.046-.009-19.841-5.973a4.265,4.265,0,1,1,2.534-8.145l14.039,4.507,10.869-19.269a4.731,4.731,0,0,1-.245-.618,4.975,4.975,0,0,1,9.11-3.878Z" transform="translate(-86.688 -51.027)"/>
    </g>
  </g>
</svg>
