<svg xmlns="http://www.w3.org/2000/svg" xmlns:xlink="http://www.w3.org/1999/xlink" width="420" height="330" viewBox="0 0 420 330">
  <defs>
    <style>
      .cls-1, .cls-8 {
        fill: #fff;
      }

      .cls-1 {
        stroke: #707070;
      }

      .cls-2 {
        clip-path: url(#clip-path);
      }

      .cls-3 {
        fill: #e6e6e6;
      }

      .cls-4 {
        fill: #ccc;
      }

      .cls-5 {
        fill: #3f3d56;
      }

      .cls-6 {
        fill: #6c63ff;
      }

      .cls-7 {
        fill: #f2f2f2;
      }

      .cls-9 {
        fill: #ffb8b8;
      }

      .cls-10 {
        fill: #2f2e41;
      }
    </style>
    <clipPath id="clip-path">
      <rect id="Rectangle_207" data-name="Rectangle 207" class="cls-1" width="420" height="330" transform="translate(815 5823)"/>
    </clipPath>
  </defs>
  <g id="flat3" class="cls-2" transform="translate(-815 -5823)">
    <g id="_3-assinamosContrato" data-name="3-assinamosContrato" transform="translate(845.871 5823)">
      <path id="Path_882" data-name="Path 882" class="cls-3" d="M324.212,270.692c-.064,0-.1,0-.118,0h-7.66V269.56h7.688c.178.006,3.81.109,7.156-3.951,4.986-6.051,9.081-21.03.272-58.03-11.845-49.75-1.966-93.7,2.832-110.289a5.508,5.508,0,0,0-5.3-7.032h-114.4a5.532,5.532,0,0,0-4.461,2.271c-2.032,2.8-4.821,8.166-6.566,17.877l-1.112-.2c1.783-9.922,4.663-15.45,6.764-18.341a6.664,6.664,0,0,1,5.375-2.736h114.4a6.637,6.637,0,0,1,6.384,8.475c-4.773,16.5-14.6,60.225-2.818,109.714,8.933,37.519,4.639,52.823-.537,59.055C328.7,270.483,324.936,270.692,324.212,270.692Z" transform="translate(-159.71 -89.129)"/>
      <path id="Path_883" data-name="Path 883" class="cls-4" d="M303.6,291.3c-.064,0-.1,0-.118,0h-7.66v-1.129h7.688c.179.006,3.81.109,7.156-3.951,4.986-6.051,9.081-21.03.272-58.03-11.845-49.75-1.966-93.7,2.832-110.289a5.508,5.508,0,0,0-5.3-7.032h-114.4a5.532,5.532,0,0,0-4.461,2.271c-2.032,2.8-4.821,8.166-6.566,17.877l-1.112-.2c1.783-9.922,4.663-15.45,6.764-18.341a6.664,6.664,0,0,1,5.375-2.736h114.4a6.637,6.637,0,0,1,6.384,8.475c-4.773,16.5-14.6,60.225-2.818,109.714,8.933,37.519,4.639,52.823-.537,59.055C308.085,291.1,304.324,291.3,303.6,291.3Z" transform="translate(-159.71 -89.129)"/>
      <path id="Path_884" data-name="Path 884" class="cls-5" d="M282.987,311.917c-.064,0-.1,0-.118,0H170.231a6.636,6.636,0,0,1-6.172-9.093c4.087-10.211,9.59-34.708.526-84.054-10.7-58.269-1.121-79.328,3.5-85.677a6.665,6.665,0,0,1,5.375-2.736h114.4a6.637,6.637,0,0,1,6.384,8.475c-4.773,16.5-14.6,60.225-2.818,109.714,8.933,37.519,4.639,52.823-.537,59.055C287.473,311.709,283.711,311.917,282.987,311.917ZM173.456,131.484a5.532,5.532,0,0,0-4.461,2.271c-4.531,6.232-13.921,26.97-3.3,84.809,8.658,47.14,4.459,72.068-.588,84.678a5.414,5.414,0,0,0,.552,5.119,5.513,5.513,0,0,0,4.571,2.425H282.9c.178.009,3.81.109,7.156-3.951,4.986-6.051,9.081-21.03.272-58.03-11.845-49.75-1.966-93.7,2.832-110.289a5.508,5.508,0,0,0-5.3-7.032Z" transform="translate(-159.71 -89.129)"/>
      <path id="Path_885" data-name="Path 885" class="cls-6" d="M268.4,181.18H178.606a4.518,4.518,0,0,1,0-9.036H268.4a4.518,4.518,0,0,1,0,9.036Z" transform="translate(-159.71 -89.129)"/>
      <path id="Path_886" data-name="Path 886" class="cls-4" d="M268.4,200.381H178.606a4.518,4.518,0,0,1,0-9.036H268.4a4.518,4.518,0,0,1,0,9.036Z" transform="translate(-159.71 -89.129)"/>
      <path id="Path_887" data-name="Path 887" class="cls-4" d="M268.4,219.582H178.606a4.518,4.518,0,0,1,0-9.036H268.4a4.518,4.518,0,0,1,0,9.036Z" transform="translate(-159.71 -89.129)"/>
      <path id="Path_888" data-name="Path 888" class="cls-4" d="M275.175,238.783H185.383a4.518,4.518,0,0,1,0-9.036h89.792a4.518,4.518,0,0,1,0,9.036Z" transform="translate(-159.71 -89.129)"/>
      <path id="Path_889" data-name="Path 889" class="cls-4" d="M275.175,257.983H185.383a4.518,4.518,0,1,1,0-9.036h89.792a4.518,4.518,0,1,1,0,9.036Z" transform="translate(-159.71 -89.129)"/>
      <path id="Path_890" data-name="Path 890" class="cls-6" d="M220.961,161.979H178.606a4.518,4.518,0,0,1,0-9.036h42.355a4.518,4.518,0,1,1,0,9.036Z" transform="translate(-159.71 -89.129)"/>
      <path id="Path_891" data-name="Path 891" class="cls-5" d="M215.492,288.943c.912-3.86,5.194-5.125,8.7-4.984A37.118,37.118,0,0,1,230.745,285c2.25.5,4.478,1.1,6.695,1.732,4.065,1.159,8.088,2.561,12.221,3.468,3.44.755,7.178,1.2,10.609.155a10.062,10.062,0,0,0,6.993-6.858,6.867,6.867,0,0,0-3.419-8.169c-2.83-1.335-6.405-.656-7.808,2.363-1.582,3.4,0,7.115,2.5,9.578a28.048,28.048,0,0,0,4.652,3.534,17.323,17.323,0,0,0,5.57,2.495c3.267.7,7.159-.33,8.843-3.452a5.834,5.834,0,0,0,.662-2.28c.1-1.085-1.6-1.078-1.694,0-.286,3.108-3.925,4.564-6.647,4.223a13.511,13.511,0,0,1-5.153-2,30.2,30.2,0,0,1-4.268-3.012c-2.309-2-4.473-5.285-2.922-8.4,1.262-2.538,4.554-2.513,6.555-.876,2.424,1.983,1.992,5.581.393,7.935-1.77,2.607-4.979,3.7-8,3.818a31.3,31.3,0,0,1-9.689-1.518c-3.9-1.109-7.769-2.349-11.691-3.393-2.227-.592-4.471-1.127-6.738-1.543a22.236,22.236,0,0,0-6.534-.452c-3.535.408-7.144,2.466-8.014,6.152C213.608,289.553,215.241,290.005,215.492,288.943Z" transform="translate(-159.71 -89.129)"/>
      <path id="Path_892" data-name="Path 892" class="cls-7" d="M388.582,384.732a258.673,258.673,0,0,0,2.439,33.237c.053.387.112.774.165,1.16l104.138-.582c.306-.384.607-.773.9-1.166.972-1.3,1.883-2.641,2.72-4.026,4.021-6.674,5.861-14.487,4.017-19.878l-.033-.084a9.46,9.46,0,0,0-1.846-3.208c-4.205-4.734-12.709-3.945-20.425-.124,6.921-7.576,12.432-17.135,12.851-25.669.411-8.323-3.942-14.269-8.662-19.322-.155-.167-.31-.329-.465-.492-.075-.083-.155-.162-.23-.246-3.683-3.851-7.977-7.647-14.191-7.187-6.816.5-14.373,6.214-19.672,12.866s-8.82,14.2-12.389,21.571-7.44,14.92-13.174,21.216c7.767-9.824,14.029-21,16.342-31.873s.277-21.312-6.645-26.432a16.19,16.19,0,0,0-7.092-2.862c-.3-.05-.6-.09-.91-.125-6.408-.729-14.059,1.487-20.568,6.785-7.169,5.833-12.139,14.48-14.612,22.689S388.5,377.093,388.582,384.732Z" transform="translate(-159.71 -89.129)"/>
      <path id="Path_893" data-name="Path 893" class="cls-8" d="M456.715,418.763l1.991-.011q.948-.593,1.906-1.172c.4-.249.795-.489,1.195-.734q9.908-6.051,19.94-11.609t20.146-10.612a.834.834,0,0,0,.48-.954.241.241,0,0,0-.033-.07c-.094-.177-.3-.25-.612-.1-.828.415-1.66.83-2.488,1.255q-10.151,5.136-20.215,10.784t-20,11.791c-.139.085-.279.174-.418.259C457.975,417.982,457.347,418.373,456.715,418.763Z" transform="translate(-159.71 -89.129)"/>
      <path id="Path_894" data-name="Path 894" class="cls-8" d="M431.039,418.907l1.231-.007c.278-.389.551-.777.828-1.166q9.788-13.725,19.571-27.451,16.022-22.47,32.034-44.941a.792.792,0,0,0,.139-.271c.091-.332-.152-.526-.465-.492a.935.935,0,0,0-.651.414q-8.983,12.6-17.961,25.193L433.894,414.9c-.676.946-1.351,1.9-2.027,2.842C431.59,418.129,431.312,418.518,431.039,418.907Z" transform="translate(-159.71 -89.129)"/>
      <path id="Path_895" data-name="Path 895" class="cls-8" d="M403.607,411.756c.063,2.075.2,4.117.38,6.141l.1,1.161,1.292-.007c-.04-.387-.079-.774-.114-1.161-.273-2.923-.467-5.879-.493-8.915a124.37,124.37,0,0,1,2.448-25.069,156.086,156.086,0,0,1,7.583-26.045,178.867,178.867,0,0,1,12.407-25.769.688.688,0,0,0,.114-.458c-.053-.368-.544-.477-.91-.126a1.069,1.069,0,0,0-.185.234q-.894,1.537-1.755,3.083A178.75,178.75,0,0,0,412.6,360.684a155.348,155.348,0,0,0-7.069,26.084,122.7,122.7,0,0,0-1.927,24.987Z" transform="translate(-159.71 -89.129)"/>
      <path id="Path_896" data-name="Path 896" class="cls-5" d="M277.741,289.345a1.412,1.412,0,0,1,.769-2.49,23.317,23.317,0,0,1,9.145.937l30.109,9.3a3.106,3.106,0,0,1-1.833,5.935l-30.109-9.3A23.319,23.319,0,0,1,277.741,289.345Z" transform="translate(-159.71 -89.129)"/>
      <path id="Path_897" data-name="Path 897" class="cls-9" d="M401.161,327.972a6.067,6.067,0,0,1-2.749-8.887L393.251,292.1,406.4,291.07l.794,26.4a6.1,6.1,0,0,1-6.037,10.5Z" transform="translate(-159.71 -89.129)"/>
      <path id="Path_898" data-name="Path 898" class="cls-6" d="M392.44,314.043l-13.4-62.393a9.883,9.883,0,1,1,19.325-4.149l13.4,62.392a2.545,2.545,0,0,1-1.951,3.018l-14.356,3.082a2.54,2.54,0,0,1-3.018-1.951Z" transform="translate(-159.71 -89.129)"/>
      <path id="Path_899" data-name="Path 899" class="cls-9" d="M210.741,323.062h-6.923l-3.294-26.705h10.219Z"/>
      <path id="Path_900" data-name="Path 900" class="cls-10" d="M198.872,321.084h13.352v8.407H190.465a8.407,8.407,0,0,1,8.407-8.407Z"/>
      <path id="Path_901" data-name="Path 901" class="cls-9" d="M233.895,322.5h-6.923l-3.294-26.705H233.9Z"/>
      <path id="Path_902" data-name="Path 902" class="cls-10" d="M222.026,320.519h13.352v8.407H213.619A8.407,8.407,0,0,1,222.026,320.519Z"/>
      <path id="Path_903" data-name="Path 903" class="cls-10" d="M362.155,407.21a2.524,2.524,0,0,1-.913-1.729l-8.049-88.538a2.542,2.542,0,0,1,2.436-2.77L396,312.659a2.542,2.542,0,0,1,2.635,2.633l-3.227,88.2a2.546,2.546,0,0,1-2.31,2.438l-8.139.74a2.541,2.541,0,0,1-2.766-2.362l-3.735-56.031a.811.811,0,0,0-.845-.79h0a.811.811,0,0,0-.843.8l-3.343,56.409a2.529,2.529,0,0,1-2.284,2.378l-7.11.711a2.524,2.524,0,0,1-1.871-.569Z" transform="translate(-159.71 -89.129)"/>
      <circle id="Ellipse_112" data-name="Ellipse 112" class="cls-9" cx="13.87" cy="13.87" r="13.87" transform="translate(204.103 109.784)"/>
      <path id="Path_904" data-name="Path 904" class="cls-6" d="M350.972,317.542a2.52,2.52,0,0,1-.594-2.077c2.561-15.565,1.117-38.444-.544-54.9a24.962,24.962,0,0,1,10.3-22.76l7.244-6.209a2.581,2.581,0,0,1,1.727-.611l18,.514a2.532,2.532,0,0,1,1.724.744l2.781,6.158.029.021a24.888,24.888,0,0,1,10.117,21.285L399.1,314.454a2.555,2.555,0,0,1-2.455,2.417l-43.681,1.535h-.084a2.535,2.535,0,0,1-1.911-.865Z" transform="translate(-159.71 -89.129)"/>
      <path id="Path_905" data-name="Path 905" class="cls-9" d="M298.579,294.7a6.067,6.067,0,0,1,6.983-6.146L328.075,272.8l6.319,11.582-23.762,11.529a6.1,6.1,0,0,1-12.054-1.21Z" transform="translate(-159.71 -89.129)"/>
      <path id="Path_906" data-name="Path 906" class="cls-6" d="M317.525,297.437a2.526,2.526,0,0,1-1.663-1.008l-8.688-11.837a2.545,2.545,0,0,1,.545-3.553l51.444-37.76a9.883,9.883,0,0,1,11.7,15.934l-51.444,37.759a2.523,2.523,0,0,1-1.5.493,2.591,2.591,0,0,1-.391-.029Z" transform="translate(-159.71 -89.129)"/>
      <path id="Path_907" data-name="Path 907" class="cls-10" d="M378.393,225.131c1.839-2.255,1.638-5.691.162-8.2a15.793,15.793,0,0,0-6.561-5.585,85.1,85.1,0,0,1-7.745-4.017c-2.427-1.606-2.321-8.407-2.967-11.245l1.541.513c-.592-.758-.782-3-1.375-3.755,1.741.172,3.081,1.825,4.822,2l-1-2.7c5.972-.368,9.684,3.782,15.656,3.413,2.959-.182,6.172-.3,8.6,1.4,2.114,1.473,3.184,4.021,3.886,6.5,1.507,5.322,1.742,11.283-.862,16.162s-8.6,8.168-13.847,6.406Z" transform="translate(-159.71 -89.129)"/>
      <path id="Path_908" data-name="Path 908" class="cls-5" d="M302.241,418.932H517.4a.565.565,0,1,0,0-1.129H302.241a.565.565,0,1,0,0,1.129Z" transform="translate(-159.71 -89.129)"/>
    </g>
  </g>
</svg>
