<svg xmlns="http://www.w3.org/2000/svg" xmlns:xlink="http://www.w3.org/1999/xlink" width="420" height="330" viewBox="0 0 420 330"><defs><style>.a{fill:#fff;stroke:#707070;}.b{clip-path:url(#a);}.c{fill:#3f3d56;}.d{fill:#ff6584;}.e{fill:#6c63ff;}.f{fill:#e6e6e6;}.g{fill:#2f2e41;}.h{fill:#ccc;}</style><clipPath id="a"><rect class="a" width="420" height="330" transform="translate(814 4810)"/></clipPath></defs><g class="b" transform="translate(-814 -4810)"><g transform="translate(814 4858.958)"><path class="c" d="M422.929,197.389H131.7a3.847,3.847,0,0,1-3.843-3.843V79.959a3.847,3.847,0,0,1,3.843-3.843H422.929a3.847,3.847,0,0,1,3.843,3.843V193.546a3.847,3.847,0,0,1-3.843,3.843ZM131.7,76.97a2.993,2.993,0,0,0-2.989,2.989V193.546a2.993,2.993,0,0,0,2.989,2.989H422.929a2.993,2.993,0,0,0,2.989-2.989V79.959a2.993,2.993,0,0,0-2.989-2.989Z" transform="translate(-46.211 -76.116)"/><path class="d" d="M267.681,149.659H246.412c-1.33-11.831,1.6-20.65,0-25.522h21.269a133.148,133.148,0,0,0,0,25.522Z" transform="translate(-46.211 -76.116)"/><path class="d" d="M67.836,257.695H46.568c-1.33-11.831,1.6-20.65,0-25.523H67.836a133.149,133.149,0,0,0,0,25.522Z" transform="translate(-46.211 -76.116)"/><path class="e" d="M397.067,173.145H375.8c-1.33-11.831,1.6-20.65,0-25.523h21.269a133.145,133.145,0,0,0,0,25.522Z" transform="translate(-46.211 -76.116)"/><path class="f" d="M158.267,160.576H137c.8-9.814,3.369-18.977,0-25.522h21.269A28.612,28.612,0,0,1,158.267,160.576Z" transform="translate(-46.211 -76.116)"/><path class="f" d="M175.348,193.456H154.079c.8-9.814,3.369-18.977,0-25.522h21.269A28.612,28.612,0,0,1,175.348,193.456Z" transform="translate(-46.211 -76.116)"/><path class="e" d="M363.236,133.247H341.967c.8-9.814,3.369-18.977,0-25.522h21.269A28.612,28.612,0,0,1,363.236,133.247Z" transform="translate(-46.211 -76.116)"/><path class="f" d="M300.464,166.554H279.2c.8-9.814,3.369-18.977,0-25.523h21.269A28.612,28.612,0,0,1,300.464,166.554Z" transform="translate(-46.211 -76.116)"/><path class="c" d="M180.009,138.834h21.269c1.33-9.815-1.6-18.979,0-25.522H180.009A28.612,28.612,0,0,0,180.009,138.834Z" transform="translate(-46.211 -76.116)"/><path class="c" d="M194.474,91.916H154.762a.854.854,0,1,1,0-1.708h39.713a.854.854,0,1,1,0,1.708Z" transform="translate(-46.211 -76.116)"/><path class="c" d="M297.386,91.916H257.673a.854.854,0,1,1,0-1.708h39.713a.854.854,0,0,1,0,1.708Z" transform="translate(-46.211 -76.116)"/><path class="c" d="M400.3,91.916H360.584a.854.854,0,1,1,0-1.708H400.3a.854.854,0,0,1,0,1.708Z" transform="translate(-46.211 -76.116)"/><rect class="c" width="0.854" height="120.419" transform="translate(179.436 0.427)"/><rect class="c" width="0.854" height="120.419" transform="translate(282.347 0.427)"/><circle class="e" cx="22.854" cy="22.854" r="22.854" transform="translate(44.879 66.031)"/><path class="e" d="M110.343,308.2h-6.3a2.779,2.779,0,0,1-2.776-2.776V252.895a2.779,2.779,0,0,1,2.776-2.776h6.3a2.779,2.779,0,0,1,2.776,2.776v52.529a2.779,2.779,0,0,1-2.776,2.776Z" transform="translate(-46.211 -76.116)"/><path class="e" d="M122.809,308.2h-6.3a2.779,2.779,0,0,1-2.776-2.776V252.895a2.779,2.779,0,0,1,2.776-2.776h6.3a2.779,2.779,0,0,1,2.776,2.776v52.529a2.779,2.779,0,0,1-2.776,2.776Z" transform="translate(-46.211 -76.116)"/><path class="e" d="M63.8,242.621a2.786,2.786,0,0,1-.856-.136,2.757,2.757,0,0,1-1.618-1.377L58.46,235.5a2.775,2.775,0,0,1,1.206-3.735l46.76-23.933a2.776,2.776,0,0,1,3.736,1.206l2.872,5.61a2.776,2.776,0,0,1-1.206,3.735l-46.76,23.933A2.767,2.767,0,0,1,63.8,242.621Z" transform="translate(-46.211 -76.116)"/><path class="e" d="M128.012,218.258a2.754,2.754,0,0,1-1.8-.666l-4.79-4.1a2.779,2.779,0,0,1-.306-3.914l34.14-39.923a2.778,2.778,0,0,1,3.913-.305h0l4.79,4.1a2.775,2.775,0,0,1,.305,3.913l-34.139,39.923a2.759,2.759,0,0,1-1.893.963C128.159,218.255,128.085,218.258,128.012,218.258Z" transform="translate(-46.211 -76.116)"/><path class="g" d="M114.763,142.144c-.744-7.413-5.615-14.5-13.053-16.43a15.928,15.928,0,0,0-10.878.987,14.4,14.4,0,0,0-6.813,7.332,20.488,20.488,0,0,0-1.453,9.954,26.193,26.193,0,0,0,3.466,10.486,54.437,54.437,0,0,0,7.394,9.742c2.805,3.063,5.979,5.881,8.34,9.32,2.094,3.05,3.777,7.192,1.714,10.7a7.9,7.9,0,0,1-7.765,3.627,6.582,6.582,0,0,1-2.112-.7c-.727-.388-1.375.717-.647,1.106a8.86,8.86,0,0,0,8.808-.518,8.529,8.529,0,0,0,3.788-8.774c-.643-3.977-3.416-7.392-6.079-10.254-2.781-2.99-5.694-5.845-8.271-9.022a36.051,36.051,0,0,1-6.179-10.427,21.8,21.8,0,0,1-1.115-9.987,15.632,15.632,0,0,1,3.9-8.789,13.287,13.287,0,0,1,9.559-4.033,15.03,15.03,0,0,1,10.074,3.7,18.253,18.253,0,0,1,5.563,9.275,18.8,18.8,0,0,1,.474,2.7c.082.813,1.363.821,1.281,0Z" transform="translate(-46.211 -76.116)"/><path class="g" d="M109.948,141.97a2.349,2.349,0,0,1-.734-4.58l6.082-2.008a2.348,2.348,0,0,1,1.473,4.46l-6.082,2.008A2.351,2.351,0,0,1,109.948,141.97Z" transform="translate(-46.211 -76.116)"/><path class="g" d="M151.011,259.52H79.921a2.77,2.77,0,0,1-2.4-4.163l35.545-61.566a2.83,2.83,0,0,1,.446-.584l.007-.007,0,0a2.727,2.727,0,0,1,1.426-.746c.036-.007.072-.013.108-.018a2.826,2.826,0,0,1,.413-.03h0a2.747,2.747,0,0,1,2.4,1.388l35.545,61.566a2.776,2.776,0,0,1-2.4,4.163Z" transform="translate(-46.211 -76.116)"/><path class="g" d="M130.95,168.756l-.024-.854a7.063,7.063,0,0,0,4.042-.913,2.625,2.625,0,0,0,1.017-1.934,1.5,1.5,0,0,0-.492-1.236,2.585,2.585,0,0,0-2.642-.023l-.707.324,1.355-9.9.846.116-1.153,8.424a3.013,3.013,0,0,1,2.852.41,2.336,2.336,0,0,1,.794,1.918,3.473,3.473,0,0,1-1.367,2.593A7.859,7.859,0,0,1,130.95,168.756Z" transform="translate(-46.211 -76.116)"/><rect class="g" width="4.6" height="0.854" transform="translate(77.8 78.943)"/><path class="e" d="M441.434,222.041l-44.1-28.543a2.775,2.775,0,0,1-.822-3.838l3.425-5.291a2.779,2.779,0,0,1,3.838-.822l44.1,28.543a2.779,2.779,0,0,1,.822,3.839l-3.425,5.291a2.778,2.778,0,0,1-3.838.822Z" transform="translate(-46.211 -76.116)"/><path class="h" d="M441.562,221.688l-18.433-10.293a2.562,2.562,0,0,1-1.045-3.379l4.271-8.58a2.562,2.562,0,0,1,3.859-.887l17.561,13.545a2.567,2.567,0,0,1,.76,3.542l-3.425,5.292A2.567,2.567,0,0,1,441.562,221.688Z" transform="translate(-46.211 -76.116)"/><circle class="e" cx="22.854" cy="22.854" r="22.854" transform="translate(374.293 66.793)"/><path class="g" d="M444.184,305.332V252.8a2.779,2.779,0,0,1,2.776-2.776h6.3a2.779,2.779,0,0,1,2.776,2.776v52.53a2.779,2.779,0,0,1-2.776,2.776h-6.3a2.779,2.779,0,0,1-2.776-2.776Z" transform="translate(-46.211 -76.116)"/><path class="g" d="M431.715,305.332V252.8a2.779,2.779,0,0,1,2.776-2.776h6.3a2.779,2.779,0,0,1,2.776,2.776v52.53a2.779,2.779,0,0,1-2.776,2.776h-6.3a2.779,2.779,0,0,1-2.776-2.776Z" transform="translate(-46.211 -76.116)"/><path class="h" d="M426.523,255.989v-60.84a2.779,2.779,0,0,1,2.776-2.776h16.092a15.337,15.337,0,0,1,15.32,15.32v48.3a2.779,2.779,0,0,1-2.776,2.776H429.3a2.779,2.779,0,0,1-2.776-2.776Z" transform="translate(-46.211 -76.116)"/><path class="g" d="M423.409,172.112l.024-.854a7.063,7.063,0,0,1-4.042-.913,2.625,2.625,0,0,1-1.017-1.934,1.5,1.5,0,0,1,.492-1.236,2.585,2.585,0,0,1,2.642-.023l.707.324-1.355-9.9-.846.116,1.153,8.424a3.013,3.013,0,0,0-2.852.41,2.336,2.336,0,0,0-.794,1.918,3.473,3.473,0,0,0,1.367,2.593A7.861,7.861,0,0,0,423.409,172.112Z" transform="translate(-46.211 -76.116)"/><rect class="g" width="4.6" height="0.854" transform="translate(379.537 82.3)"/><path class="e" d="M415.617,254.671l-5.567-2.955a2.779,2.779,0,0,1-1.151-3.753l24.624-46.4a2.78,2.78,0,0,1,3.753-1.151l5.567,2.954a2.779,2.779,0,0,1,1.151,3.753l-24.624,46.4a2.771,2.771,0,0,1-3.753,1.151Z" transform="translate(-46.211 -76.116)"/><path class="h" d="M445.768,207.022l-10.8,19.255a2.562,2.562,0,0,1-3.276,1.333l-8.917-3.513a2.562,2.562,0,0,1-1.217-3.767l11.976-19.521A2.567,2.567,0,0,1,437,199.745l7.7,3.809a2.567,2.567,0,0,1,1.063,3.467Z" transform="translate(-46.211 -76.116)"/><path class="g" d="M436.976,150.757c-3.918.612-8.661,1.239-11.607-2.059a4.65,4.65,0,0,1-1.067-4.66,6.44,6.44,0,0,1,3.57-3.525c2.3-1,4.916-.941,7.371-.913a.641.641,0,0,0,0-1.281,19.947,19.947,0,0,0-7.5.872,7.991,7.991,0,0,0-4.442,3.932c-1.853,4.069,1.569,8.043,5.437,9.034,2.822.723,5.752.277,8.58-.165.812-.127.467-1.362-.341-1.235Z" transform="translate(-46.211 -76.116)"/><path class="c" d="M383.269,212.708h21.269c1.33-9.815-1.6-18.979,0-25.523H383.269A28.612,28.612,0,0,0,383.269,212.708Z" transform="translate(-46.211 -76.116)"/></g></g></svg>