<svg xmlns="http://www.w3.org/2000/svg" xmlns:xlink="http://www.w3.org/1999/xlink" width="420" height="330" viewBox="0 0 420 330">
  <defs>
    <style>
      .cls-1, .cls-4 {
        fill: #fff;
      }

      .cls-1 {
        stroke: #707070;
      }

      .cls-2 {
        clip-path: url(#clip-path);
      }

      .cls-3 {
        fill: #f2f2f2;
      }

      .cls-5 {
        fill: #6c63ff;
      }

      .cls-6 {
        fill: #3f3d56;
      }

      .cls-7 {
        fill: #a0616a;
      }

      .cls-8 {
        fill: #2f2e41;
      }
    </style>
    <clipPath id="clip-path">
      <rect id="Rectangle_208" data-name="Rectangle 208" class="cls-1" width="420" height="330" transform="translate(808 5843)"/>
    </clipPath>
  </defs>
  <g id="flat4" class="cls-2" transform="translate(-808 -5843)">
    <g id="_4-wireframeAprovado" data-name="4-wireframeAprovado" transform="translate(808 5868.922)">
      <path id="Path_909" data-name="Path 909" class="cls-3" d="M488.97,268.611a34.191,34.191,0,0,1-10.875,7.695h-.005c-.384.182-.768.359-1.157.527h0l-.005,0,0,0h0a0,0,0,0,1,0,0H476.9l0,0s0,0-.01,0l0,0-.005,0h0c-.005,0-.005,0-.01,0h-.005a68.814,68.814,0,0,1-8.4,3,116.507,116.507,0,0,1-51.747,2.7l-.985-.177V242.43c.325-.138.655-.276.985-.409q3.227-1.337,6.533-2.457,4.756-1.625,9.644-2.786a104.453,104.453,0,0,1,32.512-2.629q2.976.222,5.937.64a44.774,44.774,0,0,1,12.273,3.323h0c.556.261,1.1.532,1.644.822a18.456,18.456,0,0,1,7.985,7.823,15.049,15.049,0,0,1,1.339,3.934v.01c.1.473.167.95.221,1.423C495.429,257.952,493.012,264.19,488.97,268.611Z" transform="translate(-85.387 -82.462)"/>
      <path id="Path_910" data-name="Path 910" class="cls-4" d="M494.809,252.123a.671.671,0,0,1-.148.02q-12.65.554-25.266,1.644h-.015c-.034,0-.064,0-.1.01q-12.952,1.122-25.851,2.811c-.364.049-.724.1-1.083.143q-8.92,1.189-17.807,2.639-3.921.642-7.828,1.339c-.33.059-.655.113-.985.177v-1.492c.33-.064.66-.118.985-.177q13.012-2.3,26.112-4.022,3.294-.443,6.6-.837,9.541-1.152,19.111-1.989l1.4-.118q12.251-1.041,24.537-1.58a.462.462,0,0,1,.118.01C495.375,250.769,495.542,251.951,494.809,252.123Z" transform="translate(-85.387 -82.462)"/>
      <path id="Path_911" data-name="Path 911" class="cls-4" d="M477.3,275.382a40.313,40.313,0,0,1-28.287-11.751A38.311,38.311,0,0,1,443.5,256.7c-.5-.8-1.673.083-1.176.879a41.778,41.778,0,0,0,25.983,18.273,39.785,39.785,0,0,0,9.175.982c.942-.007.747-1.463-.189-1.456Z" transform="translate(-85.387 -82.462)"/>
      <path id="Path_912" data-name="Path 912" class="cls-4" d="M432.891,236.778a.833.833,0,0,1-.615.556,32.109,32.109,0,0,0-6.932,2.708,33.677,33.677,0,0,0-8.63,6.523c-.133.133-.261.266-.384.4-.207.217-.4.438-.6.665v-2.146c.315-.335.645-.665.985-.98a35.4,35.4,0,0,1,6.533-4.943Q428,237.94,432.891,236.778Z" transform="translate(-85.387 -82.462)"/>
      <path id="Path_913" data-name="Path 913" class="cls-4" d="M484.485,237.724A34.168,34.168,0,0,0,468.523,251.8a.738.738,0,0,0,.39.962.752.752,0,0,0,.962-.39,32.517,32.517,0,0,1,15.161-13.284.734.734,0,0,0-.552-1.36Z" transform="translate(-85.387 -82.462)"/>
      <path id="Path_914" data-name="Path 914" class="cls-3" d="M504.63,195.911a34.13,34.13,0,0,1-6.055,11.865l-.005,0c-.251.335-.512.674-.783,1v0a68.556,68.556,0,0,1-6.11,6.592A114.921,114.921,0,0,1,465.4,234.149a110.048,110.048,0,0,1-48.69,12.815c-.128,0-.256,0-.384,0-.2,0-.4,0-.6,0V224.6c.32-.61.65-1.221.985-1.826A108.074,108.074,0,0,1,432.482,201.2c.148-.162.3-.325.453-.482q3.456-3.648,7.247-6.947a103.788,103.788,0,0,1,33.128-19.619,44.58,44.58,0,0,1,12.411-2.757c.615-.034,1.226-.049,1.841-.044a18.484,18.484,0,0,1,10.708,3.22,15.261,15.261,0,0,1,3.013,2.86c.305.379.586.768.856,1.167v0C505.4,183.475,506.157,190.116,504.63,195.911Z" transform="translate(-85.387 -82.462)"/>
      <path id="Path_915" data-name="Path 915" class="cls-4" d="M502.139,178.6v0a.718.718,0,0,1-.118.084q-10.93,6.358-21.583,13.179c-.01,0-.015.01-.025.015a.857.857,0,0,1-.089.054q-10.951,7.015-21.593,14.5c-.3.207-.6.418-.9.63q-7.348,5.191-14.543,10.6-13.588,10.235-26.58,21.229c-.33.276-.655.556-.985.837v-1.915c.325-.281.655-.561.985-.837q4.977-4.2,10.043-8.286c1.009-.812,2.023-1.625,3.038-2.427q13.514-10.76,27.634-20.717h0q2.777-1.957,5.563-3.879,7.917-5.45,16.01-10.639c.389-.251.783-.5,1.176-.753q10.361-6.617,20.992-12.8a.732.732,0,0,1,.108-.054C502.021,177.134,502.715,178.109,502.139,178.6Z" transform="translate(-85.387 -82.462)"/>
      <path id="Path_916" data-name="Path 916" class="cls-4" d="M497.438,207.329a40.313,40.313,0,0,1-30.509,2.734,38.315,38.315,0,0,1-8.094-3.576c-.817-.479-1.443.85-.633,1.325a41.778,41.778,0,0,0,31.5,4.112,39.784,39.784,0,0,0,8.581-3.393c.831-.444-.018-1.642-.844-1.2Z" transform="translate(-85.387 -82.462)"/>
      <path id="Path_917" data-name="Path 917" class="cls-4" d="M428.1,225.342a33.749,33.749,0,0,1-.469-7.813,35.6,35.6,0,0,1,5.307-16.813q3.46-3.647,7.249-6.948a.839.839,0,0,1-.289.78,32.223,32.223,0,0,0-4.88,5.616,34.029,34.029,0,0,0-5.456,25.055.6.6,0,0,1-.154.563.8.8,0,0,1-1.309-.441Z" transform="translate(-85.387 -82.462)"/>
      <path id="Path_918" data-name="Path 918" class="cls-4" d="M486.311,170.641a34.168,34.168,0,0,0-7.6,19.877.738.738,0,0,0,.792.671.752.752,0,0,0,.671-.792,32.516,32.516,0,0,1,7.255-18.807c.6-.732-.522-1.682-1.121-.948Z" transform="translate(-85.387 -82.462)"/>
      <path id="Path_919" data-name="Path 919" class="cls-3" d="M435.328,186.818v0c-.034.423-.074.842-.118,1.26v.01a69.569,69.569,0,0,1-1.6,8.842c-.344,1.428-.719,2.846-1.127,4.263-.049.182-.1.364-.158.542v0a112.984,112.984,0,0,1-4.3,12.136,117.621,117.621,0,0,1-11.309,20.785c-.32.478-.65.955-.985,1.428V159c.33-.02.655-.02.985-.01q.236,0,.473.015a14.928,14.928,0,0,1,4.077.793c.463.153.911.325,1.354.517,5.371,2.353,9.59,7.542,11.422,13.248A34.205,34.205,0,0,1,435.328,186.818Z" transform="translate(-85.387 -82.462)"/>
      <path id="Path_920" data-name="Path 920" class="cls-4" d="M422.617,160.312a.53.53,0,0,1-.054.138q-2.991,5.812-5.849,11.683c-.33.674-.66,1.354-.985,2.028v-3.348q.488-1,.985-2.009,2.208-4.475,4.49-8.911a.64.64,0,0,1,.059-.1C421.716,159.145,422.838,159.588,422.617,160.312Z" transform="translate(-85.387 -82.462)"/>
      <path id="Path_921" data-name="Path 921" class="cls-4" d="M435.486,187.611c-.088.158-.177.315-.276.473a39.3,39.3,0,0,1-5.13,7.011,42.3,42.3,0,0,1-13.366,9.733c-.325.158-.655.305-.985.443v-1.6c.33-.148.66-.3.985-.458a39.812,39.812,0,0,0,17.413-16.158.81.81,0,0,1,1.2-.231.568.568,0,0,1,.157.788Z" transform="translate(-85.387 -82.462)"/>
      <path id="Path_922" data-name="Path 922" class="cls-5" d="M416.714,98.709v37.416h-.985v-.4H86.372v.4h-.985V98.709a16.262,16.262,0,0,1,16.246-16.246H400.467A16.262,16.262,0,0,1,416.714,98.709Z" transform="translate(-85.387 -82.462)"/>
      <path id="Path_923" data-name="Path 923" class="cls-6" d="M400.467,82.462H101.634A16.262,16.262,0,0,0,85.387,98.709V312.372a16.262,16.262,0,0,0,16.246,16.246H400.467a16.262,16.262,0,0,0,16.246-16.246V98.709A16.262,16.262,0,0,0,400.467,82.462Zm15.262,229.91a15.281,15.281,0,0,1-15.262,15.262H101.634a15.281,15.281,0,0,1-15.262-15.262V98.709a15.281,15.281,0,0,1,15.262-15.262H400.467a15.281,15.281,0,0,1,15.262,15.262Z" transform="translate(-85.387 -82.462)"/>
      <circle id="Ellipse_113" data-name="Ellipse 113" class="cls-4" cx="9.846" cy="9.846" r="9.846" transform="translate(57.108 16.985)"/>
      <circle id="Ellipse_114" data-name="Ellipse 114" class="cls-4" cx="9.846" cy="9.846" r="9.846" transform="translate(254.526 16.985)"/>
      <path id="Path_924" data-name="Path 924" class="cls-5" d="M180.79,219.08H122.217a9.37,9.37,0,0,1-9.36-9.36V182.037a9.37,9.37,0,0,1,9.36-9.36H180.79a9.37,9.37,0,0,1,9.36,9.36v27.684a9.37,9.37,0,0,1-9.36,9.36Z" transform="translate(-85.387 -82.462)"/>
      <path id="Path_925" data-name="Path 925" class="cls-5" d="M280.433,219.08H221.86a9.37,9.37,0,0,1-9.36-9.36V182.037a9.37,9.37,0,0,1,9.36-9.36h58.573a9.37,9.37,0,0,1,9.36,9.36v27.684a9.37,9.37,0,0,1-9.36,9.36Z" transform="translate(-85.387 -82.462)"/>
      <path id="Path_926" data-name="Path 926" class="cls-3" d="M280.433,290.609H221.86a9.654,9.654,0,0,1-9.643-9.643V253.282a9.654,9.654,0,0,1,9.643-9.643h58.573a9.654,9.654,0,0,1,9.643,9.643v27.684a9.654,9.654,0,0,1-9.643,9.643Z" transform="translate(-85.387 -82.462)"/>
      <path id="Path_927" data-name="Path 927" class="cls-3" d="M180.6,290.609H122.025a9.654,9.654,0,0,1-9.643-9.643V253.282a9.654,9.654,0,0,1,9.643-9.643H180.6a9.654,9.654,0,0,1,9.643,9.643v27.684a9.654,9.654,0,0,1-9.643,9.643Z" transform="translate(-85.387 -82.462)"/>
      <path id="Path_928" data-name="Path 928" class="cls-3" d="M380.077,290.609H321.5a9.654,9.654,0,0,1-9.643-9.643V253.282a9.654,9.654,0,0,1,9.643-9.643h58.573a9.654,9.654,0,0,1,9.643,9.643v27.684A9.654,9.654,0,0,1,380.077,290.609Z" transform="translate(-85.387 -82.462)"/>
      <path id="Path_929" data-name="Path 929" class="cls-3" d="M380.077,219.136H321.5a9.654,9.654,0,0,1-9.643-9.643V181.808a9.654,9.654,0,0,1,9.643-9.643h58.573a9.654,9.654,0,0,1,9.643,9.643v27.684A9.654,9.654,0,0,1,380.077,219.136Z" transform="translate(-85.387 -82.462)"/>
      <circle id="Ellipse_115" data-name="Ellipse 115" class="cls-4" cx="15.883" cy="15.883" r="15.883" transform="translate(50.233 97.533)"/>
      <path id="Path_930" data-name="Path 930" class="cls-5" d="M149.929,201.937a1.647,1.647,0,0,1-.991-.329l-.018-.013-3.733-2.858A1.658,1.658,0,0,1,147.2,196.1l2.418,1.854,5.713-7.451a1.658,1.658,0,0,1,2.325-.307l-.036.048.036-.048a1.66,1.66,0,0,1,.307,2.325l-6.72,8.764a1.659,1.659,0,0,1-1.319.647Z" transform="translate(-85.387 -82.462)"/>
      <circle id="Ellipse_116" data-name="Ellipse 116" class="cls-4" cx="15.883" cy="15.883" r="15.883" transform="translate(150.16 97.305)"/>
      <path id="Path_931" data-name="Path 931" class="cls-5" d="M249.856,201.709a1.647,1.647,0,0,1-.991-.329l-.018-.013-3.733-2.858a1.658,1.658,0,1,1,2.017-2.633l2.418,1.854,5.713-7.451a1.658,1.658,0,0,1,2.325-.307l-.035.048.036-.048a1.66,1.66,0,0,1,.307,2.325l-6.72,8.764a1.659,1.659,0,0,1-1.319.647Z" transform="translate(-85.387 -82.462)"/>
      <path id="Path_932" data-name="Path 932" class="cls-7" d="M358.775,270.6a5.289,5.289,0,0,0-1.075-8.038l-8.867-47.347-10.784,4L350.156,264.5a5.317,5.317,0,0,0,8.619,6.1Z" transform="translate(-85.387 -82.462)"/>
      <path id="Path_933" data-name="Path 933" class="cls-7" d="M272.726,198.353a5.62,5.62,0,0,1,.011.884L293.7,215.375l5.946-2.442,4.858,8.492L294.4,226.771a4.268,4.268,0,0,1-5.059-.8l-20.958-21.607a5.6,5.6,0,1,1,4.341-6.009Z" transform="translate(-85.387 -82.462)"/>
      <path id="Path_934" data-name="Path 934" class="cls-7" d="M236.324,272.175h-6.035l-2.872-18.357h8.908Z"/>
      <path id="Path_935" data-name="Path 935" class="cls-8" d="M323.251,360.488H303.789v-.246a7.575,7.575,0,0,1,7.575-7.575h11.887Z" transform="translate(-85.387 -82.462)"/>
      <path id="Path_936" data-name="Path 936" class="cls-7" d="M258.97,272.175h-6.035l-2.872-18.357h8.908Z"/>
      <path id="Path_937" data-name="Path 937" class="cls-8" d="M345.9,360.488H326.436v-.246a7.575,7.575,0,0,1,7.575-7.575H345.9Z" transform="translate(-85.387 -82.462)"/>
      <path id="Path_938" data-name="Path 938" class="cls-8" d="M314.422,351.009a2.211,2.211,0,0,1-2.2-2l-5.259-70.74.249-.02,36.2-2.975.01.257,2.877,73.281a2.215,2.215,0,0,1-2.214,2.3h-7.1a2.2,2.2,0,0,1-2.19-1.878l-9.637-59.2a.246.246,0,0,0-.489.036l-.437,58.449a2.218,2.218,0,0,1-2.1,2.2l-7.586.3C314.5,351.008,314.462,351.009,314.422,351.009Z" transform="translate(-85.387 -82.462)"/>
      <circle id="Ellipse_117" data-name="Ellipse 117" class="cls-7" cx="12.092" cy="12.092" r="12.092" transform="translate(223.122 82.218)"/>
      <path id="Path_939" data-name="Path 939" class="cls-6" d="M322.941,282.776a59.588,59.588,0,0,1-15.64-2.137,2.221,2.221,0,0,1-1.593-2.307c1.628-24.465,2.011-43.45-1.413-56.586a22.058,22.058,0,0,1,1.817-16.177,21.292,21.292,0,0,1,18.875-11.187h0q.553.01,1.117.039c11.7.6,20.824,11.191,20.33,23.6l-2.354,59.16a2.186,2.186,0,0,1-1.386,1.991,56.243,56.243,0,0,1-19.753,3.6Z" transform="translate(-85.387 -82.462)"/>
      <path id="Path_940" data-name="Path 940" class="cls-6" d="M306.285,226.287l-9.057-11.1a2.837,2.837,0,0,1,.746-4.23l12.269-7.311a7.877,7.877,0,1,1,9.925,12.235L310.579,226.4a2.836,2.836,0,0,1-4.293-.118Z" transform="translate(-85.387 -82.462)"/>
      <path id="Path_941" data-name="Path 941" class="cls-6" d="M334.778,224.894a2.833,2.833,0,0,1-1.558-1.775l-4.077-13.64a7.877,7.877,0,0,1,14.25-6.721l7.885,11.908a2.836,2.836,0,0,1-1.163,4.135l-12.975,6.073a2.833,2.833,0,0,1-2.362.02Z" transform="translate(-85.387 -82.462)"/>
      <path id="Path_942" data-name="Path 942" class="cls-8" d="M326.576,186.693l-8.963-2.051c-.924-.212-2.035-.615-2.164-1.555-.172-1.263,1.645-2.143,1.477-3.406-.162-1.224-1.818-1.382-3-1.743a4.485,4.485,0,0,1-2.793-5.583,4.121,4.121,0,0,1-5.852.5,5.18,5.18,0,0,1-.98-6.074,7.034,7.034,0,0,1,5.28-3.565,11.134,11.134,0,0,1,6.411,1.2c.131-1.395,1.873-1.96,3.274-1.973a14,14,0,0,1,13.117,9.574c1.719,5.54.569,11.612-4.241,14.853Z" transform="translate(-85.387 -82.462)"/>
      <path id="Path_943" data-name="Path 943" class="cls-6" d="M416.855,360.619H229.284a.492.492,0,0,1,0-.985H416.855a.492.492,0,0,1,0,.985Z" transform="translate(-85.387 -82.462)"/>
    </g>
  </g>
</svg>
