<svg xmlns="http://www.w3.org/2000/svg" xmlns:xlink="http://www.w3.org/1999/xlink" width="420" height="330" viewBox="0 0 420 330">
  <defs>
    <style>
      .cls-1 {
        fill: #fff;
        stroke: #707070;
      }

      .cls-2 {
        clip-path: url(#clip-path);
      }

      .cls-3, .cls-4 {
        fill: #6c63ff;
      }

      .cls-4, .cls-7, .cls-9 {
        opacity: 0.1;
      }

      .cls-5 {
        fill: url(#linear-gradient);
      }

      .cls-6 {
        fill: #444176;
      }

      .cls-8 {
        fill: #565387;
      }

      .cls-10 {
        fill: #ced2df;
      }

      .cls-11 {
        fill: #88455e;
      }

      .cls-12 {
        fill: #ec8c9c;
      }

      .cls-13 {
        fill: #ebf1f6;
      }

      .cls-14 {
        fill: url(#linear-gradient-2);
      }

      .cls-15 {
        fill: url(#linear-gradient-3);
      }

      .cls-16 {
        fill: #ffbdc6;
      }

      .cls-17 {
        fill: #7679b4;
      }

      .cls-18 {
        fill: #a66477;
      }

      .cls-19 {
        fill: #f2f1f2;
      }

      .cls-20 {
        fill: #565388;
      }

      .cls-21 {
        fill: url(#linear-gradient-4);
      }

      .cls-22 {
        fill: #493545;
      }

      .cls-23 {
        opacity: 0.05;
      }

      .cls-24 {
        fill: #3e3d77;
      }

      .cls-25 {
        fill: #c77485;
      }

      .cls-26 {
        fill: #ffaac4;
      }

      .cls-27, .cls-29 {
        fill: none;
        stroke-miterlimit: 10;
      }

      .cls-27 {
        stroke: #535461;
        stroke-width: 0.884px;
      }

      .cls-28 {
        fill: #dee3f3;
        opacity: 0.5;
      }

      .cls-29 {
        stroke: #6c63ff;
        stroke-width: 0.442px;
      }

      .cls-30 {
        fill: #a8a8a8;
      }

      .cls-31 {
        opacity: 0.2;
      }

      .cls-32 {
        fill: #ffd037;
      }
    </style>
    <clipPath id="clip-path">
      <rect id="Rectangle_203" data-name="Rectangle 203" class="cls-1" width="420" height="330" transform="translate(751 7960)"/>
    </clipPath>
    <linearGradient id="linear-gradient" x1="0.5" y1="1" x2="0.5" gradientUnits="objectBoundingBox">
      <stop offset="0" stop-color="gray" stop-opacity="0.251"/>
      <stop offset="0.54" stop-color="gray" stop-opacity="0.122"/>
      <stop offset="1" stop-color="gray" stop-opacity="0.102"/>
    </linearGradient>
    <linearGradient id="linear-gradient-2" x1="0.495" y1="1.014" x2="0.495" y2="0" xlink:href="#linear-gradient"/>
    <linearGradient id="linear-gradient-3" x1="0.5" y1="1" x2="0.5" y2="0" xlink:href="#linear-gradient"/>
    <linearGradient id="linear-gradient-4" x1="0.5" y1="1" x2="0.5" y2="0" xlink:href="#linear-gradient"/>
  </defs>
  <g id="flat8" class="cls-2" transform="translate(-751 -7960)">
    <g id="_7-siteProntinho1" data-name="7-siteProntinho1" transform="translate(751.009 7978.736)">
      <circle id="Ellipse_165" data-name="Ellipse 165" class="cls-3" cx="20.557" cy="20.557" r="20.557" transform="translate(21.508 8.64)"/>
      <path id="Path_1053" data-name="Path 1053" class="cls-4" d="M94.872,123.773c8.632,19.5-2.379,41.946-15.34,58.851-4.338,5.669-9.127,11.612-9.728,18.722-.725,8.7,5.165,16.693,12.151,21.919a51.166,51.166,0,0,0,45.316,7.663c13.107-4.152,24.126-13.531,37.347-17.312,22.109-6.332,45.546,4.165,64.48,17.245,13.4,9.246,27.756,20.513,43.914,18.532,11.369-1.393,21.017-9.374,27.566-18.771,3.162-4.537,5.912-9.622,10.515-12.682a26.322,26.322,0,0,1,9.167-3.476c29.357-6.275,60.514,9.038,89.481,1.163,19.567-5.306,35.167-20.783,44.869-38.59s14.23-37.913,18-57.834c2.68-14.15,4.9-29.437-1.256-42.45-6.518-13.779-21.605-22.132-36.768-23.7s-30.37,2.755-44.338,8.848c-17.453,7.632-34.562,18.315-53.611,18.351-12.974.027-25.346-4.953-37.75-8.751-20.739-6.345-42.3-9.5-63.795-12.408-20.575-2.786-41.354-5.377-62.052-3.732-14.645,1.163-27.579,6.761-41.791,9.352-9.264,1.689-18.572.442-27.663,3.272-11.2,3.5-22.711,11.616-23.33,24.4C79.674,104.551,90.3,113.43,94.872,123.773Z" transform="translate(-55.318 -52.727)"/>
      <path id="Path_1054" data-name="Path 1054" class="cls-5" d="M321.472,141.134c-1.888-4.922-6.757-16.489-9.963-14.194-4.05,2.9,4.05,15.715,4.05,15.715.23,2.352-4.325,7.247-6.766,9.688v-.305a1.062,1.062,0,0,1-.106.265l-.2-.111a1.327,1.327,0,0,1-.287.526,5.163,5.163,0,0,0-.022-.526c-.469,1.985-8.649,4.5-8.649,4.5h-.6c-2.273,0-8.189-.513-10.931-4.9a24.259,24.259,0,0,0-5.364-6.257,4.568,4.568,0,0,0-2.543-.964,32.715,32.715,0,0,1-14.933-5.138l-.226-.155-.049.142c-.287-.411-.566-.849-.827-1.3h0l-.133-.243A11.108,11.108,0,0,0,270.045,128v-.23a7.565,7.565,0,0,0,1.017-3.79v-1.327l1.729-1.539A7.111,7.111,0,0,0,274.8,118.7a2.862,2.862,0,0,0,.212-1.238,2.145,2.145,0,0,0-.814-1.919c-1.327-.915-3.538,0-4.5-1.274-.442-.575-.363-1.358-.579-2.034a3.64,3.64,0,0,0-3.507-2.14,15.149,15.149,0,0,0-4.3.915,25.236,25.236,0,0,1-9.153.858,5.978,5.978,0,0,0-2.507.088,3.454,3.454,0,0,0-2.034,2.366,5.559,5.559,0,0,0-.195,1.212,7.623,7.623,0,0,0-1.919,5.045v3.4a7.619,7.619,0,0,0,1.835,4.948,11.055,11.055,0,0,0,4.63,8.066v.27l.057.035a18.284,18.284,0,0,1-.486,3.126V140.2a31.96,31.96,0,0,1-12.824,3.374H238a4.939,4.939,0,0,0-3.538,1.327c-1.963,1.848-5.4,4.771-7.517,4.771-.442,0-11.6,2.18-13.451,2.543l-3.453-3.383-.106.2-.2-.2A8.4,8.4,0,0,0,208.6,149a26.766,26.766,0,0,1-6.124-13.509s7.637-8.7,4.829-16.8c-2.4-6.907-9,7.9-10.873,12.359a3.564,3.564,0,0,0-.115,2.454l6.2,20a9.379,9.379,0,0,0-.491,4.864h-.071l4.519,5.8a23.861,23.861,0,0,0,8.72,1.424,30.485,30.485,0,0,0,11.382-2.184h1.048l-.2.075h5.381l3.423,10.352c-.115.942-1.769,14.088-3.1,17.029a7.388,7.388,0,0,0-.522,3.1,23.63,23.63,0,0,0,.986,5.992l3-.111-.115.234A156.07,156.07,0,0,0,227.2,223.2l-4.364,8.844,3.272,39.664h.133l.252.04h0c.354.053.884.133,1.583.221l-.256.442-7.212,11.939s-5.143,10.529,6.235,8.543c0,0,4.205-1.22,5.921-8.4l7.482-7.018s.349-4.661-1.769-6.522c-.133-2.153-.469-8.441.049-9.954.623-1.831-2.653-22.883-2.653-22.883s11.842-24.564,19.014-25.174a3.931,3.931,0,0,1,1.552.2c5.894,1.919,13.036,16.171,15.136,20.606h0l.1.2V234l.08.172v.049l.071.15v.04l.062.137v.031l.053.111v.044l.04.084v.035l.027.062v.075h0l.022.053.933,27.615h0l.093.049h.044l-.08.57-.407,2.852s5.143,10.834,4.829,12.2,3.427,6.867,8.724,5.342,2.145-10.126,2.145-10.126l-5.1-10.515-.226-.469a10.029,10.029,0,0,0,1.433-1.066s-1.557-11.289,0-13.73,2.025-13.58,2.025-13.58-1.092-7.628-2.963-10.984l-7.836-27.968c2.348,2.184,4.174,3.038,5.7,2.98h.252a3.807,3.807,0,0,0,1.919-.478,5.409,5.409,0,0,0,.884-.624,1.4,1.4,0,0,0,.146-.146h0c2.18-1.831-2.494-9-5.143-13.266-2.551-4.112.964-15.286,1.229-16.118a4.217,4.217,0,0,1,.756-.442,4.665,4.665,0,0,1,1.733-.376c2.538.088,5.66,1.548,9.525,2.282a44.938,44.938,0,0,0,8.132.632h.159c1.083,0,2.065-.022,2.861-.053a4.833,4.833,0,0,0,2.078-.562h0a6.274,6.274,0,0,0,1.477-1.194l6.783-7.663-.177.084a3.812,3.812,0,0,0,0-2.7l7.168-12.381a4.709,4.709,0,0,0,.349-4.081Z" transform="translate(-55.318 -52.727)"/>
      <path id="Path_1055" data-name="Path 1055" class="cls-6" d="M240.94,276.43l-7.221,6.92c-1.654,7.075-5.718,8.273-5.718,8.273-10.98,1.954-6.018-8.4-6.018-8.4l6.964-11.784.858-1.455s4.966-1.5,8.273-.6a2.83,2.83,0,0,1,1.128.61C241.281,271.792,240.94,276.43,240.94,276.43Z" transform="translate(-55.318 -52.727)"/>
      <path id="Path_1056" data-name="Path 1056" class="cls-6" d="M285.464,282.6c-5.116,1.5-8.724-3.909-8.4-5.266s-4.674-12.019-4.674-12.019l.389-2.812.363-2.6,8.4.6.792,1.663,4.926,10.369S290.58,281.1,285.464,282.6Z" transform="translate(-55.318 -52.727)"/>
      <path id="Path_1057" data-name="Path 1057" class="cls-7" d="M239.286,271.168c-.792,1.358-7.208.672-10.334.248l.858-1.455s4.966-1.5,8.273-.6a2.83,2.83,0,0,1,1.128.61C239.256,270.7,239.286,271.168,239.286,271.168Z" transform="translate(-55.318 -52.727)"/>
      <path id="Path_1058" data-name="Path 1058" class="cls-7" d="M282.342,262.152c-4.3,2.865-8.884.7-9.573.341l.363-2.6,8.4.6Z" transform="translate(-55.318 -52.727)"/>
      <path id="Path_1059" data-name="Path 1059" class="cls-8" d="M283.51,247.1c-1.5,2.406,0,13.54,0,13.54-4.966,4.515-10.829,1.2-10.829,1.2l-.884-27.226S262.019,212.2,255.1,212.8s-18.351,24.82-18.351,24.82,3.157,20.756,2.556,22.552,0,10.529,0,10.529c-1.052,1.8-12.032,0-12.032,0l-3.157-39.112,4.192-8.729a154.742,154.742,0,0,1,8.954-22.817c1.216-2.551,2.03-4.108,2.03-4.108l8-1.667,25.979-5.386,9.335,33.978c1.8,3.308,2.857,10.829,2.857,10.829S285.013,244.694,283.51,247.1Z" transform="translate(-55.318 -52.727)"/>
      <g id="Group_57" data-name="Group 57" class="cls-9">
        <path id="Path_1060" data-name="Path 1060" d="M275.086,261.843l-.884-27.226S264.425,212.2,257.5,212.8a3.768,3.768,0,0,0-.906.2c6.748,2.242,15.2,21.61,15.2,21.61l.884,27.226a10.612,10.612,0,0,0,5.983,1.092,10.644,10.644,0,0,1-3.577-1.092Z" transform="translate(-55.318 -52.727)"/>
        <path id="Path_1061" data-name="Path 1061" d="M229.66,270.717,226.5,231.606l4.21-8.742a154.739,154.739,0,0,1,8.954-22.817c1.216-2.551,2.03-4.108,2.03-4.108l8-1.667,23.715-4.93-.128-.473-25.992,5.4-8,1.667s-.814,1.557-2.03,4.108a154.546,154.546,0,0,0-8.954,22.817l-4.21,8.724,3.157,39.112a56.5,56.5,0,0,0,9.551.769A71.052,71.052,0,0,1,229.66,270.717Z" transform="translate(-55.318 -52.727)"/>
      </g>
      <path id="Path_1062" data-name="Path 1062" class="cls-10" d="M211.367,149.553s-8.574.442-7.371,9.476l2.406.3,3.608-3.909,1.8-3.308v-.752Z" transform="translate(-55.318 -52.727)"/>
      <path id="Path_1063" data-name="Path 1063" class="cls-7" d="M211.367,149.553s-8.574.442-7.371,9.476l2.406.3,3.608-3.909,1.8-3.308v-.752Z" transform="translate(-55.318 -52.727)"/>
      <path id="Path_1064" data-name="Path 1064" class="cls-10" d="M306.751,152.861s7.075,3.759,5.266,8.123l-2.255.884-3.007-1.654-.442-3.909.3-2.706Z" transform="translate(-55.318 -52.727)"/>
      <path id="Path_1065" data-name="Path 1065" class="cls-7" d="M306.751,152.861s7.075,3.759,5.266,8.123l-2.255.884-3.007-1.654-.442-3.909.3-2.706Z" transform="translate(-55.318 -52.727)"/>
      <rect id="Rectangle_219" data-name="Rectangle 219" class="cls-11" width="24.67" height="18.652" rx="9.326" transform="translate(190.663 61.323)"/>
      <path id="Path_1066" data-name="Path 1066" class="cls-12" d="M211.309,150.831l-5.266,8.4-.442-1.495-7.155-23.312a3.586,3.586,0,0,1,.111-2.419c1.809-4.4,8.185-19.014,10.5-12.182,2.706,7.959-4.665,16.547-4.665,16.547a26.5,26.5,0,0,0,6.292,13.77C211.07,150.6,211.309,150.831,211.309,150.831Z" transform="translate(-55.318 -52.727)"/>
      <path id="Path_1067" data-name="Path 1067" class="cls-12" d="M305.624,154.439s8.273-7.822,7.959-10.98c0,0-7.822-12.633-3.909-15.477,3.1-2.264,7.8,9.144,9.618,14a4.731,4.731,0,0,1-.314,3.98l-9.887,17.506Z" transform="translate(-55.318 -52.727)"/>
      <path id="Path_1068" data-name="Path 1068" class="cls-12" d="M252.07,132.63s1.5,9.626-2.857,13.239S261.7,149.46,261.7,149.46l6.018-5.567s-6.92-6.469-4.815-11.28Z" transform="translate(-55.318 -52.727)"/>
      <path id="Path_1069" data-name="Path 1069" class="cls-7" d="M251.769,143.61s6.469,4.815,12.934-.6l10.529,21.813-.6,26.624s-21.813,11.28-30.838,4.364-1.5-10.529-1.5-10.529l-2.1-20.456,2.255-13.239s4.059-6.319,4.364-6.319S251.769,143.61,251.769,143.61Z" transform="translate(-55.318 -52.727)"/>
      <path id="Path_1070" data-name="Path 1070" class="cls-13" d="M251.769,143.309s6.469,4.824,12.938-.6l10.529,21.813-.6,26.624s-21.813,11.28-30.838,4.364-1.5-10.529-1.5-10.529l-2.1-20.456,2.255-13.239s4.059-6.319,4.364-6.319S251.769,143.309,251.769,143.309Z" transform="translate(-55.318 -52.727)"/>
      <path id="Path_1071" data-name="Path 1071" class="cls-7" d="M251.769,141.058s-6.133,3.493-12.793,3.321a4.714,4.714,0,0,0-3.4,1.3c-1.9,1.822-5.218,4.7-7.274,4.7-.442,0-13.239,2.556-13.239,2.556l-3.383-3.383s-5.041,9.852-7.446,9.4l4.364,5.717s8.273,3.608,19.1-.752h6.319l3.308,10.228s-1.654,13.841-3.007,16.847.442,8.875.442,8.875l11.882-.442s.6-5.868,1.5-6.633-3.157-26.624-3.157-26.624-2.706-14.592,7.221-19.854Z" transform="translate(-55.318 -52.727)"/>
      <path id="Path_1072" data-name="Path 1072" class="cls-7" d="M247.29,194.289a39.271,39.271,0,0,0-.933,5.426l-9.1.345c1.216-2.551,2.03-4.108,2.03-4.108Z" transform="translate(-55.318 -52.727)"/>
      <path id="Path_1073" data-name="Path 1073" class="cls-7" d="M211.309,150.831l-5.266,8.4-.442-1.495c1.932-1.919,4.2-5.93,5.1-7.6A8.916,8.916,0,0,0,211.309,150.831Z" transform="translate(-55.318 -52.727)"/>
      <path id="Path_1074" data-name="Path 1074" class="cls-10" d="M251.769,141.058s-6.438,3.493-13.093,3.321a4.714,4.714,0,0,0-3.4,1.3c-1.9,1.822-5.218,4.7-7.274,4.7-.442,0-13.239,2.556-13.239,2.556l-3.4-3.387s-5.041,9.852-7.446,9.4l4.364,5.718s8.273,3.608,19.1-.752h6.319l3.308,10.223s-1.654,13.841-3.007,16.847.442,8.875.442,8.875l11.882-.442s.6-5.868,1.5-6.633-3.157-26.624-3.157-26.624-2.706-14.592,7.221-19.854Z" transform="translate(-55.318 -52.727)"/>
      <path id="Path_1075" data-name="Path 1075" class="cls-7" d="M264.708,140.148a29.272,29.272,0,0,0,14.331,5.218,4.355,4.355,0,0,1,2.454.951,23.754,23.754,0,0,1,5.178,6.191c3.308,5.417,11.431,4.815,11.431,4.815s7.9-2.481,8.349-4.422c0,0,.226,10.613,5.191,8.048l-6.531,7.526a4.607,4.607,0,0,1-3.294,1.587,48.423,48.423,0,0,1-10.316-.57c-5.417-1.052-9.326-3.608-12.182-1.353,0,0-3.759,11.731-1.2,15.945s7.075,11.28,4.966,13.089-4.665,1.654-8.875-2.706-4.665-11.731-4.665-11.731l1.052-18.952s-4.059-14.292-7.959-17.148Z" transform="translate(-55.318 -52.727)"/>
      <path id="Path_1076" data-name="Path 1076" class="cls-7" d="M312.239,160.758l-6.549,7.557a4.6,4.6,0,0,1-1.579,1.176h0a4.585,4.585,0,0,1-1.707.4,47.848,47.848,0,0,1-10.316-.57c-5.068-.986-8.817-3.285-11.621-1.733a4.11,4.11,0,0,0-.566.376s-3.759,11.731-1.2,15.945,7.075,11.28,4.966,13.089a4.864,4.864,0,0,1-1.176.765c-1.893.853-4.241.115-7.7-3.471-4.21-4.364-4.665-11.731-4.665-11.731l1.052-18.952s-4.059-14.292-7.959-17.148l1.72-6.169a31.229,31.229,0,0,0,14.415,5.067,4.355,4.355,0,0,1,2.454.951,23.773,23.773,0,0,1,5.178,6.191c3.308,5.417,11.431,4.815,11.431,4.815a43.9,43.9,0,0,0,5.691-2.264h0a8.675,8.675,0,0,0,2.653-1.769,1.327,1.327,0,0,0,.287-.531S307.278,163.314,312.239,160.758Z" transform="translate(-55.318 -52.727)"/>
      <path id="Path_1077" data-name="Path 1077" class="cls-10" d="M311.938,160.908l-6.544,7.566a4.6,4.6,0,0,1-1.273,1.026h0a4.59,4.59,0,0,1-2.008.553,47.848,47.848,0,0,1-10.316-.57c-4.886-.951-8.552-3.126-11.316-1.884a4.09,4.09,0,0,0-.884.526s-3.759,11.731-1.2,15.945,7.075,11.28,4.966,13.089a5.217,5.217,0,0,1-.884.615c-1.946,1.075-4.351.442-8-3.321-4.21-4.364-4.665-11.731-4.665-11.731l1.052-18.952s-4.059-14.292-7.959-17.148l1.8-6.469.217.15a31.229,31.229,0,0,0,14.415,5.067,4.355,4.355,0,0,1,2.454.951,23.773,23.773,0,0,1,5.178,6.191c3.308,5.417,11.431,4.815,11.431,4.815a43.9,43.9,0,0,0,5.691-2.264h0c1.366-.7,2.481-1.464,2.653-2.162v.38C306.88,155.107,307.543,163.168,311.938,160.908Z" transform="translate(-55.318 -52.727)"/>
      <path id="Path_1078" data-name="Path 1078" class="cls-7" d="M263.036,132.856H251.982a27.05,27.05,0,0,1,.208,5.306,11.364,11.364,0,0,0,11.683.84C262.811,137.039,262.165,134.81,263.036,132.856Z" transform="translate(-55.318 -52.727)"/>
      <circle id="Ellipse_166" data-name="Ellipse 166" class="cls-12" cx="10.98" cy="10.98" r="10.98" transform="translate(192.392 65.311)"/>
      <path id="Path_1079" data-name="Path 1079" class="cls-7" d="M256.408,127.063a11.721,11.721,0,0,1,3.657-.336c1.1.221,2.03.977,3.126,1.207,2.114.442,4.077-1.114,5.673-2.565l3.449-3.14a7.039,7.039,0,0,0,1.946-2.379,2.387,2.387,0,0,0-.584-2.812c-1.26-.884-3.431,0-4.342-1.256a6.555,6.555,0,0,1-.562-2,3.52,3.52,0,0,0-3.387-2.109,14.984,14.984,0,0,0-4.148.884,23.878,23.878,0,0,1-8.844.845,5.651,5.651,0,0,0-2.419.084,3.383,3.383,0,0,0-1.963,2.33c-.681,2.406.482,6.284,1.649,8.437S254.078,127.351,256.408,127.063Z" transform="translate(-55.318 -52.727)"/>
      <path id="Path_1080" data-name="Path 1080" class="cls-11" d="M256.408,126.762a11.721,11.721,0,0,1,3.657-.336c1.1.221,2.03.977,3.126,1.207,2.114.442,4.077-1.114,5.673-2.565l3.449-3.14a7.039,7.039,0,0,0,1.946-2.379,2.387,2.387,0,0,0-.584-2.812c-1.26-.884-3.431,0-4.342-1.256a6.555,6.555,0,0,1-.562-2,3.52,3.52,0,0,0-3.387-2.109,14.984,14.984,0,0,0-4.148.884,23.878,23.878,0,0,1-8.844.845,5.651,5.651,0,0,0-2.419.084,3.383,3.383,0,0,0-1.963,2.33c-.681,2.406.482,6.284,1.649,8.437S254.078,127.028,256.408,126.762Z" transform="translate(-55.318 -52.727)"/>
      <path id="Path_1081" data-name="Path 1081" class="cls-7" d="M237.257,174.223a6.2,6.2,0,0,1,3.608,1.8,6.482,6.482,0,0,0,3.308,1.954" transform="translate(-55.318 -52.727)"/>
      <path id="Path_1082" data-name="Path 1082" class="cls-7" d="M215.594,154.364s1.963,4.382.752,4.824-.752,3.608-.752,3.608" transform="translate(-55.318 -52.727)"/>
      <g id="Group_58" data-name="Group 58" class="cls-9">
        <path id="Path_1083" data-name="Path 1083" d="M216.27,152.861S229.054,150.3,229.5,150.3c2.061,0,5.377-2.883,7.274-4.7a4.643,4.643,0,0,1,2.061-1.145h-.164a4.714,4.714,0,0,0-3.4,1.3c-1.9,1.822-5.218,4.7-7.274,4.7-.358,0-8.539,1.623-11.86,2.282Z" transform="translate(-55.318 -52.727)"/>
        <path id="Path_1084" data-name="Path 1084" d="M251.787,141.691v-.562a31.918,31.918,0,0,1-9.8,3.135,30.281,30.281,0,0,0,9.8-2.574Z" transform="translate(-55.318 -52.727)"/>
        <path id="Path_1085" data-name="Path 1085" d="M235.979,199.79s-1.8-5.868-.442-8.875,3.007-16.847,3.007-16.847l-3.3-10.228h-6.337l-.385.15h5.2l3.294,10.232s-1.654,13.841-3.007,16.847.442,8.875.442,8.875l11.882-.442v-.093Z" transform="translate(-55.318 -52.727)"/>
      </g>
      <g id="Group_59" data-name="Group 59" class="cls-9">
        <path id="Path_1086" data-name="Path 1086" d="M283.51,194.754a5.217,5.217,0,0,1-.884.615c-1.946,1.075-4.351.442-8-3.321-3.343-3.462-4.316-8.844-4.577-10.882l-.088,1.557s.442,7.371,4.665,11.731c3.648,3.776,6.054,4.4,8,3.321a5.218,5.218,0,0,0,.884-.615c.632-.544.668-1.565.336-2.839A1.393,1.393,0,0,1,283.51,194.754Z" transform="translate(-55.318 -52.727)"/>
        <path id="Path_1087" data-name="Path 1087" d="M309.811,161.134l-4.258,4.922a4.6,4.6,0,0,1-1.273,1.026h0a4.59,4.59,0,0,1-2.008.553,47.849,47.849,0,0,1-10.316-.57c-4.886-.951-8.552-3.126-11.316-1.884a4.09,4.09,0,0,0-.884.526s-2.428,7.579-2.056,12.74a49.747,49.747,0,0,1,2.056-10.334,4.09,4.09,0,0,1,.884-.526c2.768-1.243,6.429.933,11.316,1.884a48.409,48.409,0,0,0,10.316.57,4.59,4.59,0,0,0,2.008-.553h0a4.6,4.6,0,0,0,1.274-1.013l6.549-7.557a2.578,2.578,0,0,1-2.291.217Z" transform="translate(-55.318 -52.727)"/>
      </g>
      <path id="Path_1088" data-name="Path 1088" class="cls-14" d="M117.507,215.3a.34.34,0,0,0,.4.053,1.37,1.37,0,0,1-.4-.053Z" transform="translate(-55.318 -52.727)"/>
      <path id="Path_1089" data-name="Path 1089" class="cls-15" d="M162.571,142.049c-.8-.23-1.932-.606-3.3-1.083a17.3,17.3,0,0,0,3.056-6.155l-.115.044c.04-.137.08-.27.115-.411-2.622,1.066-5.523-.738-7.371-3.056s-3.1-5.191-5.121-7.323a23.44,23.44,0,0,0-2.715-2.339,3.754,3.754,0,0,0-1.968-.964c-1.181-.035-2.1,1.123-3.241,1.464a4.422,4.422,0,0,1-2.26-.084c-2.932-.672-5.748-1.915-8.742-2.242a10.246,10.246,0,0,0-4.745.535c-1.5.57-2.189,1.707-3.4,2.618-1.327.977-3.918.955-5.461,1.128a39.132,39.132,0,0,1-5.642.234,13.208,13.208,0,0,0-3.246.119c-2.242.491-4.042,2.273-5.722,3.98a2.949,2.949,0,0,0-.946,1.481,1.871,1.871,0,0,0,0,.491,3.188,3.188,0,0,0,.226,1.3,17.246,17.246,0,0,0,2.171,4.32,12.476,12.476,0,0,1,1.875,3.069,5.956,5.956,0,0,1,.287,1.769,12.863,12.863,0,0,1-.2,1.9,23.878,23.878,0,0,1-1.455,5.063,9.2,9.2,0,0,0-.849,2.653,4.228,4.228,0,0,0,0,.566c-.111,2.918,2.834,5.019,3.4,7.92a4.732,4.732,0,0,1,.084.73,4.941,4.941,0,0,1-2.613,4.28c.133.053.27.1.407.142a3.691,3.691,0,0,1-.407.221,8.252,8.252,0,0,0,.849.274A19.722,19.722,0,0,0,101.23,170c-5.116,9.525-39.766,28.181-39.766,28.181l.513.292-.416.27c-3,1.994-10.033,7.809-3.675,15.163,0,0,4.966-7.836,8.446-11.174.155-.15.31-.287.442-.416a1.017,1.017,0,0,1,.133.8l22.782-12.8s8.1-5.669,10.356-6.947a18.639,18.639,0,0,1,5.134-2.211l-.265.111a10.4,10.4,0,0,1,2.613-.371c4.033.062,8.4,3.016,9.839,14.712,1.928,15.662,1.035,18.488.416,18.873a1.136,1.136,0,0,1-.226-.04.385.385,0,0,0,.062.044,1.186,1.186,0,0,1-.248-.044.354.354,0,0,0,.336.08.314.314,0,0,0,.252-.031h0a2.619,2.619,0,0,0,.305,0,3.251,3.251,0,0,1-.031.442c-.031,0-.181.084,0,.093h0c-.049.884-.044,1.844,0,2.848-2,.111-4.006.23-5.748.336l.155-.827.071-.371c1.539-.124,3-.575,3.171-1.822.376-2.742-3.387-4.205-6.589-4.387s-22.4,1.1-22.4,1.1-2.879,3.728,6.253,4.864l.845.442a101.5,101.5,0,0,1,10.754,7.641l.323.256-1.044.849c5.647,1.278,11.108,22.857,14.119,32.722s9.6,9.507,15.061,8.043c5.116-1.371,5.748-16.228,5.832-18.094v-.19l9.1,11.24.69.853q.4.208.787.389c6.889,3.277,14.5-3.007,12.337-10.17-2.189-7.221-5.585-17.9-7.849-22.415-1.9-3.781-4.347-10.06-5.832-13.991a4.719,4.719,0,0,0,.562-.27s-.035-.177-.093-.5l.093-.049s-2.211-11.373-2.308-19.456v-.7c1.645-.376,2.689-.522,2.689-.522l.031-.354-.19.04.915-10.475s3.361-7.15.787-10.126a6.252,6.252,0,0,1-1.508-3.1c-.442-2.737,0-7.3,5.992-11.1,9.224-5.85,12.823-10.613,12.823-10.613S168.218,143.712,162.571,142.049Zm-18.32,7.27v-4.842c1.711-.084,3.458.115,5.178,0a13.1,13.1,0,0,0,2.5-.42l.416.287a45.544,45.544,0,0,1-8.092,4.975Zm-26.156,75.9c.677.469,1.358.955,2.025,1.446.416,2.388.783,4.073.809,4.192A33.1,33.1,0,0,0,118.1,225.216Z" transform="translate(-55.318 -52.727)"/>
      <path id="Path_1090" data-name="Path 1090" class="cls-16" d="M132.714,221.236l-.4,2.162-.305,1.654-.557,3.025-5.4,3.781s-.486-.416-1.291-1.075a94.715,94.715,0,0,0-10.285-7.517,11.5,11.5,0,0,0-2.826-1.3Z" transform="translate(-55.318 -52.727)"/>
      <path id="Path_1091" data-name="Path 1091" class="cls-7" d="M132.714,221.236l-.4,2.162a16.8,16.8,0,0,1-3.564-.181l-12.607.181c-.6-.035-1.154-.084-1.676-.137a11.5,11.5,0,0,0-2.826-1.3Z" transform="translate(-55.318 -52.727)"/>
      <path id="Path_1092" data-name="Path 1092" class="cls-17" d="M128.752,222.864s6.306,1.079,6.664-1.623-3.241-4.126-6.3-4.329S107.682,218,107.682,218s-3.241,4.32,8.464,5.041Z" transform="translate(-55.318 -52.727)"/>
      <path id="Path_1093" data-name="Path 1093" class="cls-7" d="M132.714,221.236l-.4,2.162-.305,1.654-.557,3.025-5.4,3.781s-.486-.416-1.291-1.075a94.715,94.715,0,0,0-10.285-7.517,11.5,11.5,0,0,0-2.826-1.3Z" transform="translate(-55.318 -52.727)"/>
      <path id="Path_1094" data-name="Path 1094" class="cls-7" d="M132.714,221.236l-.4,2.162a16.8,16.8,0,0,1-3.564-.181l-12.607.181c-.6-.035-1.154-.084-1.676-.137a11.5,11.5,0,0,0-2.826-1.3Z" transform="translate(-55.318 -52.727)"/>
      <path id="Path_1095" data-name="Path 1095" class="cls-7" d="M128.752,222.864s6.306,1.079,6.664-1.623-3.241-4.126-6.3-4.329S107.682,218,107.682,218s-3.241,4.32,8.464,5.041Z" transform="translate(-55.318 -52.727)"/>
      <rect id="Rectangle_220" data-name="Rectangle 220" class="cls-18" width="32.956" height="39.081" transform="translate(54.252 81.341)"/>
      <rect id="Rectangle_221" data-name="Rectangle 221" class="cls-7" width="32.956" height="39.081" transform="translate(54.252 81.341)"/>
      <path id="Path_1096" data-name="Path 1096" class="cls-16" d="M70.94,200.975a5.279,5.279,0,0,0-2.008,1.419c-3.33,3.29-8.079,11.006-8.079,11.006-6.085-7.243.65-12.969,3.538-14.937.7-.478,1.167-.734,1.167-.734Z" transform="translate(-55.318 -52.727)"/>
      <path id="Path_1097" data-name="Path 1097" class="cls-16" d="M132.356,146.4s1.623,11.347,7.2,14.048-7.2,7.743-7.2,7.743l-17.471-6.482s9.905-3.241,7.924-12.788Z" transform="translate(-55.318 -52.727)"/>
      <path id="Path_1098" data-name="Path 1098" class="cls-16" d="M113.643,214.661l-.4,2.162-.305,1.654-.557,3.025-5.4,3.781s-.486-.416-1.291-1.075A94.714,94.714,0,0,0,95.4,216.691a11.5,11.5,0,0,0-2.826-1.3Z" transform="translate(-55.318 -52.727)"/>
      <path id="Path_1099" data-name="Path 1099" class="cls-7" d="M113.643,214.661l-.4,2.162a16.8,16.8,0,0,1-3.564-.181l-12.607.181c-.6-.035-1.154-.084-1.676-.137a11.5,11.5,0,0,0-2.826-1.3Z" transform="translate(-55.318 -52.727)"/>
      <path id="Path_1100" data-name="Path 1100" class="cls-17" d="M109.663,216.284s6.306,1.079,6.664-1.623-3.241-4.143-6.306-4.32-21.433,1.079-21.433,1.079-3.241,4.32,8.464,5.041Z" transform="translate(-55.318 -52.727)"/>
      <path id="Path_1101" data-name="Path 1101" class="cls-7" d="M112.922,218.481l-.557,3.025-5.4,3.781s-.486-.416-1.291-1.075l7.146-5.859Z" transform="translate(-55.318 -52.727)"/>
      <path id="Path_1102" data-name="Path 1102" class="cls-17" d="M148.576,259.711q-.371-.181-.752-.385l-.659-.84-8.7-11.055v.195c-.057,1.835-.685,16.472-5.576,17.82-5.222,1.442-11.528,1.8-14.407-7.924s-8.105-30.975-13.509-32.236l8.012-6.575s5.306,6.191,7.473,12.151c-.08-.38-3.745-17.5-.721-20.522h26.293s4.05,11.559,6.845,17.29c2.167,4.448,5.417,14.964,7.517,22.079A8.457,8.457,0,0,1,148.576,259.711Z" transform="translate(-55.318 -52.727)"/>
      <path id="Path_1103" data-name="Path 1103" class="cls-7" d="M147.842,213.578c-4.055,2.4-21.884,1.424-27.694,1.035l-1.579-.115c-.172,0,.027-.1.027-.1l.164-1.636,4.32-10.984,23.144-13.407a20.028,20.028,0,0,0-.588,6.054C145.75,202.377,147.842,213.578,147.842,213.578Z" transform="translate(-55.318 -52.727)"/>
      <path id="Path_1104" data-name="Path 1104" class="cls-19" d="M147.842,213.043c-4.055,2.4-21.884,1.424-27.694,1.035l-1.579-.115h-.261l.287-.075,1.424-.376,3.06-12.249,23.144-13.416a20.027,20.027,0,0,0-.588,6.054C145.75,201.837,147.842,213.043,147.842,213.043Z" transform="translate(-55.318 -52.727)"/>
      <path id="Path_1105" data-name="Path 1105" class="cls-7" d="M145.635,193.882c-4.7,1.083-15.061,4.272-19.041,11.939-2.653,5.121-4.864,7.318-6.443,8.238l-1.579-.115.027-.1,1.424-.376,3.06-12.249,23.144-13.416A20.028,20.028,0,0,0,145.635,193.882Z" transform="translate(-55.318 -52.727)"/>
      <path id="Path_1106" data-name="Path 1106" class="cls-7" d="M65.537,197.734l5.4,3.241a5.279,5.279,0,0,0-2.008,1.419c-.442-1.327-3.281-3.148-4.563-3.927C65.068,197.99,65.537,197.734,65.537,197.734Z" transform="translate(-55.318 -52.727)"/>
      <path id="Path_1107" data-name="Path 1107" class="cls-7" d="M117.622,214.17a.323.323,0,0,1-.38-.049A1.3,1.3,0,0,0,117.622,214.17Z" transform="translate(-55.318 -52.727)"/>
      <path id="Path_1108" data-name="Path 1108" class="cls-20" d="M129.831,159.732a10.713,10.713,0,0,1-8.287-3.06s-14.407,4.143-19.271,13.509-38,27.734-38,27.734,5.748,3.241,5.222,4.864l21.791-12.607s7.743-5.585,9.905-6.845,14.048-9,16.569,12.067,0,18.572,0,18.572,3.6,1.26,8.844-8.844S148.036,192.7,148.036,192.7l.884-10.613s3.215-7.04.752-9.976a6.235,6.235,0,0,1-1.442-3.047c-.411-2.7,0-7.194,5.748-10.931,8.844-5.748,12.249-10.445,12.249-10.445s.181-3.423-5.222-5.041S133.63,132.2,133.63,132.2l-.721,3.06L150.2,147.51s-8.645,7.022-15.477,6.845C134.7,154.324,135.956,159.551,129.831,159.732Z" transform="translate(-55.318 -52.727)"/>
      <path id="Path_1109" data-name="Path 1109" class="cls-7" d="M133.17,151.344a35.379,35.379,0,0,1-.995-4.422l-9.547,2.538a10.524,10.524,0,0,1-.217,5.505,10.268,10.268,0,0,0,10.758-3.626Z" transform="translate(-55.318 -52.727)"/>
      <circle id="Ellipse_167" data-name="Ellipse 167" class="cls-16" cx="10.268" cy="10.268" r="10.268" transform="translate(59.656 81.518)"/>
      <path id="Path_1110" data-name="Path 1110" class="cls-7" d="M130.7,121.16c2.848.323,5.558,1.548,8.362,2.211a4.13,4.13,0,0,0,2.162.084c1.088-.336,1.972-1.477,3.1-1.442a3.254,3.254,0,0,1,1.884.951,22.6,22.6,0,0,1,2.6,2.3c1.932,2.1,3.135,4.93,4.9,7.212s4.546,4.059,7.053,3.011c-1.7,6.633-7.292,11.7-13.332,12.116-2.41.164-4.864-.336-7.212.371a6.314,6.314,0,0,1-1.822.442c-1.327,0-2.423-1.234-3.263-2.432-1.963-2.821-3.538-6.023-5.748-8.592a4.7,4.7,0,0,0-2.622-1.813,4.856,4.856,0,0,0-2.9.814,13.771,13.771,0,0,0-4.245,2.945,5.887,5.887,0,0,0-1.433,5.178,12.647,12.647,0,0,1,.884,2.9c0,1.636-1.424,2.834-1.711,4.422a17.066,17.066,0,0,0-.071,2.016,8.225,8.225,0,0,1-3.047,5.346,3.845,3.845,0,0,0-1.393,1.932c-.115.562,0,1.159-.075,1.729-.217,1.419-1.632,2.136-2.883,2.322a8.358,8.358,0,0,1-4.325-.513,4.971,4.971,0,0,0,2.419-5.306c-.557-2.923-3.493-5.019-3.246-8a9.255,9.255,0,0,1,.814-2.631,24.077,24.077,0,0,0,1.388-4.988,8.45,8.45,0,0,0-.084-3.98,12.565,12.565,0,0,0-1.8-3.025,17.165,17.165,0,0,1-2.078-4.258,2.985,2.985,0,0,1-.2-1.406,2.914,2.914,0,0,1,.884-1.459c1.61-1.685,3.334-3.44,5.474-3.927a12.275,12.275,0,0,1,3.1-.119,36.367,36.367,0,0,0,5.4-.23c1.477-.172,3.98-.15,5.227-1.114,1.163-.884,1.822-2.012,3.259-2.578A9.538,9.538,0,0,1,130.7,121.16Z" transform="translate(-55.318 -52.727)"/>
      <path id="Path_1111" data-name="Path 1111" class="cls-7" d="M136.407,227.179s5.943,11.7,4.143,15.309" transform="translate(-55.318 -52.727)"/>
      <path id="Path_1112" data-name="Path 1112" class="cls-7" d="M147.183,258.486l-8.7-11.055v.195s-.5-3.573,1.154-2.37c3.63,2.627,9.441,6.934,9.565,7.676S148.023,256.656,147.183,258.486Z" transform="translate(-55.318 -52.727)"/>
      <g id="Group_60" data-name="Group 60" class="cls-9">
        <path id="Path_1113" data-name="Path 1113" d="M134.868,154.324s.734,3.042-1.641,4.563a4.079,4.079,0,0,0,3.706-4.709,11.521,11.521,0,0,1-2.065.146Z" transform="translate(-55.318 -52.727)"/>
        <path id="Path_1114" data-name="Path 1114" d="M66.439,197.194s33.138-18.369,38-27.734c3.489-6.721,11.895-10.75,16.361-12.492-3.259,1.092-14.225,5.28-18.346,13.213-4.864,9.366-38,27.734-38,27.734Z" transform="translate(-55.318 -52.727)"/>
        <path id="Path_1115" data-name="Path 1115" d="M141.315,152.9a39.467,39.467,0,0,0,11.028-6.133l-17.29-12.249.394-1.68-1.654-.663-.721,3.06,17.29,12.249A41.722,41.722,0,0,1,141.315,152.9Z" transform="translate(-55.318 -52.727)"/>
        <path id="Path_1116" data-name="Path 1116" d="M141.425,194.4a42.839,42.839,0,0,1,6.779-1.711l.031-.349a45.876,45.876,0,0,0-6.81,2.061Z" transform="translate(-55.318 -52.727)"/>
        <path id="Path_1117" data-name="Path 1117" d="M120.47,213.268h-.159a.323.323,0,0,1-.38-.049,1.326,1.326,0,0,0,.38.049c.593-.345,1.481-3.033-.38-18.6-1.99-16.617-9.8-15.313-14.075-13.4,4.369-1.2,10.383-.164,12.094,14.124,1.862,15.565.973,18.258.38,18.6a3.98,3.98,0,0,0,2.14-.721Z" transform="translate(-55.318 -52.727)"/>
        <path id="Path_1118" data-name="Path 1118" d="M118.33,213.993a1.326,1.326,0,0,1-.38-.049.323.323,0,0,0,.38.049Z" transform="translate(-55.318 -52.727)"/>
      </g>
      <path id="Path_1119" data-name="Path 1119" class="cls-18" d="M130.7,120.811c2.848.323,5.558,1.548,8.362,2.211a4.13,4.13,0,0,0,2.162.084c1.088-.336,1.972-1.477,3.1-1.442a3.254,3.254,0,0,1,1.884.951,22.6,22.6,0,0,1,2.6,2.3c1.932,2.1,3.135,4.93,4.9,7.212s4.546,4.059,7.053,3.011c-1.7,6.633-7.292,11.7-13.332,12.116-2.41.164-4.864-.336-7.212.371a6.315,6.315,0,0,1-1.822.442c-1.327,0-2.423-1.234-3.263-2.432-1.963-2.821-3.538-6.023-5.748-8.592a4.7,4.7,0,0,0-2.622-1.813,4.856,4.856,0,0,0-2.9.814,13.771,13.771,0,0,0-4.245,2.945,5.887,5.887,0,0,0-1.433,5.178,12.647,12.647,0,0,1,.884,2.9c0,1.636-1.424,2.834-1.711,4.422a17.067,17.067,0,0,0-.071,2.016,8.225,8.225,0,0,1-3.047,5.346,3.845,3.845,0,0,0-1.393,1.932c-.115.562,0,1.159-.075,1.729-.217,1.419-1.632,2.136-2.883,2.322a8.357,8.357,0,0,1-4.325-.513,4.971,4.971,0,0,0,2.419-5.306c-.557-2.923-3.493-5.019-3.246-8a9.255,9.255,0,0,1,.814-2.631,24.078,24.078,0,0,0,1.388-4.988,8.45,8.45,0,0,0-.084-3.98,12.565,12.565,0,0,0-1.8-3.025,17.166,17.166,0,0,1-2.078-4.258,2.985,2.985,0,0,1-.2-1.406,2.914,2.914,0,0,1,.884-1.459c1.61-1.685,3.334-3.44,5.474-3.927a12.275,12.275,0,0,1,3.1-.119,36.365,36.365,0,0,0,5.4-.23c1.477-.172,3.98-.15,5.227-1.114,1.163-.884,1.822-2.012,3.259-2.578A9.538,9.538,0,0,1,130.7,120.811Z" transform="translate(-55.318 -52.727)"/>
      <path id="Path_1120" data-name="Path 1120" class="cls-21" d="M423.883,97.764h0V97.6a.373.373,0,0,0-.027-.168h-.071v-.367c-.177-4.1-5.846-12.824-8.119-10.276-1.99,2.237,1.013,7.9,2.543,10.445l.137.23-.075-.049s-6.328,18.873-7.075,19.607-5.956,15.574-12.824,17.245c-1.358.323-2.485.615-3.431.884l.075-.252a27.357,27.357,0,0,0,1.207-4.422c.221-1.61,0-3.56-.814-4.342-.4-.389-.884-.442-1.212-1.061a4.9,4.9,0,0,1-.336-1.7l-.584-7.155.407-.124c2.459-.787,4.842-2.653,5.121-5.165a2.651,2.651,0,0,1-.261.084,4.479,4.479,0,0,0,.075-.442c-2.065.814-3.98-1.327-5.97-2.286-3.277-1.605-7.022-.093-10.4.274-3.834.42-7.473-1.172-11.391-.884-2.131.164-4.5,1.61-4.387,3.71.066,1.154.884,2.131,1.22,3.237.849,2.675-1.039,5.359-2.693,7.641a11.374,11.374,0,0,0-2.317,5.085c-3.807-3.98-7.924-8.578-8.4-10.307L343.263,98.166s-.261.279-.681.69c-.066-.2-.146-.442-.234-.681-1.406-3.94-5.386-13.487-10.431-11.736s2.092,11.537,5.2,15.437l.442.539a1.4,1.4,0,0,1-.787-.035l12.284,21.07s2.233,4.033,4.28,5.129c0,0,15.26,19.24,15.446,23.087s6.863,14.11,6.863,14.11,2.233,16.675-1.676,19.607h.646q-.279.272-.57.6c-2.9,3.21-6.6,10.091-1.539,21.791,7.442,17.245,8.561,24,8.561,24s-14.15.734-16.936,1.282c-2.467.486-12.059.827-14.252.884-.783-.911-3.1-2.927-6.217,0-3.909,3.666-6.7,15.919-6.7,15.919s-1.49,9.9,3.538,7.327c0,0,5.956-8.247,7.628-8.614.831-.181,1.711-1.406,2.383-2.587l.035.022h0c.04,0,.2-.088.469-.195h0c1.238-.491,4.647-1.671,7.336-1.083,1.473.323,7.787.4,14.407.38-1.495,3.582-4.174,12.824-4.174,12.824s-1.119,8.618,2.6,8.264c2.653-.261,6.721-7.04,8.844-10.909,1.539-1.128,5.947-5.169,9.206-4.864L411.183,242s5.209-2.932,2.419-12.642c-2.211-7.721-8.5-23.524-10.988-29.684h0l-.075-.159c-.6-1.49-.964-2.375-.964-2.375h0a36.344,36.344,0,0,1-1.994-8.716c-.022-.234-.04-.473-.057-.708a3.909,3.909,0,0,0,.862-.5s-2.047-20.7,0-22.905h0l.035-.04h0v-.027h0l.035-.044h0l.08-.1h0l.1-.124h0c.111-.146.243-.327.394-.548h0a15.179,15.179,0,0,0,2.728-10.259h0q-.04-.3-.1-.606h0a12.633,12.633,0,0,0-1.273-3.591,9.956,9.956,0,0,1-.164-1.419v-1.256a4.255,4.255,0,0,1,.066-.637v-.08a.791.791,0,0,1,.04-.243v-.1a1.158,1.158,0,0,1,.053-.239v-.084c.027-.106.053-.212.088-.318v-.053q.04-.133.088-.261l.04-.1.088-.212.044-.106c.035-.08.075-.159.115-.239l.031-.066q.08-.146.168-.287l.049-.075.146-.208.071-.093.155-.186.071-.08c.08-.084.159-.168.248-.248,2.419-2.211,13.213-18.506,13.213-18.506s2.6-3.666,2.6-6.045C419.744,117.773,424.347,102.429,423.883,97.764ZM394.906,234.732c-.265-2.512-.531-5.625-.774-8.844l4.21,6.562S397.944,234.449,394.906,234.732Z" transform="translate(-55.318 -52.727)"/>
      <path id="Path_1121" data-name="Path 1121" class="cls-22" d="M351.014,233.343s-2.52-3.98-6.306-.358-6.482,15.667-6.482,15.667-1.442,9.728,3.423,7.2c0,0,5.748-8.105,7.385-8.464s3.423-4.864,3.423-4.864Z" transform="translate(-55.318 -52.727)"/>
      <path id="Path_1122" data-name="Path 1122" class="cls-22" d="M378.028,243.067s-3.423-1.623-4.5-.358-4.683,13.867-4.683,13.867-1.079,8.287,2.52,7.924,9.905-13.336,9.905-13.336Z" transform="translate(-55.318 -52.727)"/>
      <path id="Path_1123" data-name="Path 1123" class="cls-23" d="M378.028,243.067s-3.423-1.623-4.5-.358-4.683,13.867-4.683,13.867-1.079,8.287,2.52,7.924,9.905-13.336,9.905-13.336Z" transform="translate(-55.318 -52.727)"/>
      <path id="Path_1124" data-name="Path 1124" class="cls-24" d="M389.914,218.574l7.743,12.067s-.539,2.7-5.222,2.162L376.405,242.89s-1.393,12.28,3.06,11.165c.721-.181,5.748-5.4,9.366-5.041l21.256-8.287s5.041-2.883,2.339-12.426-11.634-31.67-11.634-31.67l-14.119,7.9Z" transform="translate(-55.318 -52.727)"/>
      <path id="Path_1125" data-name="Path 1125" class="cls-23" d="M389.914,218.574l7.743,12.067s-.539,2.7-5.222,2.162L376.405,242.89s-1.393,12.28,3.06,11.165c.721-.181,5.748-5.4,9.366-5.041l21.256-8.287s5.041-2.883,2.339-12.426-11.634-31.67-11.634-31.67l-14.119,7.9Z" transform="translate(-55.318 -52.727)"/>
      <path id="Path_1126" data-name="Path 1126" class="cls-24" d="M394.778,236.4c1.079,6.845-5.041,7.385-5.041,7.385s-27.557.539-30.8-.181-7.566,1.26-7.566,1.26c-5.585-3.423-1.079-11.886-1.079-11.886s11.528-.358,14.23-.884,16.388-1.274,16.388-1.274-1.079-6.664-8.287-23.591c-4.9-11.5-1.327-18.262,1.49-21.415a11.859,11.859,0,0,1,2.472-2.176l22.154,1.079a28.733,28.733,0,0,0,.124,3.347,35.65,35.65,0,0,0,2.941,11.055c-1.26,0-9.366,7.566-9.366,7.566S393.695,229.563,394.778,236.4Z" transform="translate(-55.318 -52.727)"/>
      <path id="Path_1127" data-name="Path 1127" class="cls-7" d="M351.912,233.7s11.528-.358,14.23-.884,16.388-1.26,16.388-1.26-1.079-6.664-8.287-23.591c-4.9-11.5-1.327-18.262,1.49-21.415a11.859,11.859,0,0,1,2.472-2.176l20.526,1v-.641l-22.154-1.079a11.86,11.86,0,0,0-2.472,2.176c-2.8,3.157-6.385,9.918-1.49,21.415,7.225,16.914,8.3,23.578,8.3,23.578s-13.708.721-16.388,1.26-14.23.884-14.23.884-4.5,8.468,1.079,11.9c0,0,.168-.08.442-.195C348.1,240.861,351.912,233.7,351.912,233.7Z" transform="translate(-55.318 -52.727)"/>
      <rect id="Rectangle_222" data-name="Rectangle 222" class="cls-22" width="11.165" height="28.274" transform="translate(318.385 64.812)"/>
      <rect id="Rectangle_223" data-name="Rectangle 223" class="cls-7" width="11.165" height="28.274" transform="translate(318.385 64.812)"/>
      <path id="Path_1128" data-name="Path 1128" class="cls-22" d="M391.254,113.391c.385.106.818.119,1.079.65a3.979,3.979,0,0,1,.261,1.327l.7,8.738a4.864,4.864,0,0,0,.327,1.671c.3.593.787.663,1.172,1.044.774.769,1,2.7.787,4.267a28.032,28.032,0,0,1-1.167,4.333,40.8,40.8,0,0,1-1.844,6.036c-.845,1.716-2.379,2.653-3.369,1.212s-.858-4.351-1.044-6.735c-.31-3.98-1.862-7.411-1.968-11.417-.088-3.241.783-6.266,1.327-9.339.389-2.109.411-4.67.977-6.567C388.968,110.866,389.87,113.01,391.254,113.391Z" transform="translate(-55.318 -52.727)"/>
      <path id="Path_1129" data-name="Path 1129" class="cls-7" d="M391.254,113.391c.385.106.818.119,1.079.65a3.979,3.979,0,0,1,.261,1.327l.7,8.738a4.864,4.864,0,0,0,.327,1.671c.3.593.787.663,1.172,1.044.774.769,1,2.7.787,4.267a28.032,28.032,0,0,1-1.167,4.333,40.8,40.8,0,0,1-1.844,6.036c-.845,1.716-2.379,2.653-3.369,1.212s-.858-4.351-1.044-6.735c-.31-3.98-1.862-7.411-1.968-11.417-.088-3.241.783-6.266,1.327-9.339.389-2.109.411-4.67.977-6.567C388.968,110.866,389.87,113.01,391.254,113.391Z" transform="translate(-55.318 -52.727)"/>
      <path id="Path_1130" data-name="Path 1130" class="cls-25" d="M343.988,100.97l-4.32,3.6s-.513-.6-1.278-1.574c-3-3.834-9.905-13.451-5.028-15.172s8.733,7.659,10.1,11.532C343.8,100.342,343.988,100.97,343.988,100.97Z" transform="translate(-55.318 -52.727)"/>
      <path id="Path_1131" data-name="Path 1131" class="cls-25" d="M421.973,99.709c-1.8,2.7-4.32,0-4.32,0s-.323-.482-.778-1.26c-1.481-2.507-4.387-8.066-2.463-10.268,2.211-2.516,7.69,6.071,7.858,10.1A2.4,2.4,0,0,1,421.973,99.709Z" transform="translate(-55.318 -52.727)"/>
      <path id="Path_1132" data-name="Path 1132" class="cls-25" d="M377.665,128.885s3.6,11.528,2.52,14.946,7.747,7.4,7.747,7.4h10.086s3.6-7.385,2.7-9.547-8.645-3.781-8.645-3.781-4.5,0-4.32-12.067Z" transform="translate(-55.318 -52.727)"/>
      <path id="Path_1133" data-name="Path 1133" class="cls-7" d="M343.988,100.97l-4.32,3.6s-.513-.6-1.278-1.574c1.57-.279,4.006-2.569,5.072-3.639C343.8,100.342,343.988,100.97,343.988,100.97Z" transform="translate(-55.318 -52.727)"/>
      <path id="Path_1134" data-name="Path 1134" class="cls-7" d="M421.973,99.709c-1.8,2.7-4.32,0-4.32,0s-.323-.482-.778-1.26l.057-.181c1.167.836,4.8.124,5.337,0a2.4,2.4,0,0,1-.3,1.442Z" transform="translate(-55.318 -52.727)"/>
      <path id="Path_1135" data-name="Path 1135" class="cls-7" d="M398.855,188.063c-5.572,2.543-23.675-1.985-24.763-2.255a11.86,11.86,0,0,1,2.472-2.176l22.154,1.079a28.746,28.746,0,0,0,.137,3.352Z" transform="translate(-55.318 -52.727)"/>
      <path id="Path_1136" data-name="Path 1136" class="cls-26" d="M380.009,138.79s-4.32,1.442-10.445-4.143c0,0-13.708-13.509-14.592-16.75L344.36,99.325s-4.5,4.864-6.306,4.143L349.94,124.18s2.162,3.98,4.143,5.041c0,0,14.769,18.912,14.946,22.693s6.655,13.907,6.655,13.907,2.162,16.388-1.623,19.271c0,0,21.07,5.4,25.572,1.8,0,0-1.981-20.341,0-22.512,0,0,6.124-7.2,1.981-15.127,0,0-.884-4.32,1.442-6.482s12.788-18.192,12.788-18.192,2.521-3.6,2.521-5.943c0,0,4.683-15.848,3.98-19.991,0,0-4.143.884-5.4,0,0,0-6.124,18.572-6.845,19.271s-5.748,15.309-12.426,16.931-7.743,2.339-7.743,2.339,12.965,8.105,6.664,11.7S380.009,138.79,380.009,138.79Z" transform="translate(-55.318 -52.727)"/>
      <path id="Path_1137" data-name="Path 1137" class="cls-7" d="M388.194,131.658a34.414,34.414,0,0,1-.261-5.116l-10.086,3.06a13.6,13.6,0,0,1,.632,2.069c1.154.509,2.711,1.711,4.05,1.711a9.184,9.184,0,0,0,5.664-1.725Z" transform="translate(-55.318 -52.727)"/>
      <circle id="Ellipse_168" data-name="Ellipse 168" class="cls-25" cx="9.366" cy="9.366" r="9.366" transform="translate(317.665 61.389)"/>
      <path id="Path_1138" data-name="Path 1138" class="cls-7" d="M371.2,109.053c-2.061.159-4.36,1.583-4.245,3.648.062,1.136.84,2.1,1.181,3.184.818,2.631-1,5.271-2.6,7.517s-3.1,5.222-1.725,7.6a18.746,18.746,0,0,0,1.265,1.649c1.694,2.286,1.671,5.373,2.423,8.119a14.243,14.243,0,0,0,16.732,10.17,8.906,8.906,0,0,1-1.879-6.023c.1-1.574.61-3.219,0-4.674-.787-1.87-3.1-2.609-4.285-4.245s-1.11-3.9-.535-5.855,1.57-3.759,2.047-5.748a17.31,17.31,0,0,1,.442-1.72c.831-2.361,3.316-3.732,5.748-4.32s4.988-.623,7.362-1.4,4.683-2.587,4.957-5.076c-2,.8-3.852-1.287-5.779-2.246-3.175-1.574-6.8-.093-10.069.27C378.514,110.322,374.977,108.779,371.2,109.053Z" transform="translate(-55.318 -52.727)"/>
      <path id="Path_1139" data-name="Path 1139" class="cls-22" d="M371.024,108.695c-2.061.159-4.36,1.583-4.245,3.648.062,1.136.84,2.1,1.181,3.184.818,2.631-1,5.271-2.6,7.517s-3.1,5.222-1.725,7.6a18.742,18.742,0,0,0,1.265,1.649c1.694,2.286,1.672,5.373,2.423,8.119a14.243,14.243,0,0,0,16.732,10.17,8.906,8.906,0,0,1-1.879-6.023c.1-1.574.61-3.219,0-4.674-.787-1.87-3.1-2.609-4.285-4.245s-1.11-3.9-.535-5.855,1.57-3.759,2.047-5.748a17.31,17.31,0,0,1,.442-1.72c.831-2.361,3.316-3.732,5.748-4.32s4.988-.623,7.362-1.4,4.683-2.587,4.957-5.076c-2,.8-3.851-1.287-5.779-2.246-3.175-1.574-6.8-.093-10.069.27C378.342,109.959,374.818,108.4,371.024,108.695Z" transform="translate(-55.318 -52.727)"/>
      <path id="Path_1140" data-name="Path 1140" class="cls-7" d="M391.625,144.286s3.75,3.347,4.488,4.824" transform="translate(-55.318 -52.727)"/>
      <path id="Path_1141" data-name="Path 1141" class="cls-7" d="M399.739,164.278a40.33,40.33,0,0,0-6.845.539c-2.162.539-7.385,0-7.385,0" transform="translate(-55.318 -52.727)"/>
      <g id="Group_61" data-name="Group 61" class="cls-9">
        <path id="Path_1142" data-name="Path 1142" d="M396.578,148.876a4.5,4.5,0,0,1-1.3.5,4.953,4.953,0,0,0,3.458-.5c6.306-3.6-6.664-11.7-6.664-11.7h-2.162S402.883,145.277,396.578,148.876Z" transform="translate(-55.318 -52.727)"/>
        <path id="Path_1143" data-name="Path 1143" d="M422.375,98.958a1.884,1.884,0,0,0-.044-.327,21.159,21.159,0,0,1-2.242.34,9.932,9.932,0,0,0,2.286-.013Z" transform="translate(-55.318 -52.727)"/>
        <path id="Path_1144" data-name="Path 1144" d="M376.228,185.078c3.781-2.883,1.623-19.271,1.623-19.271s-6.482-10.086-6.664-13.867-14.946-22.693-14.946-22.693c-1.981-1.079-4.143-5.041-4.143-5.041s-12.249-19.991-14.048-20.712l11.886,20.712s2.162,3.98,4.143,5.041c0,0,14.769,18.912,14.946,22.693s6.659,13.88,6.659,13.88,2.162,16.388-1.623,19.271c0,0,12.952,3.321,20.717,3.02C387,187.838,376.228,185.078,376.228,185.078Z" transform="translate(-55.318 -52.727)"/>
        <path id="Path_1145" data-name="Path 1145" d="M380.115,138.932l-.106-.137a2.847,2.847,0,0,1-.376.084C379.8,138.9,379.96,138.918,380.115,138.932Z" transform="translate(-55.318 -52.727)"/>
      </g>
      <g id="Group_62" data-name="Group 62" class="cls-9">
        <path id="Path_1146" data-name="Path 1146" d="M422.331,98.608l-.111.022c-.19,5.532-4.028,18.528-4.028,18.528,0,2.339-2.52,5.943-2.52,5.943s-10.445,16.029-12.788,18.192-1.442,6.482-1.442,6.482l.022.044c-.071-1.455.106-3.71,1.6-5.09,2.339-2.162,12.788-18.192,12.788-18.192s2.521-3.6,2.521-5.943C418.369,118.622,423.052,102.774,422.331,98.608Z" transform="translate(-55.318 -52.727)"/>
        <path id="Path_1147" data-name="Path 1147" d="M399.461,162.925c.27,1.53.088-.088.181,1.442,0,0,4.422-5.187,3.215-11.6A15.768,15.768,0,0,1,399.461,162.925Z" transform="translate(-55.318 -52.727)"/>
      </g>
      <ellipse id="Ellipse_169" data-name="Ellipse 169" class="cls-4" cx="189.111" cy="18.165" rx="189.111" ry="18.165" transform="translate(18.625 256.187)"/>
      <path id="Path_1148" data-name="Path 1148" class="cls-27" d="M189.748,308.648s-6.438-21.866,1.207-37.958a34.535,34.535,0,0,0,2.795-21.667,58.081,58.081,0,0,0-3.069-10.17" transform="translate(-55.318 -52.727)"/>
      <path id="Path_1149" data-name="Path 1149" class="cls-3" d="M195.448,228.692c0,2.68-4.864,10.449-4.864,10.449s-4.864-7.769-4.864-10.449a4.864,4.864,0,1,1,9.7,0Z" transform="translate(-55.318 -52.727)"/>
      <path id="Path_1150" data-name="Path 1150" class="cls-3" d="M203.456,243.531c-1.455,2.251-9.75,6.133-9.75,6.133s.15-9.158,1.605-11.408a4.864,4.864,0,1,1,8.145,5.275Z" transform="translate(-55.318 -52.727)"/>
      <path id="Path_1151" data-name="Path 1151" class="cls-3" d="M203.107,268.9c-2.392,1.207-11.5.371-11.5.371s4.754-7.831,7.146-9.038a4.864,4.864,0,1,1,4.369,8.663Z" transform="translate(-55.318 -52.727)"/>
      <path id="Path_1152" data-name="Path 1152" class="cls-3" d="M198.521,288.029c-2.153,1.592-11.289,2.313-11.289,2.313s3.361-8.521,5.519-10.117a4.864,4.864,0,0,1,5.748,7.8Z" transform="translate(-55.318 -52.727)"/>
      <path id="Path_1153" data-name="Path 1153" class="cls-3" d="M183.509,250.186c1.924,1.866,10.878,3.8,10.878,3.8s-2.211-8.892-4.117-10.763a4.864,4.864,0,1,0-6.761,6.96Z" transform="translate(-55.318 -52.727)"/>
      <path id="Path_1154" data-name="Path 1154" class="cls-3" d="M178.437,272.632c2.392,1.207,11.5.371,11.5.371s-4.736-7.831-7.128-9.016a4.864,4.864,0,0,0-4.369,8.663Z" transform="translate(-55.318 -52.727)"/>
      <path id="Path_1155" data-name="Path 1155" class="cls-3" d="M176.491,295.122c2.153,1.592,11.289,2.313,11.289,2.313s-3.361-8.521-5.519-10.117a4.864,4.864,0,1,0-5.748,7.8Z" transform="translate(-55.318 -52.727)"/>
      <path id="Path_1156" data-name="Path 1156" class="cls-4" d="M195.448,228.692c0,2.68-4.864,10.449-4.864,10.449s-4.864-7.769-4.864-10.449a4.864,4.864,0,1,1,9.7,0Z" transform="translate(-55.318 -52.727)"/>
      <path id="Path_1157" data-name="Path 1157" class="cls-4" d="M203.456,243.531c-1.455,2.251-9.75,6.133-9.75,6.133s.15-9.158,1.605-11.408a4.864,4.864,0,1,1,8.145,5.275Z" transform="translate(-55.318 -52.727)"/>
      <path id="Path_1158" data-name="Path 1158" class="cls-4" d="M203.107,268.9c-2.392,1.207-11.5.371-11.5.371s4.754-7.831,7.146-9.038a4.864,4.864,0,1,1,4.369,8.663Z" transform="translate(-55.318 -52.727)"/>
      <path id="Path_1159" data-name="Path 1159" class="cls-4" d="M198.521,288.029c-2.153,1.592-11.289,2.313-11.289,2.313s3.361-8.521,5.519-10.117a4.864,4.864,0,0,1,5.748,7.8Z" transform="translate(-55.318 -52.727)"/>
      <path id="Path_1160" data-name="Path 1160" class="cls-4" d="M183.509,250.186c1.924,1.866,10.878,3.8,10.878,3.8s-2.211-8.892-4.117-10.763a4.864,4.864,0,1,0-6.761,6.96Z" transform="translate(-55.318 -52.727)"/>
      <path id="Path_1161" data-name="Path 1161" class="cls-4" d="M178.437,272.632c2.392,1.207,11.5.371,11.5.371s-4.736-7.831-7.128-9.016a4.864,4.864,0,0,0-4.369,8.663Z" transform="translate(-55.318 -52.727)"/>
      <path id="Path_1162" data-name="Path 1162" class="cls-4" d="M176.491,295.122c2.153,1.592,11.289,2.313,11.289,2.313s-3.361-8.521-5.519-10.117a4.864,4.864,0,1,0-5.748,7.8Z" transform="translate(-55.318 -52.727)"/>
      <path id="Path_1163" data-name="Path 1163" class="cls-27" d="M320.035,308.962S313.6,287.1,321.242,271a34.535,34.535,0,0,0,2.795-21.667,58.079,58.079,0,0,0-3.069-10.17" transform="translate(-55.318 -52.727)"/>
      <path id="Path_1164" data-name="Path 1164" class="cls-3" d="M325.726,229c0,2.68-4.864,10.449-4.864,10.449S316,231.681,316,229a4.864,4.864,0,0,1,9.7,0Z" transform="translate(-55.318 -52.727)"/>
      <path id="Path_1165" data-name="Path 1165" class="cls-3" d="M333.747,243.841c-1.455,2.251-9.75,6.133-9.75,6.133s.15-9.158,1.605-11.408a4.864,4.864,0,1,1,8.145,5.275Z" transform="translate(-55.318 -52.727)"/>
      <path id="Path_1166" data-name="Path 1166" class="cls-3" d="M333.411,269.209c-2.392,1.207-11.5.371-11.5.371s4.754-7.831,7.146-9.038a4.864,4.864,0,1,1,4.351,8.667Z" transform="translate(-55.318 -52.727)"/>
      <path id="Path_1167" data-name="Path 1167" class="cls-3" d="M328.808,288.339c-2.153,1.592-11.289,2.313-11.289,2.313s3.361-8.521,5.519-10.117a4.864,4.864,0,0,1,5.748,7.8Z" transform="translate(-55.318 -52.727)"/>
      <path id="Path_1168" data-name="Path 1168" class="cls-3" d="M313.8,250.5c1.924,1.866,10.878,3.8,10.878,3.8s-2.211-8.892-4.117-10.763a4.864,4.864,0,1,0-6.761,6.96Z" transform="translate(-55.318 -52.727)"/>
      <path id="Path_1169" data-name="Path 1169" class="cls-3" d="M308.723,272.942c2.392,1.207,11.5.371,11.5.371s-4.754-7.831-7.146-9.038a4.864,4.864,0,0,0-4.369,8.663Z" transform="translate(-55.318 -52.727)"/>
      <path id="Path_1170" data-name="Path 1170" class="cls-3" d="M306.782,295.431c2.153,1.592,11.289,2.313,11.289,2.313s-3.361-8.521-5.519-10.117a4.864,4.864,0,0,0-5.748,7.8Z" transform="translate(-55.318 -52.727)"/>
      <path id="Path_1171" data-name="Path 1171" class="cls-4" d="M325.726,229c0,2.68-4.864,10.449-4.864,10.449S316,231.681,316,229a4.864,4.864,0,0,1,9.7,0Z" transform="translate(-55.318 -52.727)"/>
      <path id="Path_1172" data-name="Path 1172" class="cls-4" d="M333.747,243.841c-1.455,2.251-9.75,6.133-9.75,6.133s.15-9.158,1.605-11.408a4.864,4.864,0,1,1,8.145,5.275Z" transform="translate(-55.318 -52.727)"/>
      <path id="Path_1173" data-name="Path 1173" class="cls-4" d="M333.411,269.209c-2.392,1.207-11.5.371-11.5.371s4.754-7.831,7.146-9.038a4.864,4.864,0,1,1,4.351,8.667Z" transform="translate(-55.318 -52.727)"/>
      <path id="Path_1174" data-name="Path 1174" class="cls-4" d="M328.808,288.339c-2.153,1.592-11.289,2.313-11.289,2.313s3.361-8.521,5.519-10.117a4.864,4.864,0,0,1,5.748,7.8Z" transform="translate(-55.318 -52.727)"/>
      <path id="Path_1175" data-name="Path 1175" class="cls-4" d="M313.8,250.5c1.924,1.866,10.878,3.8,10.878,3.8s-2.211-8.892-4.117-10.763a4.864,4.864,0,1,0-6.761,6.96Z" transform="translate(-55.318 -52.727)"/>
      <path id="Path_1176" data-name="Path 1176" class="cls-4" d="M308.723,272.942c2.392,1.207,11.5.371,11.5.371s-4.754-7.831-7.146-9.038a4.864,4.864,0,0,0-4.369,8.663Z" transform="translate(-55.318 -52.727)"/>
      <path id="Path_1177" data-name="Path 1177" class="cls-4" d="M306.782,295.431c2.153,1.592,11.289,2.313,11.289,2.313s-3.361-8.521-5.519-10.117a4.864,4.864,0,0,0-5.748,7.8Z" transform="translate(-55.318 -52.727)"/>
      <path id="Path_1178" data-name="Path 1178" class="cls-28" d="M351.541,59.5h-2.777a1.946,1.946,0,1,0,0-3.887H326.247a1.946,1.946,0,0,0,0,3.887h2.777a1.946,1.946,0,0,0,0,3.887h-3.887a1.946,1.946,0,1,0,0,3.887h22.5a1.946,1.946,0,1,0,0-3.887h3.9a1.946,1.946,0,0,0,0-3.887Z" transform="translate(-55.318 -52.727)"/>
      <path id="Path_1179" data-name="Path 1179" class="cls-28" d="M221.44,70.834h-2.114a1.481,1.481,0,1,0,0-2.958H202.2a1.481,1.481,0,0,0,0,2.958h2.114a1.481,1.481,0,1,0,0,2.958H201.36a1.481,1.481,0,1,0,0,2.958h17.122a1.481,1.481,0,1,0,0-2.958h2.958a1.481,1.481,0,0,0,0-2.958Z" transform="translate(-55.318 -52.727)"/>
      <path id="Path_1180" data-name="Path 1180" class="cls-29" d="M77.728,280.348s7.738,15.189,1.433,23.5.575,30.953.575,30.953" transform="translate(-55.318 -52.727)"/>
      <path id="Path_1181" data-name="Path 1181" class="cls-3" d="M80.036,275.6a8.95,8.95,0,0,1-2.149,5.306,7.625,7.625,0,0,1,0-10.613A8.95,8.95,0,0,1,80.036,275.6Z" transform="translate(-55.318 -52.727)"/>
      <path id="Path_1182" data-name="Path 1182" class="cls-29" d="M81.739,280.348s-7.738,15.189-1.433,23.5-.575,30.953-.575,30.953" transform="translate(-55.318 -52.727)"/>
      <path id="Path_1183" data-name="Path 1183" class="cls-3" d="M79.448,275.6a8.95,8.95,0,0,0,2.149,5.306,7.625,7.625,0,0,0,0-10.613A8.95,8.95,0,0,0,79.448,275.6Z" transform="translate(-55.318 -52.727)"/>
      <path id="Path_1184" data-name="Path 1184" class="cls-7" d="M79.448,275.6a8.95,8.95,0,0,0,2.149,5.306,7.625,7.625,0,0,0,0-10.613A8.95,8.95,0,0,0,79.448,275.6Z" transform="translate(-55.318 -52.727)"/>
      <path id="Path_1185" data-name="Path 1185" class="cls-29" d="M84.9,280.348s7.738,15.189,1.433,23.5.575,30.953.575,30.953" transform="translate(-55.318 -52.727)"/>
      <path id="Path_1186" data-name="Path 1186" class="cls-3" d="M87.187,275.6a8.95,8.95,0,0,1-2.149,5.306,7.625,7.625,0,0,1,0-10.613A8.95,8.95,0,0,1,87.187,275.6Z" transform="translate(-55.318 -52.727)"/>
      <path id="Path_1187" data-name="Path 1187" class="cls-3" d="M85.979,287.768a8.934,8.934,0,0,1-5.227,2.33,7.613,7.613,0,0,1,7.354-7.637A9.028,9.028,0,0,1,85.979,287.768Z" transform="translate(-55.318 -52.727)"/>
      <path id="Path_1188" data-name="Path 1188" class="cls-3" d="M86.183,298.248a8.934,8.934,0,0,1-5.227,2.33,7.613,7.613,0,0,1,7.354-7.637A8.928,8.928,0,0,1,86.183,298.248Z" transform="translate(-55.318 -52.727)"/>
      <path id="Path_1189" data-name="Path 1189" class="cls-3" d="M75.172,304.01a8.93,8.93,0,0,1,1.853,5.412,7.616,7.616,0,0,1-6.951-8.008A8.931,8.931,0,0,1,75.172,304.01Z" transform="translate(-55.318 -52.727)"/>
      <path id="Path_1190" data-name="Path 1190" class="cls-3" d="M76.941,281.675a8.932,8.932,0,0,1,3.232,4.723,8.917,8.917,0,0,1-5.607-1.136,8.932,8.932,0,0,1-3.232-4.723A8.842,8.842,0,0,1,76.941,281.675Z" transform="translate(-55.318 -52.727)"/>
      <path id="Path_1191" data-name="Path 1191" class="cls-7" d="M76.941,281.675a8.932,8.932,0,0,1,3.232,4.723,8.917,8.917,0,0,1-5.607-1.136,8.932,8.932,0,0,1-3.232-4.723A8.842,8.842,0,0,1,76.941,281.675Z" transform="translate(-55.318 -52.727)"/>
      <path id="Path_1192" data-name="Path 1192" class="cls-29" d="M88.9,280.348s-7.738,15.189-1.433,23.5-.575,30.953-.575,30.953" transform="translate(-55.318 -52.727)"/>
      <path id="Path_1193" data-name="Path 1193" class="cls-3" d="M86.612,275.6a8.95,8.95,0,0,0,2.149,5.306,7.625,7.625,0,0,0,0-10.613A8.95,8.95,0,0,0,86.612,275.6Z" transform="translate(-55.318 -52.727)"/>
      <path id="Path_1194" data-name="Path 1194" class="cls-7" d="M86.612,275.6a8.95,8.95,0,0,0,2.149,5.306,7.625,7.625,0,0,0,0-10.613A8.95,8.95,0,0,0,86.612,275.6Z" transform="translate(-55.318 -52.727)"/>
      <path id="Path_1195" data-name="Path 1195" class="cls-3" d="M87.231,287.994A9.056,9.056,0,0,0,85.02,293.3a8.922,8.922,0,0,0,5.253-2.268,9.056,9.056,0,0,0,2.211-5.306A8.923,8.923,0,0,0,87.231,287.994Z" transform="translate(-55.318 -52.727)"/>
      <path id="Path_1196" data-name="Path 1196" class="cls-7" d="M87.231,287.994A9.056,9.056,0,0,0,85.02,293.3a8.922,8.922,0,0,0,5.253-2.268,9.056,9.056,0,0,0,2.211-5.306A8.923,8.923,0,0,0,87.231,287.994Z" transform="translate(-55.318 -52.727)"/>
      <path id="Path_1197" data-name="Path 1197" class="cls-3" d="M91.259,302.5a9.056,9.056,0,0,0-2.211,5.306A8.922,8.922,0,0,0,94.3,305.54a9.056,9.056,0,0,0,2.211-5.306A8.893,8.893,0,0,0,91.259,302.5Z" transform="translate(-55.318 -52.727)"/>
      <path id="Path_1198" data-name="Path 1198" class="cls-29" d="M85.343,299.314s4.656-7.34,11.2-7.517" transform="translate(-55.318 -52.727)"/>
      <path id="Path_1199" data-name="Path 1199" class="cls-29" d="M81.7,294.879s-4.656-7.34-11.2-7.517" transform="translate(-55.318 -52.727)"/>
      <path id="Path_1200" data-name="Path 1200" class="cls-29" d="M81.1,305.358s4.656-7.34,11.2-7.517" transform="translate(-55.318 -52.727)"/>
      <circle id="Ellipse_170" data-name="Ellipse 170" class="cls-3" cx="1.207" cy="1.207" r="1.207" transform="translate(39.788 237.823)"/>
      <circle id="Ellipse_171" data-name="Ellipse 171" class="cls-3" cx="1.207" cy="1.207" r="1.207" transform="translate(14.097 233.489)"/>
      <path id="Path_1201" data-name="Path 1201" class="cls-29" d="M84.525,307.764s-4.656-7.34-11.2-7.517" transform="translate(-55.318 -52.727)"/>
      <circle id="Ellipse_172" data-name="Ellipse 172" class="cls-3" cx="1.207" cy="1.207" r="1.207" transform="translate(16.918 246.384)"/>
      <circle id="Ellipse_173" data-name="Ellipse 173" class="cls-3" cx="1.207" cy="1.207" r="1.207" transform="translate(35.857 243.969)"/>
      <path id="Path_1202" data-name="Path 1202" class="cls-30" d="M110.273,325.96s-11.223-2.246-14.221-5.24-16.458-8.229-17.957-4.488-20.2,16.463-7.482,18.709,29.932,2.994,33.673,1.495S110.273,325.96,110.273,325.96Z" transform="translate(-55.318 -52.727)"/>
      <path id="Path_1203" data-name="Path 1203" class="cls-31" d="M70.613,333.548c12.722,2.246,29.932,2.994,33.673,1.495,2.848-1.141,4.829-6.633,5.611-9.162l.376.08s-2.246,8.981-5.987,10.475-20.951.747-33.673-1.495c-3.67-.65-4.723-2.171-4.325-4.095C66.6,332.084,67.881,333.066,70.613,333.548Z" transform="translate(-55.318 -52.727)"/>
      <path id="Path_1204" data-name="Path 1204" class="cls-3" d="M451,283.788s3.706,4.864-1.711,12.16S439.408,309.44,441.217,314c0,0,8.172-13.588,14.822-13.779S458.321,291.956,451,283.788Z" transform="translate(-55.318 -52.727)"/>
      <path id="Path_1205" data-name="Path 1205" class="cls-7" d="M451,283.788a6,6,0,0,1,.756,1.521c6.491,7.623,9.945,14.738,3.71,14.919-5.81.168-12.779,10.555-14.451,13.182a5.639,5.639,0,0,0,.2.6s8.172-13.588,14.822-13.779S458.321,291.956,451,283.788Z" transform="translate(-55.318 -52.727)"/>
      <path id="Path_1206" data-name="Path 1206" class="cls-32" d="M457.892,289.961c0,1.707-.19,3.1-.442,3.1s-.442-1.384-.442-3.1.239-.884.473-.884S457.892,288.259,457.892,289.961Z" transform="translate(-55.318 -52.727)"/>
      <path id="Path_1207" data-name="Path 1207" class="cls-32" d="M460.257,292c-1.5.818-2.8,1.327-2.914,1.1s1.008-1.039,2.507-1.853.907-.221,1.021,0S461.752,291.182,460.257,292Z" transform="translate(-55.318 -52.727)"/>
      <path id="Path_1208" data-name="Path 1208" class="cls-3" d="M431.431,283.788s-3.706,4.864,1.711,12.16,9.883,13.491,8.074,18.055c0,0-8.172-13.588-14.822-13.779S424.113,291.956,431.431,283.788Z" transform="translate(-55.318 -52.727)"/>
      <path id="Path_1209" data-name="Path 1209" class="cls-7" d="M431.431,283.788a6,6,0,0,0-.756,1.521c-6.491,7.623-9.945,14.738-3.71,14.919,5.81.168,12.779,10.555,14.451,13.182a5.632,5.632,0,0,1-.2.6s-8.172-13.588-14.822-13.779S424.113,291.956,431.431,283.788Z" transform="translate(-55.318 -52.727)"/>
      <path id="Path_1210" data-name="Path 1210" class="cls-32" d="M424.542,289.961c0,1.707.19,3.1.442,3.1s.442-1.384.442-3.1-.239-.884-.473-.884S424.542,288.259,424.542,289.961Z" transform="translate(-55.318 -52.727)"/>
      <path id="Path_1211" data-name="Path 1211" class="cls-32" d="M422.176,292c1.5.818,2.8,1.327,2.914,1.1s-1.008-1.039-2.507-1.853-.906-.221-1.021,0S420.677,291.182,422.176,292Z" transform="translate(-55.318 -52.727)"/>
      <path id="Path_1212" data-name="Path 1212" class="cls-30" d="M425.722,313.366s10.361-.318,13.482-2.543,15.919-4.864,16.71-1.327,15.569,17.736,3.874,17.829-27.177-1.822-30.294-3.719S425.722,313.366,425.722,313.366Z" transform="translate(-55.318 -52.727)"/>
      <path id="Path_1213" data-name="Path 1213" class="cls-31" d="M460,326.1c-11.7.093-27.177-1.822-30.294-3.719-2.375-1.446-3.321-6.633-3.635-9.025h-.345s.654,8.357,3.772,10.254,18.6,3.816,30.294,3.719c3.378-.027,4.541-1.229,4.479-3.007C463.8,325.407,462.53,326.079,460,326.1Z" transform="translate(-55.318 -52.727)"/>
      <path id="Path_1214" data-name="Path 1214" class="cls-28" d="M133.957,85.732H131.18a1.946,1.946,0,1,0,0-3.887h-22.5a1.946,1.946,0,0,0,0,3.887h2.777a1.946,1.946,0,0,0,0,3.887h-3.887a1.946,1.946,0,0,0,0,3.887h22.5a1.946,1.946,0,1,0,0-3.887h3.887a1.946,1.946,0,0,0,0-3.887Z" transform="translate(-55.318 -52.727)"/>
    </g>
  </g>
</svg>
