<svg xmlns="http://www.w3.org/2000/svg" xmlns:xlink="http://www.w3.org/1999/xlink" width="420" height="330" viewBox="0 0 420 330">
  <defs>
    <style>
      .cls-1, .cls-13 {
        fill: #fff;
      }

      .cls-1 {
        stroke: #707070;
      }

      .cls-2 {
        clip-path: url(#clip-path);
      }

      .cls-3 {
        fill: #3f3d56;
      }

      .cls-4 {
        opacity: 0.1;
      }

      .cls-5, .cls-9 {
        fill: #6c63ff;
      }

      .cls-6 {
        fill: #a8a8a8;
      }

      .cls-7 {
        opacity: 0.2;
      }

      .cls-8 {
        fill: #f2f2f2;
      }

      .cls-9 {
        opacity: 0.3;
      }

      .cls-10 {
        fill: #a0616a;
      }

      .cls-11 {
        fill: #575a89;
      }

      .cls-12 {
        fill: #2f2e41;
      }
    </style>
    <clipPath id="clip-path">
      <rect id="Rectangle_181" data-name="Rectangle 181" class="cls-1" width="420" height="330" transform="translate(90 5264)"/>
    </clipPath>
  </defs>
  <g id="flat2" class="cls-2" transform="translate(-90 -5264)">
    <g id="_2.done" data-name="2.done" transform="translate(90 5285.695)">
      <path id="Path_800" data-name="Path 800" class="cls-3" d="M168.329,294.271c0,7.468-35.022,13.525-78.225,13.525S11.88,301.738,11.88,294.271c0-1.868,2.186-3.644,6.141-5.26,11.514-4.712,38.027-8.06,69.189-8.254q1.442-.011,2.9-.011C133.307,280.746,168.329,286.8,168.329,294.271Z" transform="translate(-9.321 -21.187)"/>
      <path id="Path_801" data-name="Path 801" class="cls-4" d="M87.209,280.757a44.411,44.411,0,0,1-69.189,8.254C29.535,284.3,56.048,280.95,87.209,280.757Z" transform="translate(-9.321 -21.187)"/>
      <ellipse id="Ellipse_106" data-name="Ellipse 106" class="cls-3" cx="40.94" cy="43.864" rx="40.94" ry="43.864" transform="translate(0 185.721)"/>
      <path id="Path_802" data-name="Path 802" class="cls-3" d="M100.5,51.649c5.8,22.362,24.531,36.816,41.868,32.316" transform="translate(-9.321 -21.187)"/>
      <path id="Path_803" data-name="Path 803" class="cls-5" d="M142.363,83.965c-5.87-22.614,5.036-44.976,24.383-50" transform="translate(-9.321 -21.187)"/>
      <path id="Path_804" data-name="Path 804" class="cls-5" d="M112.386,50.726c5.514,21.242,18.921,36.108,29.977,33.238" transform="translate(-9.321 -21.187)"/>
      <path id="Path_805" data-name="Path 805" class="cls-3" d="M142.363,83.965c-7.5-28.9,4.526-56.973,26.888-62.778" transform="translate(-9.321 -21.187)"/>
      <path id="Path_806" data-name="Path 806" class="cls-6" d="M135.839,85.963s4.413-1.292,5.505-2.594,6.3-3.871,7.029-2.426,8.661,5.879,3.65,7.223-11.872,2.247-13.422,1.779S135.839,85.963,135.839,85.963Z" transform="translate(-9.321 -21.187)"/>
      <path id="Path_807" data-name="Path 807" class="cls-7" d="M151.974,87.61c-5.011,1.344-11.872,2.247-13.421,1.779-1.18-.356-2.164-2.478-2.567-3.47l-.147.044s1.213,3.514,2.763,3.982,8.41-.435,13.422-1.779c1.447-.388,1.813-1.034,1.588-1.79C153.529,86.889,153.051,87.321,151.974,87.61Z" transform="translate(-9.321 -21.187)"/>
      <rect id="Rectangle_182" data-name="Rectangle 182" class="cls-8" width="294.621" height="170.705" transform="translate(125.379 46.086)"/>
      <rect id="Rectangle_183" data-name="Rectangle 183" class="cls-9" width="161.567" height="84.621" transform="translate(132.324 97.901)"/>
      <rect id="Rectangle_184" data-name="Rectangle 184" class="cls-3" width="64.802" height="3.585" transform="translate(306.319 94.212)"/>
      <rect id="Rectangle_185" data-name="Rectangle 185" class="cls-3" width="94.308" height="3.585" transform="translate(306.319 100.83)"/>
      <rect id="Rectangle_186" data-name="Rectangle 186" class="cls-3" width="64.802" height="3.585" transform="translate(306.319 116.824)"/>
      <rect id="Rectangle_187" data-name="Rectangle 187" class="cls-3" width="64.802" height="3.585" transform="translate(306.319 143.296)"/>
      <rect id="Rectangle_188" data-name="Rectangle 188" class="cls-3" width="94.308" height="3.585" transform="translate(306.319 123.442)"/>
      <rect id="Rectangle_189" data-name="Rectangle 189" class="cls-3" width="94.308" height="3.585" transform="translate(306.319 130.06)"/>
      <rect id="Rectangle_190" data-name="Rectangle 190" class="cls-3" width="94.308" height="3.585" transform="translate(306.319 136.678)"/>
      <rect id="Rectangle_191" data-name="Rectangle 191" class="cls-5" width="33.918" height="9.376" transform="translate(306.319 159.29)"/>
      <path id="Path_808" data-name="Path 808" class="cls-10" d="M124.278,170.293s6.089-17.251,10.486-11.839S128,173,128,173Z" transform="translate(-9.321 -21.187)"/>
      <path id="Path_809" data-name="Path 809" class="cls-11" d="M95.525,153.38l3.663,1.357s1.749,7.776,1.073,9.129-1.015.338,0,3.044,4.059,9.81,4.4,10.824,19.619-6.427,19.619-10.148c0,0,4.059,4.736,6.089,5.75,0,0-22.325,16.236-25.369,18.266s-4.736,1.015-7.442-1.353-14.207-21.987-14.207-21.987Z" transform="translate(-9.321 -21.187)"/>
      <path id="Path_810" data-name="Path 810" class="cls-12" d="M105.335,273.463s-.338,3.721-1.015,4.059-5.75,8.795,0,10.486,9.133,1.015,10.486,1.691,25.031,2.03,25.369-1.691-11.5-4.4-11.5-4.4-10.824-7.1-12.516-10.824S105.335,273.463,105.335,273.463Z" transform="translate(-9.321 -21.187)"/>
      <path id="Path_811" data-name="Path 811" class="cls-12" d="M36.668,280.228s-8.118,13.869-6.089,15.56,21.8,7.855,24.693,8.118c3.721.338,6.427-2.706,3.383-4.4s-9.471-8.795-9.471-11.163v-6.089Z" transform="translate(-9.321 -21.187)"/>
      <path id="Path_812" data-name="Path 812" class="cls-12" d="M28.888,189.574s-7.1,8.795,4.059,23l18.6,23.678s-11.5,18.266-11.839,27.737-2.706,7.442-3.383,11.5-3.721,2.03-1.353,5.074,11.163,5.75,13.869,3.383a8.386,8.386,0,0,0,2.706-6.765c0-1.353,4.736-9.133,5.074-11.5s12.854-21.649,12.854-21.649,4.059-11.5-.677-17.928-7.865-15.542-7.865-15.542,13.954,16.9,23.763,20.954c0,0,3.721.677,3.044,2.368s0,2.706,1.015,4.4,8.118,21.31,10.486,26.384,1.353,8.118,4.059,9.81,14.883.338,14.883-1.353-1.691-6.089-2.706-8.457-9.133-29.767-8.457-34.5S106.688,219,101.614,216.3,70.832,191.6,69.479,191.6,28.888,189.574,28.888,189.574Z" transform="translate(-9.321 -21.187)"/>
      <circle id="Ellipse_107" data-name="Ellipse 107" class="cls-10" cx="14.207" cy="14.207" r="14.207" transform="translate(73.35 86.867)"/>
      <path id="Path_813" data-name="Path 813" class="cls-10" d="M85.378,123.613s-4.4,7.78-9.81,8.795,14.207,16.575,14.207,16.575,4.736-14.883,8.795-15.56S85.378,123.613,85.378,123.613Z" transform="translate(-9.321 -21.187)"/>
      <path id="Path_814" data-name="Path 814" class="cls-11" d="M99.246,155.41c0,4.4-13.192,16.913-13.192,16.913L73.538,182.809s-.338,3.721-1.691,4.059-3.044.338-1.691,2.368,4.736,6.427,1.691,7.1a24.863,24.863,0,0,1-2.77.264c-.812.047-1.766.091-2.838.132-2.5.088-5.635.145-9.028.122q-1.446-.005-2.943-.034c-12.79-.254-27.605-1.725-26.394-6.572,2.03-8.118.677-10.824,5.074-15.222s11.5-19.619,11.5-19.619,14.207-24.016,26.046-24.016l2.459-.646a5.631,5.631,0,0,1,6.146,2.361c2.375,3.616,6.119,9.048,8.308,10.8,3.383,2.706,3.91.764,3.91.764S99.246,151.012,99.246,155.41Z" transform="translate(-9.321 -21.187)"/>
      <path id="Path_815" data-name="Path 815" class="cls-10" d="M69.141,206.825s9.81,15.222,3.721,17.928-9.471-15.9-9.471-15.9Z" transform="translate(-9.321 -21.187)"/>
      <path id="Path_816" data-name="Path 816" class="cls-12" d="M87.591,120.656c.545-.069.718-.757.809-1.3.491-2.9,2.654-5.653,5.559-6.122a7.872,7.872,0,0,1,3.312.267,12.568,12.568,0,0,1,4.25,2.092,7.01,7.01,0,0,0,2.124,1.334c.533.157,2.8,1.163,3.325,1.333,1.163.374,2.125,1.591,3.323,1.35,1.146-.231,1.581-1.614,1.765-2.768.42-2.629-1.085-6.552-2.582-8.755a9.285,9.285,0,0,0-4.978-3.259,35.766,35.766,0,0,0-6.9-1.372c-3.16-.373-6.433-.571-9.461.406s-5.786,3.366-6.351,6.5c-.118.652-.14,1.32-.284,1.967-.352,1.578-1.4,2.9-2.005,4.4a8.478,8.478,0,0,0,.259,6.873c.843,1.7,2.31,3.326,1.994,5.194l2.61-2.058a1.9,1.9,0,0,0,.871-2.219l-.379-3.268a2.876,2.876,0,0,1,.169-1.767C86.177,117.459,86.682,120.77,87.591,120.656Z" transform="translate(-9.321 -21.187)"/>
      <path id="Path_817" data-name="Path 817" class="cls-4" d="M63.052,183.486l3.186,13.25c-3.213.115-7.465.176-11.971.088-1.137-3.41-2.222-6.965-3.054-10.293-3.044-12.177,2.03-30.782,4.736-39.576s9.471-11.163,9.471-11.163a30.848,30.848,0,0,1,7.78,4.059C77.6,142.894,63.052,183.486,63.052,183.486Z" transform="translate(-9.321 -21.187)"/>
      <path id="Path_818" data-name="Path 818" class="cls-4" d="M65.758,182.809,69.077,196.6c-.812.047-1.766.091-2.838.132-2.5.088-5.635.145-9.028.122-1.221-3.623-2.4-7.445-3.291-11-3.044-12.177,2.03-30.782,4.736-39.576s8.626.846,8.626.846-2.368-5.75,2.03-2.706S65.758,182.809,65.758,182.809Z" transform="translate(-9.321 -21.187)"/>
      <path id="Path_819" data-name="Path 819" class="cls-11" d="M66.773,135.114s-6.765,2.368-9.471,11.163-7.78,27.4-4.736,39.577,9.471,27.4,9.471,27.4,6.427-4.736,8.795-3.721l-6.427-26.723s14.545-40.591,10.148-43.635A30.861,30.861,0,0,0,66.773,135.114Z" transform="translate(-9.321 -21.187)"/>
      <rect id="Rectangle_192" data-name="Rectangle 192" class="cls-3" width="161.567" height="84.621" transform="translate(125.379 89.128)"/>
      <ellipse id="Ellipse_108" data-name="Ellipse 108" class="cls-13" cx="18.283" cy="18.316" rx="18.283" ry="18.316" transform="translate(190.885 114.779)"/>
      <path id="Path_820" data-name="Path 820" class="cls-5" d="M218.489,132.844a21.851,21.851,0,1,0,21.851,21.851A21.851,21.851,0,0,0,218.489,132.844ZM214,166.345l-11.2-11.2,3.141-3.141,8.068,8.068,17.029-17.029,3.141,3.141L214,166.345Z" transform="translate(-9.321 -21.187)"/>
    </g>
  </g>
</svg>
